<svg xmlns="http://www.w3.org/2000/svg" width="15.5" height="15.5" viewBox="0 0 15.5 15.5">
  <defs>
    <style>
      .cls-1 {
        fill: #fff;
      }
    </style>
  </defs>
  <path id="路径_4461" data-name="路径 4461" class="cls-1" d="M117.368,122.819h7.294v-7.294h-7.294Zm1.824-5.471h3.647V121h-3.647Zm6.382-1.824v7.294h7.294v-7.294ZM131.045,121H127.4v-3.647h3.647Zm-10.941-.912h1.824V118.26H120.1Zm-2.735,10.941h7.294v-7.294h-7.294Zm1.824-5.471h3.647V129.2h-3.647Zm10.941-7.294h-1.824v1.824h1.824V118.26Zm-4.559,12.765H127.4V129.2h-1.824Zm1.824-5.471V129.2h1.824v-3.647Zm3.647,3.647h-1.824v1.824h3.647v-3.647h-1.824Zm0-3.647h1.824v-1.824h-1.824Zm-5.471-1.824v1.824H127.4v-1.824ZM120.1,128.29h1.824v-1.824H120.1Z" transform="translate(-117.368 -115.525)"/>
</svg>
