<svg xmlns="http://www.w3.org/2000/svg" width="8.572" height="10" viewBox="0 0 8.572 10">
  <defs>
    <style>
      .cls-1 {
        fill: #fff;
        opacity: 0.4;
      }
    </style>
  </defs>
  <path id="路径_76" data-name="路径 76" class="cls-1" d="M78.558,6.977c.019-.011.232-.137.294-.172a2.9,2.9,0,0,1,.3-.156c.667-.287,1.256-.084,2.034.775.481.532.624,1,.438,1.424a1.825,1.825,0,0,1-.88.8c-.031.017-.3.167-.374.209-1.1.644-3.637-.831-5.459-3.353s-2.3-5.222-1.179-5.876l.148-.089.16-.1A1.92,1.92,0,0,1,75.4.024a1.609,1.609,0,0,1,1.1.916c.651,1.156.507,1.7-.33,2.2-.06.036-.274.159-.294.171-.205.12.143.924.951,2.043s1.5,1.749,1.726,1.619Z" transform="translate(-73.135 -0.007)"/>
</svg>
