<svg xmlns="http://www.w3.org/2000/svg" width="14" height="13" viewBox="0 0 14 13">
  <defs>
    <style>
      .cls-1 {
        fill: #606266;
      }
    </style>
  </defs>
  <path id="路径_1578" data-name="路径 1578" class="cls-1" d="M107.941,138.667A2.036,2.036,0,0,1,110,140.679v6.909a2.036,2.036,0,0,1-2.059,2.012H102.6l-2.365,1.859a1.015,1.015,0,0,1-.489.2l-.118.008a.971.971,0,0,1-.962-.836l-.007-.111V149.6h-.6A2.036,2.036,0,0,1,96,147.587v-6.909a2.036,2.036,0,0,1,2.059-2.012Zm0,1.052H98.059a.971.971,0,0,0-.982.959v6.909a.971.971,0,0,0,.982.96H99.2a.532.532,0,0,1,.538.526V150.5l2.339-1.839a.546.546,0,0,1,.337-.116h5.528a.971.971,0,0,0,.982-.96v-6.909A.971.971,0,0,0,107.941,139.719Zm-3.505,5.26a.526.526,0,1,1,0,1.052H99.963a.526.526,0,1,1,0-1.052Zm1.931-2.455a.526.526,0,1,1,0,1.052h-6.4a.526.526,0,1,1,0-1.052Z" transform="translate(-96 -138.667)"/>
</svg>
