<svg xmlns="http://www.w3.org/2000/svg" width="22" height="22" viewBox="0 0 22 22">
  <defs>
    <style>
      .cls-1 {
        opacity: 0;
      }

      .cls-2 {
        fill: #909399;
      }
    </style>
  </defs>
  <g id="_3" data-name="3" transform="translate(0.095 0.095)">
    <rect id="矩形_1141" data-name="矩形 1141" class="cls-1" width="22" height="22" transform="translate(-0.095 -0.095)"/>
    <path id="路径_763" data-name="路径 763" class="cls-2" d="M16.3,16.976H.679A.679.679,0,0,1,0,16.3V2.207a.679.679,0,0,1,.679-.679H4.244V.17A.17.17,0,0,1,4.414,0H5.6a.17.17,0,0,1,.17.17V1.528H11.2V.17a.17.17,0,0,1,.17-.17h1.188a.17.17,0,0,1,.17.17V1.528H16.3a.679.679,0,0,1,.679.679V16.3A.679.679,0,0,1,16.3,16.976ZM1.528,7.385v8.063h13.92V7.385Zm0-4.33V5.942h13.92V3.056H12.732V4.074a.17.17,0,0,1-.17.17H11.374a.17.17,0,0,1-.17-.17V3.056H5.772V4.074a.17.17,0,0,1-.17.17H4.414a.17.17,0,0,1-.17-.17V3.056Z" transform="translate(2.417 2.417)"/>
  </g>
</svg>
