<svg id="组件_8_1" data-name="组件 8 – 1" xmlns="http://www.w3.org/2000/svg" width="30" height="30" viewBox="0 0 30 30">
  <defs>
    <style>
      .cls-1 {
        fill: none;
        opacity: 0.39;
      }

      .cls-2 {
        fill: #606266;
      }

      .cls-3 {
        fill: #0082ef;
      }
    </style>
  </defs>
  <rect id="矩形_2540" data-name="矩形 2540" class="cls-1" width="30" height="30"/>
  <g id="组_4206" data-name="组 4206" transform="translate(-137 -280)">
    <g id="组_2865" data-name="组 2865" transform="translate(127.337 273.356)">
      <path id="路径_2236" data-name="路径 2236" class="cls-2" d="M32.31,104.666H16.5a1.84,1.84,0,0,1-1.84-1.84V87.018a1.84,1.84,0,0,1,1.84-1.84H27.467a.681.681,0,1,1,0,1.361H16.5a.478.478,0,0,0-.478.478v15.809a.479.479,0,0,0,.478.478h15.8a.479.479,0,0,0,.478-.478V91.21a.681.681,0,1,1,1.361,0v11.616a1.839,1.839,0,0,1-1.835,1.84Z" transform="translate(0 -72.954)"/>
      <path id="路径_2237" data-name="路径 2237" class="cls-2" d="M196.313,28.205H185.525a.681.681,0,1,1,0-1.361h10.787a.681.681,0,1,1,0,1.361Zm5.648-15.824-1.406-1.406a1.245,1.245,0,0,0-1.751.059l-5.539,5.539a1.1,1.1,0,0,0-.286.5l-.7,2.619a.79.79,0,0,0,.765,1,.751.751,0,0,0,.207-.03l2.619-.7a1.112,1.112,0,0,0,.493-.286l5.544-5.549A1.239,1.239,0,0,0,201.961,12.382Zm-7.828,5.633.789.789-1.075.291Zm1.623.335-1.169-1.169,3.936-3.936,1.174,1.174-3.941,3.931Zm4.577-4.577L199.159,12.6l.552-.552,1.174,1.174-.552.552Zm-4.079,10.674H185.466a.681.681,0,1,1,0-1.361h10.787a.681.681,0,1,1,0,1.361Zm-6.259-3.759h-4.528a.681.681,0,1,1,0-1.361h4.528a.681.681,0,1,1,0,1.361Z" transform="translate(-166.518)"/>
    </g>
    <path id="路径_2243" data-name="路径 2243" class="cls-3" d="M196.313,28.205H185.525a.681.681,0,1,1,0-1.361h10.787a.681.681,0,1,1,0,1.361Zm-.059-3.759H185.466a.681.681,0,1,1,0-1.361h10.787a.681.681,0,1,1,0,1.361Zm-6.259-3.759h-4.528a.681.681,0,1,1,0-1.361h4.528a.681.681,0,1,1,0,1.361Z" transform="translate(-39.181 273.356)"/>
  </g>
</svg>
