<svg xmlns="http://www.w3.org/2000/svg" width="51.999" height="51.999" viewBox="0 0 51.999 51.999">
  <defs>
    <style>
      .cls-1 {
        fill: #cfe9ff;
      }

      .cls-2, .cls-3 {
        stroke: none;
      }

      .cls-3 {
        fill: #6abbff;
      }
    </style>
  </defs>
  <g id="组_4082" data-name="组 4082" transform="translate(-45.672 -45.022)">
    <g id="路径_2221" data-name="路径 2221" class="cls-1" transform="translate(-631.37 -49.655)">
      <path class="cls-2" d="M 714.0271606445313 121.2687377929688 L 714.0924682617188 108.5908279418945 C 714.1038818359375 106.8626480102539 714.1126098632813 105.1049957275391 714.12109375 103.4052124023438 C 714.1293334960938 101.7425231933594 714.1378784179688 100.0255737304688 714.1489868164063 98.33250427246094 C 716.3973388671875 99.33926391601563 718.5538330078125 100.7614288330078 720.56005859375 102.5613174438477 C 722.68994140625 104.4804992675781 724.4114379882813 106.5624847412109 725.8222045898438 108.925537109375 C 725.9180908203125 109.087158203125 726.01123046875 109.2593231201172 726.101318359375 109.4258270263672 C 726.149169921875 109.5142364501953 726.1980590820313 109.6045227050781 726.2479248046875 109.6943206787109 C 724.0576782226563 111.7608108520508 721.844970703125 113.8588104248047 719.70361328125 115.8891677856445 L 719.6705932617188 115.9205169677734 L 717.5061645507813 117.9724426269531 C 716.6702880859375 118.7648239135742 715.8346557617188 119.5569686889648 714.9957275390625 120.3524322509766 C 714.672119140625 120.661865234375 714.3526000976563 120.9632797241211 714.0271606445313 121.2687377929688 Z"/>
      <path class="cls-3" d="M 714.5331420898438 120.102783203125 C 714.5726318359375 120.0651779174805 714.6121215820313 120.0274429321289 714.6516723632813 119.989616394043 C 715.4906005859375 119.1941223144531 716.3262329101563 118.4019775390625 717.1621704101563 117.6095733642578 L 719.3265380859375 115.5576858520508 L 719.359619140625 115.5263366699219 C 721.4097900390625 113.582405090332 723.5255737304688 111.576286315918 725.6244506835938 109.5951843261719 C 725.546142578125 109.4506988525391 725.4707641601563 109.3131332397461 725.3928833007813 109.1818389892578 C 724.0081176757813 106.8623275756836 722.3175659179688 104.8180084228516 720.2261962890625 102.9334945678711 C 718.441162109375 101.3320693969727 716.6068725585938 100.0768966674805 714.64404296875 99.11624145507813 C 714.63525390625 100.5539169311523 714.6280517578125 102.0002746582031 714.62109375 103.4077072143555 C 714.6126098632813 105.1076889038086 714.6038818359375 106.8655395507813 714.5924682617188 108.5933990478516 L 714.5331420898438 120.102783203125 M 713.5228881835938 122.3584442138672 L 713.5228881835938 122.0923080444336 L 713.5924682617188 108.588249206543 C 713.6155395507813 105.0936431884766 713.6271362304688 101.5989990234375 713.6504516601563 98.10435485839844 C 713.6504516601563 97.77693939208984 713.6504516601563 97.65090179443359 713.7635498046875 97.65090179443359 C 713.8342895507813 97.65090179443359 713.9492797851563 97.70020294189453 714.1362915039063 97.78038787841797 C 716.6356811523438 98.86810302734375 718.8689575195313 100.3724060058594 720.8939819335938 102.1891479492188 C 723.0000610351563 104.0868988037109 724.7938842773438 106.2276382446289 726.2515258789063 108.6692352294922 C 726.4368286132813 108.981689453125 726.5988159179688 109.3056793212891 726.7726440429688 109.6065368652344 C 726.8417358398438 109.7338485717773 726.8417358398438 109.8148345947266 726.7261352539063 109.9305419921875 C 724.4812622070313 112.0481567382813 722.2479858398438 114.1657257080078 720.0145874023438 116.2833480834961 C 718.4524536132813 117.764518737793 716.9017944335938 119.2340927124023 715.3397827148438 120.7152557373047 C 714.8073120117188 121.2243957519531 714.2750854492188 121.7219848632813 713.7310180664063 122.2311248779297 C 713.6619262695313 122.2889862060547 713.6271362304688 122.3584136962891 713.5228881835938 122.3584136962891 L 713.5228881835938 122.3584442138672 Z"/>
    </g>
    <g id="路径_2222" data-name="路径 2222" class="cls-1" transform="translate(-50.583 -428.168)">
      <path class="cls-2" d="M 111.9004440307617 521.5465698242188 C 110.0656661987305 520.7251586914063 108.2916412353516 519.6272583007813 106.6251449584961 518.2808227539063 C 103.8429565429688 516.0224609375 101.5906524658203 513.3729858398438 99.93167114257813 510.4066467285156 C 99.89543914794922 510.3411254882813 99.85022735595703 510.2593994140625 99.81832122802734 510.1962890625 C 99.86593627929688 510.1478271484375 99.92962646484375 510.0874938964844 99.97803497314453 510.0416259765625 C 101.6159362792969 508.4850158691406 103.283821105957 506.9056701660156 104.8968048095703 505.3783264160156 C 106.4980850219727 503.8620300292969 108.1538848876953 502.2941589355469 109.7797164916992 500.7490844726563 C 110.5249099731445 500.0377807617188 111.2556991577148 499.3465881347656 112.0212173461914 498.6231689453125 C 111.9995498657227 503.3812255859375 111.9767379760742 508.2821044921875 111.9438858032227 513.1004028320313 C 111.9329986572266 515.8676147460938 111.9217681884766 518.7236938476563 111.9004440307617 521.5465698242188 Z"/>
      <path class="cls-3" d="M 111.5158843994141 499.7891845703125 C 111.0496673583984 500.2305908203125 110.5897750854492 500.6670532226563 110.124153137207 501.111572265625 C 108.4976577758789 502.6572265625 106.8413314819336 504.2255859375 105.2395553588867 505.7423706054688 C 103.6660461425781 507.2322998046875 102.0402908325195 508.7717895507813 100.4407501220703 510.2916564941406 C 102.0615539550781 513.1502075195313 104.2480010986328 515.707275390625 106.9393768310547 517.8919067382813 C 108.3590240478516 519.0389404296875 109.8573150634766 520.0013427734375 111.4060974121094 520.76220703125 C 111.4238433837891 518.195556640625 111.4340057373047 515.610107421875 111.4438934326172 513.0970458984375 C 111.4740676879883 508.6725769042969 111.4957656860352 504.1785888671875 111.5158843994141 499.7891845703125 M 112.5248870849609 497.4589233398438 L 112.52490234375 497.4591674804688 L 112.5248870849609 497.4589233398438 Z M 112.5248870849609 497.4591674804688 L 112.5248870849609 497.8176879882813 C 112.5017242431641 502.9092407226563 112.4785919189453 508.0123901367188 112.4438781738281 513.1038208007813 C 112.4323120117188 516.0430297851563 112.4207382202148 518.9822387695313 112.3975677490234 521.9214477539063 C 112.3975677490234 522.1561279296875 112.3975524902344 522.24658203125 112.3143844604492 522.24658203125 C 112.2621765136719 522.24658203125 112.1771926879883 522.2109375 112.0388412475586 522.1528930664063 C 109.9559783935547 521.2617797851563 108.0582427978516 520.0814819335938 106.3109130859375 518.6697387695313 C 103.5453338623047 516.4248657226563 101.2425918579102 513.7749633789063 99.49528503417969 510.6506958007813 C 99.19442749023438 510.1068725585938 99.19442749023438 510.0952758789063 99.63413238525391 509.6786499023438 C 102.8973083496094 506.5774536132813 106.1720733642578 503.4877319335938 109.4352874755859 500.3866577148438 C 110.4535980224609 499.4146118164063 111.4603118896484 498.4657592773438 112.52490234375 497.4591674804688 Z"/>
    </g>
    <g id="路径_2223" data-name="路径 2223" class="cls-1" transform="translate(0 -293.407)">
      <path class="cls-2" d="M 47.51450729370117 371.9858093261719 C 47.15349578857422 371.0267333984375 46.86297988891602 369.9867553710938 46.64913558959961 368.8869323730469 C 46.28409576416016 367.0504150390625 46.12762451171875 365.1884765625 46.18366622924805 363.3507385253906 C 46.26862335205078 360.5834350585938 46.68848037719727 358.1220092773438 47.46708679199219 355.828125 C 49.2362174987793 355.8315124511719 51.17207336425781 355.8331604003906 53.38200378417969 355.8331604003906 C 55.37462615966797 355.8331604003906 57.36757659912109 355.8318786621094 59.36010360717773 355.83056640625 C 61.04708480834961 355.8294982910156 62.73379135131836 355.8283996582031 64.41969299316406 355.8280944824219 C 63.42237091064453 356.7811279296875 62.42499542236328 357.735107421875 61.42730712890625 358.6894226074219 C 59.22824478149414 360.7928161621094 56.95431518554688 362.9678039550781 54.71211624145508 365.1024780273438 L 54.69217681884766 365.1215515136719 C 52.34307479858398 367.3714599609375 49.91615676879883 369.6958618164063 47.51450729370117 371.9858093261719 Z"/>
      <path class="cls-3" d="M 63.17260360717773 356.3284301757813 C 61.90217971801758 356.3289184570313 60.63139343261719 356.3297424316406 59.36042404174805 356.33056640625 C 57.3677864074707 356.3318786621094 55.37472534179688 356.3331604003906 53.38200378417969 356.3331604003906 C 51.32184219360352 356.3331604003906 49.49977111816406 356.3317260742188 47.82826614379883 356.3287658691406 C 47.13759613037109 358.4785461425781 46.76265716552734 360.7855529785156 46.68343353271484 363.3659973144531 C 46.62854766845703 365.1659545898438 46.78186798095703 366.989990234375 47.13994598388672 368.79150390625 C 47.2958984375 369.5935668945313 47.49342727661133 370.3623657226563 47.73001861572266 371.0892639160156 C 49.95192337036133 368.9692687988281 52.18866729736328 366.8269958496094 54.35914611816406 364.7481994628906 L 54.36735534667969 364.7403259277344 C 56.60976409912109 362.6054992675781 58.88410568237305 360.4300842285156 61.08356475830078 358.3262939453125 C 61.78007507324219 357.6600952148438 62.47632598876953 356.994140625 63.17260360717773 356.3284301757813 M 47.40806579589844 355.3280029296875 C 49.39826202392578 355.3318786621094 51.39009857177734 355.3331604003906 53.38200378417969 355.3331604003906 C 57.36616897583008 355.3331604003906 61.35168075561523 355.3280029296875 65.33243560791016 355.3280029296875 L 65.63330078125 355.3280029296875 C 65.44815063476563 355.51318359375 65.30929565429688 355.6635131835938 65.17044067382813 355.8023071289063 C 61.80310440063477 359.019287109375 58.43574523925781 362.247802734375 55.05687713623047 365.464599609375 C 52.59211349487305 367.8252563476563 50.12737655639648 370.1859130859375 47.65105438232422 372.5464477539063 C 47.60476684570313 372.5927124023438 47.54692459106445 372.6390991210938 47.50062561035156 372.6968383789063 C 47.44464492797852 372.7630920410156 47.39985656738281 372.7957153320313 47.36133575439453 372.7957153320313 C 47.31227493286133 372.7957153320313 47.27338409423828 372.7427978515625 47.23448181152344 372.6390991210938 C 46.74846649169922 371.4588623046875 46.40133666992188 370.232177734375 46.1583251953125 368.9823608398438 C 45.78803253173828 367.1194458007813 45.62602233886719 365.2332763671875 45.68389892578125 363.3355102539063 C 45.764892578125 360.697265625 46.1583251953125 358.105224609375 47.01463317871094 355.6057739257813 C 47.08405303955078 355.3975219726563 47.18819427490234 355.3280029296875 47.40806579589844 355.3280029296875 Z"/>
    </g>
    <g id="路径_2224" data-name="路径 2224" class="cls-1" transform="translate(-557.17 -293.408)">
      <path class="cls-2" d="M 652.8392333984375 372.3474426269531 L 636.1260375976563 372.3474426269531 L 638.0599975585938 370.4975280761719 C 642.9603881835938 365.8101501464844 648.0216064453125 360.9689636230469 653.0110473632813 356.1883239746094 C 653.0704345703125 356.3493347167969 653.1235961914063 356.5081787109375 653.1734619140625 356.6623229980469 L 653.1744384765625 356.6653747558594 L 653.1754760742188 356.6683959960938 C 653.7323608398438 358.3169860839844 654.0899658203125 360.0562744140625 654.2384033203125 361.8380126953125 C 654.5418701171875 365.4407653808594 654.1678466796875 368.9063110351563 653.1268310546875 372.1388244628906 C 653.1079711914063 372.1991882324219 653.08203125 372.2823181152344 653.0597534179688 372.345458984375 C 652.99755859375 372.3474426269531 652.9153442382813 372.3474426269531 652.8392333984375 372.3474426269531 Z"/>
      <path class="cls-3" d="M 652.6949462890625 371.8474426269531 C 653.6820068359375 368.7176818847656 654.03369140625 365.3651123046875 653.7401733398438 361.8795166015625 C 653.6029663085938 360.2333374023438 653.2832641601563 358.6245727539063 652.7892456054688 357.0932922363281 C 647.9840698242188 361.6967468261719 643.1200561523438 366.3493347167969 638.4055786132813 370.8588562011719 L 637.3721313476563 371.8474426269531 L 652.6949462890625 371.8474426269531 M 652.8392333984375 372.8474426269531 L 634.8800048828125 372.8474426269531 C 641.0130615234375 366.9806213378906 647.0880126953125 361.1716613769531 653.1861572265625 355.3280334472656 C 653.3828125 355.7214050292969 653.5218505859375 356.1149597167969 653.649169921875 356.5083923339844 C 654.2276611328125 358.2209777832031 654.5863037109375 359.9915466308594 654.7366943359375 361.7964782714844 C 655.037841796875 365.3722229003906 654.7021484375 368.8783264160156 653.602783203125 372.2920837402344 C 653.4293212890625 372.8474426269531 653.4176025390625 372.8474426269531 652.8392333984375 372.8474426269531 Z"/>
    </g>
    <g id="路径_2225" data-name="路径 2225" class="cls-1" transform="translate(-297.231 0)">
      <path class="cls-2" d="M 377.3121032714844 63.50313186645508 C 372.6494140625 58.79087829589844 367.9615783691406 54.01904296875 363.4191589355469 49.39519119262695 C 362.5877075195313 48.54883575439453 361.7558288574219 47.70205307006836 360.9234008789063 46.85491180419922 C 361.6539611816406 46.58538818359375 362.4334106445313 46.35610961914063 363.2863464355469 46.15928268432617 C 365.0931701660156 45.73641204833984 366.9876708984375 45.52218246459961 368.9187316894531 45.52218246459961 C 369.1981201171875 45.52218246459961 369.4830932617188 45.52663421630859 369.7657470703125 45.53542327880859 C 372.5965576171875 45.63430404663086 375.0666809082031 46.04796981811523 377.3121032714844 46.79976272583008 L 377.3121032714844 63.50313186645508 Z"/>
      <path class="cls-3" d="M 368.9187316894531 46.02218246459961 C 367.0259704589844 46.02218246459961 365.1697998046875 46.23199081420898 363.3987731933594 46.646484375 C 362.8484497070313 46.77347183227539 362.3300170898438 46.91411590576172 361.8363952636719 47.07066345214844 C 362.4824829101563 47.7282600402832 363.1282043457031 48.38555145263672 363.7737731933594 49.04269409179688 C 368.0387573242188 53.38413238525391 372.4320983886719 57.85622024536133 376.8121032714844 62.28657531738281 L 376.8121032714844 47.16286849975586 C 374.7038269042969 46.49669647216797 372.3872985839844 46.12730026245117 369.7502136230469 46.03518295288086 C 369.4728393554688 46.02655410766602 369.1930847167969 46.02218246459961 368.9187316894531 46.02218246459961 M 368.9187316894531 45.02217864990234 C 369.2057495117188 45.02217864990234 369.4931030273438 45.02670288085938 369.7812805175781 45.03565979003906 C 372.4312438964844 45.12821960449219 375.0347595214844 45.49851989746094 377.5574035644531 46.35481262207031 C 377.7541809082031 46.42424392700195 377.8121032714844 46.51682281494141 377.8121032714844 46.71353149414063 L 377.8121032714844 64.71893310546875 C 371.8526916503906 58.70170211791992 365.9626770019531 52.69606399536133 360.0379943847656 46.66724395751953 C 361.0794982910156 46.22753143310547 362.1208801269531 45.91509246826172 363.1739196777344 45.67209625244141 C 365.0686950683594 45.22863006591797 366.981201171875 45.02217864990234 368.9187316894531 45.02217864990234 Z"/>
    </g>
    <g id="路径_2226" data-name="路径 2226" class="cls-1" transform="translate(-297.036 -562.849)">
      <path class="cls-2" d="M 368.6710205078125 659.3705444335938 C 367.7887268066406 659.3705444335938 366.8709411621094 659.3265991210938 365.943115234375 659.2398681640625 C 363.8834533691406 659.0471801757813 362.0473327636719 658.6708984375 360.3331604003906 658.08984375 L 360.3331604003906 641.3792724609375 C 365.6351623535156 646.7691040039063 370.8971252441406 652.1282348632813 376.7089538574219 658.048583984375 C 375.3218994140625 658.5569458007813 373.8186340332031 658.9138793945313 372.1259460449219 659.1381225585938 C 371.0074157714844 659.29248046875 369.8459167480469 659.3705444335938 368.6710205078125 659.3705444335938 Z"/>
      <path class="cls-3" d="M 360.8331604003906 642.6006469726563 L 360.8331604003906 657.7280883789063 C 362.4131164550781 658.2333984375 364.10498046875 658.5657348632813 365.9896545410156 658.7420043945313 C 366.9020690917969 658.8273315429688 367.80419921875 658.8705444335938 368.6709899902344 658.8705444335938 C 369.8231201171875 658.8705444335938 370.9616088867188 658.7940673828125 372.0549011230469 658.6431884765625 L 372.0576171875 658.642822265625 L 372.060302734375 658.6424560546875 C 373.4192810058594 658.4624633789063 374.6518859863281 658.195556640625 375.7960205078125 657.8323364257813 C 370.5149841308594 652.4527587890625 365.6770935058594 647.5257568359375 360.8331604003906 642.6006469726563 M 359.8447570800781 640.205078125 C 360.1108703613281 640.47119140625 360.3421936035156 640.691162109375 360.5737609863281 640.910888671875 C 366.1744079589844 646.6041259765625 371.7749938964844 652.3087158203125 377.3641052246094 658.002197265625 C 377.5956115722656 658.2333984375 377.5956115722656 658.2451171875 377.2946472167969 658.3607177734375 C 375.6514587402344 659.0089111328125 373.9389343261719 659.40234375 372.1916198730469 659.6337890625 C 371.018798828125 659.795654296875 369.8457946777344 659.8705444335938 368.6709899902344 659.8705444335938 C 367.7477111816406 659.8705444335938 366.8234252929688 659.8243408203125 365.8965759277344 659.7376708984375 C 363.9179382324219 659.5526123046875 361.9739074707031 659.1824951171875 360.0877990722656 658.534423828125 C 359.9141540527344 658.4765625 359.8331604003906 658.4072265625 359.8331604003906 658.1988525390625 L 359.8331604003906 640.4364013671875 C 359.8447570800781 640.37841796875 359.8447570800781 640.320556640625 359.8447570800781 640.205078125 Z"/>
    </g>
    <g id="路径_2227" data-name="路径 2227" class="cls-1" transform="translate(-421.717 -635.31)">
      <path class="cls-2" d="M 504.5430297851563 728.8346557617188 C 502.2015380859375 726.6182861328125 499.810791015625 724.3660888671875 497.4981994628906 722.1874389648438 L 497.42041015625 722.1141967773438 C 496.4673767089844 721.2135009765625 495.5108032226563 720.3121948242188 494.5542602539063 719.410888671875 C 493.8822326660156 718.7777099609375 493.2101745605469 718.1444702148438 492.5391540527344 717.5112915039063 C 496.3964233398438 717.531494140625 500.2876586914063 717.5498046875 504.0627136230469 717.5675048828125 C 508.1170959472656 717.5866088867188 512.3018798828125 717.6062622070313 516.4337158203125 717.6282958984375 C 516.296630859375 717.9011840820313 516.1417236328125 718.1676635742188 515.98193359375 718.442626953125 C 514.6317749023438 720.777587890625 512.8651733398438 722.8910522460938 510.7303161621094 724.7257690429688 C 508.6697387695313 726.5043334960938 506.6452941894531 727.8486938476563 504.5430297851563 728.8346557617188 Z"/>
      <path class="cls-3" d="M 493.8050537109375 718.017822265625 C 494.1689453125 718.36083984375 494.5330810546875 718.7039794921875 494.8971557617188 719.0469970703125 C 495.8538818359375 719.948486328125 496.8106384277344 720.8499755859375 497.7632751464844 721.750244140625 L 497.8472900390625 721.8294067382813 C 500.075927734375 723.9288940429688 502.3772888183594 726.096923828125 504.63720703125 728.2353515625 C 506.588623046875 727.283447265625 508.4786987304688 726.0087280273438 510.4044189453125 724.3465576171875 C 512.4965209960938 722.548583984375 514.2271118164063 720.478515625 515.549560546875 718.1914672851563 C 515.562744140625 718.1688842773438 515.5758056640625 718.1463012695313 515.5888671875 718.1238403320313 C 511.7335510253906 718.1035766601563 507.84326171875 718.0853271484375 504.0658874511719 718.0675659179688 C 500.7024536132813 718.0517578125 497.246826171875 718.0354614257813 493.8050537109375 718.017822265625 M 491.3150024414063 717.0047607421875 C 499.9590454101563 717.0511474609375 508.5681762695313 717.085693359375 517.1891479492188 717.13232421875 C 516.9923706054688 717.69921875 516.7030639648438 718.1968994140625 516.4138793945313 718.6944580078125 C 515.0020141601563 721.1361083984375 513.1968383789063 723.2652587890625 511.0562133789063 725.10498046875 C 509.1121215820313 726.782958984375 507.0291137695313 728.2294921875 504.6918334960938 729.3170166015625 C 504.6165466308594 729.3499755859375 504.5546264648438 729.3676147460938 504.49755859375 729.3676147460938 C 504.4142456054688 729.3676147460938 504.3412780761719 729.3300170898438 504.2520141601563 729.2476806640625 C 501.8683471679688 726.9912109375 499.4729614257813 724.7347412109375 497.0775756835938 722.4781494140625 C 495.1798706054688 720.6846923828125 493.2705688476563 718.8909912109375 491.3727416992188 717.0975341796875 C 491.3613891601563 717.085693359375 491.3496704101563 717.062744140625 491.3150024414063 717.0047607421875 Z"/>
    </g>
    <g id="路径_2228" data-name="路径 2228" class="cls-1" transform="translate(-49.464 -50.015)">
      <path class="cls-2" d="M 122.7263641357422 109.8763122558594 C 114.8982162475586 109.8342590332031 106.8356170654297 109.7913360595703 98.87184906005859 109.7586441040039 C 99.03164672851563 109.4357070922852 99.21762847900391 109.0967559814453 99.44265747070313 108.7165603637695 C 101.1026000976563 105.9174118041992 103.3085708618164 103.5043792724609 106.1864166259766 101.3399505615234 C 107.6846313476563 100.2103652954102 109.1693267822266 99.3004150390625 110.7248458862305 98.55841064453125 C 114.7276763916016 102.3430709838867 118.7615814208984 106.1472015380859 122.7263641357422 109.8763122558594 Z"/>
      <path class="cls-3" d="M 121.4579238891602 109.369499206543 C 117.8744735717773 105.9976577758789 114.2422561645508 102.5718307495117 110.6324691772461 99.15915679931641 C 109.2186965942383 99.85852813720703 107.8592529296875 100.7049026489258 106.486946105957 101.7395401000977 C 103.6623077392578 103.8639602661133 101.4987106323242 106.2296981811523 99.87294006347656 108.9712295532227 C 99.81388092041016 109.0710067749023 99.75760650634766 109.1678314208984 99.70391845703125 109.2621002197266 C 106.9668579101563 109.2925109863281 114.3024063110352 109.3311157226563 121.4579238891602 109.369499206543 M 123.9259719848633 110.3827743530273 C 115.3167114257813 110.3365020751953 106.7189559936523 110.2901916503906 98.09812927246094 110.2555084228516 L 98.09822082519531 110.2555084228516 C 98.3643798828125 109.6074676513672 98.67676544189453 109.0289001464844 99.01238250732422 108.4618835449219 C 100.7828063964844 105.4764099121094 103.1318511962891 103.0116577148438 105.8858795166016 100.9403533935547 C 107.3438873291016 99.84107971191406 108.8828887939453 98.88056945800781 110.5376586914063 98.09375 C 110.6255722045898 98.05467987060547 110.6990661621094 98.03208923339844 110.7676849365234 98.03208923339844 C 110.8616561889648 98.03208923339844 110.9464950561523 98.07442474365234 111.0468292236328 98.17472839355469 C 115.2935791015625 102.1900634765625 119.5519256591797 106.2053833007813 123.8102111816406 110.2091979980469 C 123.8565368652344 110.2555084228516 123.9143676757813 110.2670440673828 123.9722290039063 110.3017272949219 C 123.9606628417969 110.3248672485352 123.9375305175781 110.3595886230469 123.9259719848633 110.3827743530273 Z"/>
    </g>
  </g>
</svg>
