<svg xmlns="http://www.w3.org/2000/svg" width="266.032" height="207.397" viewBox="0 0 266.032 207.397">
  <defs>
    <style>
      .cls-1, .cls-5 {
        fill: #ebebeb;
      }

      .cls-2 {
        fill: #e6e6e6;
      }

      .cls-3 {
        fill: #f5f5f5;
      }

      .cls-4 {
        fill: #f0f0f0;
      }

      .cls-5 {
        stroke: #ebebeb;
      }

      .cls-5, .cls-6, .cls-9 {
        stroke-miterlimit: 10;
      }

      .cls-6 {
        fill: none;
        stroke: #e0e0e0;
      }

      .cls-7 {
        opacity: 0.12;
      }

      .cls-8 {
        fill: #407bff;
      }

      .cls-11, .cls-9 {
        fill: #fff;
      }

      .cls-9 {
        stroke: #fff;
        opacity: 0.7;
      }

      .cls-10, .cls-18 {
        fill: #0e538c;
      }

      .cls-11 {
        opacity: 0.8;
      }

      .cls-12 {
        fill: #ffc3bd;
      }

      .cls-13 {
        fill: #263238;
      }

      .cls-14 {
        fill: #55b3ff;
      }

      .cls-15 {
        fill: #0b4870;
      }

      .cls-16 {
        opacity: 0.3;
      }

      .cls-17 {
        fill: #2a94f4;
      }

      .cls-18 {
        opacity: 0.1;
      }
    </style>
  </defs>
  <g id="组_3987" data-name="组 3987" transform="translate(4685 5335)">
    <rect id="矩形_2414" data-name="矩形 2414" class="cls-1" width="266.032" height="0.133" transform="translate(-4685 -5156.754)"/>
    <rect id="矩形_2415" data-name="矩形 2415" class="cls-1" width="12.333" height="0.133" transform="translate(-4605.169 -5153.36)"/>
    <rect id="矩形_2416" data-name="矩形 2416" class="cls-1" width="30.152" height="0.133" transform="translate(-4471.057 -5150.507)"/>
    <rect id="矩形_2417" data-name="矩形 2417" class="cls-1" width="30.152" height="0.133" transform="translate(-4662.27 -5150.507)"/>
    <path id="路径_2938" data-name="路径 2938" class="cls-1" d="M360.28,205.468H257.538a3.049,3.049,0,0,1-3.038-3.038V58.011A3.043,3.043,0,0,1,257.538,55H360.28a3.038,3.038,0,0,1,3.027,3.011V202.43a3.033,3.033,0,0,1-3.027,3.038ZM257.538,55.106a2.916,2.916,0,0,0-2.905,2.905V202.43a2.916,2.916,0,0,0,2.905,2.905H360.28a2.916,2.916,0,0,0,2.905-2.905V58.011a2.916,2.916,0,0,0-2.905-2.905Z" transform="translate(-4786.532 -5390)"/>
    <path id="路径_2939" data-name="路径 2939" class="cls-2" d="M120.27,336.6s10.444-5.853,11.141-14.2-7.518-10.029-11.141-12.95-3.756-5.571-3.9-10.444a19.733,19.733,0,0,0-7.1-14.9c-5.427-4.868-5.991-6.683-5.321-13.227s-3.762-14.759-9.332-13.365-5.986,10.162-4.874,15.733a22.315,22.315,0,0,1-2.878,15.728c-2.66,4.182-3.762,11.562,0,16.3s6.268,8.912,4.453,13.924-7.38,6.959-.974,17.4Z" transform="translate(-4718.01 -5468.72)"/>
    <path id="路径_2940" data-name="路径 2940" class="cls-3" d="M323.312,355.885h17.962a235.965,235.965,0,0,0,1.394-26.736c-.277-11.977-.974-30.913-8.513-30.36S318.024,318.7,323.312,355.885Z" transform="translate(-4835.524 -5500.024)"/>
    <path id="路径_2941" data-name="路径 2941" class="cls-4" d="M342.67,377.677s17.478-38.99,31.546-31.333-15.095,31.53-15.095,31.53Z" transform="translate(-4845.348 -5521.816)"/>
    <g id="组_3985" data-name="组 3985" transform="translate(-4542.692 -5220.069)">
      <path id="路径_2942" data-name="路径 2942" class="cls-2" d="M316.289,367.45a65.9,65.9,0,0,0-3.623-25.667c-4.773-12.977-10.689-20.751-17.372-18.245s-6.108,19.362,2.863,43.714Z" transform="translate(-271.873 -284.82)"/>
      <path id="路径_2943" data-name="路径 2943" class="cls-2" d="M349.25,366.45s7.609-11.918,11.807-23.182,5.156-19.686,1.336-21.761-21.761,17.356-23.672,45.14Z" transform="translate(-294.303 -284.018)"/>
      <path id="路径_2944" data-name="路径 2944" class="cls-4" d="M286.967,377.164s-9.833-38.043-26.63-32.328,13.3,32.525,13.3,32.525h14.174" transform="translate(-255.24 -294.731)"/>
      <path id="路径_2945" data-name="路径 2945" class="cls-5" d="M372.015,324.355s2.043-12.5,18.032-28.045S410.855,269.244,408,253.58c0,0,14.589,20.484,5.15,45.667s-24.087,33.621-36.106,36.936S372.015,324.355,372.015,324.355Z" transform="translate(-308.939 -252.303)"/>
      <path id="路径_2946" data-name="路径 2946" class="cls-6" d="M374.17,335.241c3.24-8.449,8.178-13.419,13.717-18.457,2.027-1.846,4.139-3.724,6.278-5.741,1.458-1.389,2.932-2.868,4.395-4.485h0a67.56,67.56,0,0,0,4.533-5.544h0a68.262,68.262,0,0,0,4.384-6.81h0c.277-.484.532-.974.819-1.484.346-.654.681-1.3.99-1.947a44.8,44.8,0,0,0,1.447-37.1,23.036,23.036,0,0,0-1.2-2.5" transform="translate(-310.892 -251.18)"/>
      <path id="路径_2947" data-name="路径 2947" class="cls-6" d="M430.48,307.39a15.909,15.909,0,0,1,5.161,9.673" transform="translate(-337.241 -277.483)"/>
      <path id="路径_2948" data-name="路径 2948" class="cls-6" d="M423.889,334.414h0c-.149-3.671-3.395-9.018-5.289-11.844" transform="translate(-331.682 -284.586)"/>
      <path id="路径_2949" data-name="路径 2949" class="cls-6" d="M401.8,339.88c1.484,2.346,4.576,7.694,5.294,12.668" transform="translate(-323.821 -292.686)"/>
      <path id="路径_2950" data-name="路径 2950" class="cls-6" d="M400,374.112s9.21-1.431,16.622,1" transform="translate(-322.979 -308.509)"/>
      <path id="路径_2951" data-name="路径 2951" class="cls-6" d="M434.168,350.22c-6.257-.713-13.929,2.543-14.148,2.628h0" transform="translate(-332.347 -297.477)"/>
      <path id="路径_2952" data-name="路径 2952" class="cls-6" d="M446.74,323.7a27.128,27.128,0,0,0-9.96,4.427h0" transform="translate(-340.189 -285.115)"/>
    </g>
    <path id="路径_2953" data-name="路径 2953" class="cls-7" d="M232.347,177.593c-1.421-.388-1.447-2.213-1.447-2.213l1.362.271A6.156,6.156,0,0,0,232.347,177.593Z" transform="translate(-4793.046 -5445.052)"/>
    <path id="路径_2954" data-name="路径 2954" class="cls-8" d="M264.805,82.278v76.7a4.288,4.288,0,0,1-4.288,4.288H144.607a4.283,4.283,0,0,1-4.257-4.288v-76.7a4.283,4.283,0,0,1,4.257-4.288h115.91A4.288,4.288,0,0,1,264.805,82.278Z" transform="translate(-4733.117 -5400.758)"/>
    <path id="路径_2955" data-name="路径 2955" class="cls-9" d="M264.805,82.278v76.7a4.288,4.288,0,0,1-4.288,4.288H144.607a4.283,4.283,0,0,1-4.257-4.288v-76.7a4.283,4.283,0,0,1,4.257-4.288h115.91A4.288,4.288,0,0,1,264.805,82.278Z" transform="translate(-4733.117 -5400.758)"/>
    <ellipse id="椭圆_116" data-name="椭圆 116" class="cls-10" cx="2.166" cy="2.166" rx="2.166" ry="2.166" transform="translate(-4502.382 -5317.55)"/>
    <path id="路径_2956" data-name="路径 2956" class="cls-10" d="M350.322,87.926a2.176,2.176,0,1,1-2.176-2.166A2.176,2.176,0,0,1,350.322,87.926Z" transform="translate(-4827.95 -5403.31)"/>
    <path id="路径_2957" data-name="路径 2957" class="cls-10" d="M337.772,87.926A2.176,2.176,0,1,1,335.6,85.76a2.176,2.176,0,0,1,2.176,2.166Z" transform="translate(-4826.312 -5403.31)"/>
    <path id="路径_2958" data-name="路径 2958" class="cls-8" d="M254.018,111.758v80.631a4.5,4.5,0,0,1-4.5,4.475H127.662a4.5,4.5,0,0,1-4.5-4.475V111.758a4.508,4.508,0,0,1,4.5-4.508H249.516A4.508,4.508,0,0,1,254.018,111.758Z" transform="translate(-4731.45 -5414.45)"/>
    <path id="路径_2959" data-name="路径 2959" class="cls-11" d="M254.018,111.758v80.631a4.5,4.5,0,0,1-4.5,4.475H127.662a4.5,4.5,0,0,1-4.5-4.475V111.758a4.508,4.508,0,0,1,4.5-4.508H249.515A4.508,4.508,0,0,1,254.018,111.758Z" transform="translate(-4731.449 -5414.45)"/>
    <path id="路径_2963" data-name="路径 2963" class="cls-12" d="M175.633,205.17s-7.1,10.583-9.311,12.684c0,0-11.9,1.064-16.792-2.283l-1.24,3.038s11.3,6.385,18.957,4.826,13.3-16.34,13.3-16.34Z" transform="translate(-4754.39 -5458.536)"/>
    <path id="路径_2964" data-name="路径 2964" class="cls-12" d="M261.127,182.849a80.147,80.147,0,0,0,11.014,2.213s3.192-7.412,3.724-14.142l2.4.133s2.213,13.11-3.591,18.42c-4.012,3.677-17.4-3.134-17.4-3.134Z" transform="translate(-4805.391 -5442.896)"/>
    <path id="路径_2965" data-name="路径 2965" class="cls-13" d="M219.582,137.807s-9.194-.889-10.146,8.481a34.919,34.919,0,0,0,2.735,17.026s5.56,11.317,12.3,9.742,12.456-5.225,11.264-11.333-3.411-5.853-3.331-14.366S224.5,133.9,219.582,137.807Z" transform="translate(-4782.936 -5427.071)"/>
    <path id="路径_2966" data-name="路径 2966" class="cls-12" d="M233.739,154.384c-.963,4.7-3.107,6.571-7.449,6.209a6.155,6.155,0,0,0,.085,1.942,3.56,3.56,0,0,0,3.033,3.027c3.724.644,1.687,5.438,1.687,5.438l-3.724,1.83-4.9-2.825-3.724-3.975h1.3s2.522-3.815,0-10.237a3.948,3.948,0,0,1-1.942-3.113,1.735,1.735,0,0,1,2.921-1.458s3.783-1.649,3.219-8.023a12.018,12.018,0,0,0,8.513,1.985A17.473,17.473,0,0,1,233.739,154.384Z" transform="translate(-4787.058 -5430.189)"/>
    <path id="路径_2975" data-name="路径 2975" class="cls-14" d="M233.66,189.33l-4.166,9.173-2.213-.8s.223,16.654-1.6,25.209H204.029l-1.245-22.73-1.133,2.373-7.981-4.48s2.208-9.045,5.656-10.641c1.644-.761,5.15-1.346,8.758-1.724a75.672,75.672,0,0,1,9.9-.468h.942a33.042,33.042,0,0,1,14.733,4.092Z" transform="translate(-4775.625 -5449.262)"/>
    <path id="路径_2976" data-name="路径 2976" class="cls-12" d="M290.715,163.372a9.439,9.439,0,0,1-1.6-3.916,9.641,9.641,0,0,1,.41-4.517l4.3-.149.532,3.762a7.183,7.183,0,0,1-1.229,4.954Z" transform="translate(-4820.24 -5434.517)"/>
    <path id="路径_2977" data-name="路径 2977" class="cls-12" d="M144.551,220.373l-2.24-4-2.724-.947-1.937,3.618,1.729,2.373s2.283,1.937,3.932,1.99Z" transform="translate(-4749.412 -5463.318)"/>
    <path id="路径_2978" data-name="路径 2978" class="cls-12" d="M231.553,185.229c-.037,5.736-3.623,12.019-3.623,12.019-3.192-3.081-6.385-9.689-7.22-11.562a75.664,75.664,0,0,1,9.9-.468S230.973,185.208,231.553,185.229Z" transform="translate(-4788.278 -5449.475)"/>
    <path id="路径_2979" data-name="路径 2979" class="cls-7" d="M208.66,212.376l1.117-6.156.021,3.788Z" transform="translate(-4782.64 -5459.124)"/>
    <path id="路径_2980" data-name="路径 2980" class="cls-7" d="M257.875,207.836,254.3,205.17l1.362,1.862Z" transform="translate(-4803.996 -5458.671)"/>
    <path id="路径_2987" data-name="路径 2987" class="cls-8" d="M217.527,244.23c-.607,9.886,13.7,39.436,15.292,49.791C227.892,304.419,215,317.674,215,317.674l6.108,6.052s21.389-17.321,22.5-29.391c.926-10.321-7.108-49.114-7.108-49.114Z" transform="translate(-4785.606 -5474.5)"/>
    <path id="路径_2991" data-name="路径 2991" class="cls-8" d="M211.047,244.47c-4.155,10.342-.92,33.689-.7,50.42-1.245,12.611.42,31.732.42,31.732l7.5.279s2.261-22.568,3.8-36.651c1.309-11.856,5.98-45.194,5.98-45.194Z" transform="translate(-4782.771 -5474.612)"/>
    <g id="组_3986" data-name="组 3986" transform="translate(-4584.27 -5230.541)">
      <path id="路径_2981" data-name="路径 2981" class="cls-12" d="M207.082,396.34l5.118,5.539-11.876,11.3-4.235-3.012Z" transform="translate(-192.488 -325.077)"/>
      <path id="路径_2982" data-name="路径 2982" class="cls-13" d="M198.195,423.171c.287,1.724.708,3.645,3.155,7.018.532.75-.883,2.155-2.485.67s-3.9-3.815-5.06-4.884c-1.889-1.751-2.66-2.33-4.2-3.693a.335.335,0,0,1-.064-.059.8.8,0,0,1,.027-1.139l3.368-2.729a.4.4,0,0,1,.532.037l4.294,3.969a1.474,1.474,0,0,1,.431.809Z" transform="translate(-189.32 -335.339)"/>
      <path id="路径_2983" data-name="路径 2983" class="cls-14" d="M204.772,427.149a.1.1,0,0,1,.112-.154c.245.08,2.432.756,2.66,1.426a.388.388,0,0,1-.059.372.6.6,0,0,1-.532.261,2.064,2.064,0,0,1-1.112-.638,9.289,9.289,0,0,1-1.069-1.266Zm.41.16c.729.926,1.389,1.479,1.793,1.479a.388.388,0,0,0,.351-.176.144.144,0,0,0,0-.144.57.57,0,0,0-.144-.192A7.046,7.046,0,0,0,205.182,427.308Z" transform="translate(-196.541 -339.418)"/>
      <path id="路径_2984" data-name="路径 2984" class="cls-14" d="M204.726,426.35a.112.112,0,0,1,.032-.112,3.042,3.042,0,0,1,1.82-.851.936.936,0,0,1,.633.319c.229.261.192.447.122.532-.3.474-1.894.415-2.527.186l-.043-.027a.175.175,0,0,1-.037-.048Zm1.846-.724a2.575,2.575,0,0,0-1.49.66c.7.165,1.862.117,2.043-.165,0,0,.059-.09-.09-.261l-.053-.053A.686.686,0,0,0,206.573,425.626Z" transform="translate(-196.527 -338.667)"/>
      <path id="路径_2985" data-name="路径 2985" class="cls-12" d="M212.38,415.261l6.975-.1-.968,17.532-5.017-.176Z" transform="translate(-200.11 -333.883)"/>
      <path id="路径_2986" data-name="路径 2986" class="cls-13" d="M219.582,445.375c1.421,1.117,2.128,2.293,6.108,3.16.889.2.915,2.277-1.187,2.261s-4.342-.2-5.853-.2c-2.474,0-3.416.112-5.374.112h0a.883.883,0,0,1-.867-.9l.341-4.437a.362.362,0,0,1,.378-.341l5.635.037A1.416,1.416,0,0,1,219.582,445.375Z" transform="translate(-200.124 -347.86)"/>
      <path id="路径_2988" data-name="路径 2988" class="cls-15" d="M217.527,244.23c-.607,9.875,13.7,39.393,15.292,49.736C227.892,304.353,215,317.594,215,317.594l6.108,6.046s21.389-17.3,22.5-29.359c.926-10.31-7.108-49.061-7.108-49.061Z" transform="translate(-201.336 -243.959)"/>
      <path id="路径_2989" data-name="路径 2989" class="cls-14" d="M214,393.24,222,400.827l-2.155,1.351L212.53,395.6Z" transform="translate(-200.181 -321.294)"/>
      <path id="路径_2990" data-name="路径 2990" class="cls-16" d="M0,3.476c3.352,8.7,7.651,18.171,9.662,24.639.367-7.036.085-19.57-5.773-26.373C1.155-1.464.074.132,0,3.476Z" transform="matrix(1, -0.017, 0.017, 1, 20.502, 16.876)"/>
      <path id="路径_2992" data-name="路径 2992" class="cls-15" d="M210.673,243.72c-4.155,10.388-.686,34.219-.463,51.034-1.245,12.674.42,31.89.42,31.89l7.5.28s2.261-22.681,3.8-36.833c1.309-11.915,5.98-45.419,5.98-45.419Z" transform="translate(-198.361 -243.72)"/>
      <path id="路径_2993" data-name="路径 2993" class="cls-14" d="M210.33,411.88l9.726.271-.6,2.7-8.6.245Z" transform="translate(-199.151 -330.518)"/>
      <path id="路径_2994" data-name="路径 2994" class="cls-14" d="M227.331,445.456c-.447.431-1.6.223-2.277.069a.144.144,0,0,1-.1-.1.117.117,0,0,1,.048-.117c.16-.112,1.6-1.064,2.219-.814a.426.426,0,0,1,.255.341.628.628,0,0,1-.106.532.154.154,0,0,1-.043.09Zm-1.947-.128c.883.181,1.538.154,1.777-.064a.42.42,0,0,0,.085-.42.165.165,0,0,0-.106-.154c-.314-.138-1.165.282-1.756.654Z" transform="translate(-205.995 -347.59)"/>
      <path id="路径_2995" data-name="路径 2995" class="cls-14" d="M225.131,444.412a.149.149,0,0,1-.117,0,.154.154,0,0,1-.069-.1c0-.064-.085-1.506.42-1.985a.564.564,0,0,1,.495-.154.452.452,0,0,1,.42.335,1.894,1.894,0,0,1-.559,1.351,2.538,2.538,0,0,1-.591.553Zm.043-.33c.458-.378.968-1.187.878-1.532a.186.186,0,0,0-.207-.144.335.335,0,0,0-.309.1l-.048.053A2.847,2.847,0,0,0,225.174,444.082Z" transform="translate(-205.988 -346.519)"/>
    </g>
    <path id="路径_2996" data-name="路径 2996" class="cls-17" d="M254,111.758v4.956H123.12v-4.956a4.508,4.508,0,0,1,4.5-4.508H249.5A4.508,4.508,0,0,1,254,111.758Z" transform="translate(-4731.431 -5414.45)"/>
    <path id="路径_2997" data-name="路径 2997" class="cls-17" d="M254.018,256.05v1.913a4.5,4.5,0,0,1-4.5,4.474H127.662a4.5,4.5,0,0,1-4.5-4.475V256.05Z" transform="translate(-4731.449 -5477.761)"/>
    <g id="组_3983" data-name="组 3983" transform="translate(-4524.352 -5292.376)">
      <rect id="矩形_2426" data-name="矩形 2426" class="cls-17" width="43.941" height="21.722" rx="2"/>
      <rect id="矩形_2430" data-name="矩形 2430" class="cls-18" width="37.32" height="1.977" transform="translate(3.194 4.535)"/>
      <rect id="矩形_2431" data-name="矩形 2431" class="cls-18" width="37.32" height="1.977" transform="translate(3.194 9.247)"/>
      <rect id="矩形_2432" data-name="矩形 2432" class="cls-18" width="37.32" height="1.977" transform="translate(3.194 13.964)"/>
    </g>
    <path id="路径_2998" data-name="路径 2998" class="cls-17" d="M63,71.705H73.8V60.9H63Zm2.7-8.1h5.4V69H65.7Zm9.455-2.7V71.705H85.958V60.9Zm8.1,8.1h-5.4V63.6h5.4ZM67.049,67.653h2.7v-2.7h-2.7ZM63,83.862H73.8V73.056H63Zm2.7-8.1h5.4v5.4H65.7ZM81.906,64.952H79.2v2.7h2.7v-2.7Zm-6.753,18.91h2.7v-2.7h-2.7Zm2.7-8.1v5.4h2.7v-5.4Zm5.4,5.4h-2.7v2.7h5.4v-5.4h-2.7Zm0-5.4h2.7v-2.7h-2.7Zm-8.1-2.7v2.7h2.7v-2.7Zm-8.1,6.753h2.7v-2.7h-2.7Z" transform="translate(-4579.213 -5317.833)"/>
  </g>
</svg>
