<svg xmlns="http://www.w3.org/2000/svg" xmlns:xlink="http://www.w3.org/1999/xlink" width="244.185" height="197.536" viewBox="0 0 244.185 197.536">
  <defs>
    <style>
      .cls-1 {
        opacity: 0.4;
      }

      .cls-2 {
        fill: #e6e6e6;
      }

      .cls-3 {
        fill: #c7c7c7;
      }

      .cls-4 {
        fill: #cbcbcb;
      }

      .cls-5 {
        fill: #d8d8d8;
      }

      .cls-6 {
        fill: #c4c4c4;
      }

      .cls-13, .cls-7 {
        fill: #2a94f4;
      }

      .cls-8 {
        fill: #f2f2f2;
      }

      .cls-9 {
        fill: #fff;
      }

      .cls-10 {
        fill: url(#linear-gradient);
      }

      .cls-11 {
        fill: url(#linear-gradient-2);
      }

      .cls-12 {
        fill: #7bbaff;
      }

      .cls-13 {
        opacity: 0.1;
      }

      .cls-14 {
        fill: #ffbe55;
      }

      .cls-15 {
        fill: #ffe3ca;
      }

      .cls-16 {
        fill: #0b4870;
      }

      .cls-17 {
        fill: #fcd2b1;
      }

      .cls-18 {
        filter: url(#矩形_2353);
      }
    </style>
    <filter id="矩形_2353" x="54.5" y="46.82" width="158" height="106" filterUnits="userSpaceOnUse">
      <feOffset dy="3" input="SourceAlpha"/>
      <feGaussianBlur stdDeviation="5" result="blur"/>
      <feFlood flood-opacity="0.059"/>
      <feComposite operator="in" in2="blur"/>
      <feComposite in="SourceGraphic"/>
    </filter>
    <linearGradient id="linear-gradient" x1="0.5" x2="0.5" y2="1" gradientUnits="objectBoundingBox">
      <stop offset="0" stop-color="#c2e9fb"/>
      <stop offset="1" stop-color="#a1c4fd"/>
    </linearGradient>
    <linearGradient id="linear-gradient-2" x1="0.862" y1="0.5" x2="0" y2="0.5" gradientUnits="objectBoundingBox">
      <stop offset="0" stop-color="#c2e9fb" stop-opacity="0.349"/>
      <stop offset="1" stop-color="#a1c4fd"/>
    </linearGradient>
  </defs>
  <g id="组_4001" data-name="组 4001" transform="translate(-79.212 -188.397)">
    <g id="组_3995" data-name="组 3995" transform="translate(79.212 299.265)">
      <g id="组_3990" data-name="组 3990" transform="translate(0 41.935)">
        <g id="组_3989" data-name="组 3989" class="cls-1">
          <path id="路径_3000" data-name="路径 3000" class="cls-2" d="M116.683,569.676a6.571,6.571,0,0,1,4,3.636,24.278,24.278,0,0,1,1.722,5.654,6.935,6.935,0,0,0,1.423,3.435,4.424,4.424,0,0,0,4.071.859c1.47-.29,2.9-.941,4.357-1.313a9.864,9.864,0,0,1,11.419,4.977,14.228,14.228,0,0,1-8.8,18.169,9.856,9.856,0,0,1-10.988-5.872c-.614-1.376-.989-2.9-1.672-4.235a4.415,4.415,0,0,0-3.2-2.654,6.888,6.888,0,0,0-3.576,1.011,24.226,24.226,0,0,1-5.506,2.16,6.553,6.553,0,0,1-5.333-.888A10.281,10.281,0,0,1,102.034,591q-1.643-3.188-3.287-6.385a6.246,6.246,0,0,0-1.675-2.317c-2.005-1.461-4.889.066-7.436.573a8.739,8.739,0,0,1-9.946-6.02,13.718,13.718,0,0,1,7.6-15.694,8.746,8.746,0,0,1,10.89,4.074c1.187,2.311,1.776,5.519,4.162,6.189a6.271,6.271,0,0,0,2.859-.126q3.523-.694,7.046-1.382A10.218,10.218,0,0,1,116.683,569.676Z" transform="translate(-79.212 -560.577)"/>
        </g>
        <path id="路径_3001" data-name="路径 3001" class="cls-3" d="M138.9,602.964c-.116-.2-.469-.126-.353.079a51.648,51.648,0,0,1,4.137,9.256.256.256,0,0,0,.227.161c-.013,0-.025.009-.041.013l-8.3-4.042a.012.012,0,0,0-.009,0q-1.917-3.882-3.838-7.76c-.1-.208-.456-.129-.353.079q1.837,3.716,3.674,7.43l-9.694-4.722-2.116-5.431c-.082-.214-.434-.132-.353.079q1,2.56,2,5.122l-1.9-.926q-6.111-2.975-12.219-5.953c-.233-.113-.372.173-.139.286l14.517,7.074a32.166,32.166,0,0,1-6.275,1.476c-.236.032-.076.356.157.324a31.883,31.883,0,0,0,6.46-1.536.135.135,0,0,0,.076-.06l9.451,4.606q-4.217,1.086-8.434,2.169c-.224.057-.066.384.157.324l8.768-2.257,7.915,3.857-8.179,2.446c-.217.066-.063.39.157.324l8.494-2.541q4.746,2.314,9.5,4.625l1.744.85q-4.071.921-8.145,1.845c-.227.05-.069.378.157.324l8.491-1.924q4.987,2.427,9.971,4.858c.233.113.372-.173.139-.286q-4.784-2.328-9.565-4.66a.194.194,0,0,0-.016-.079q-2.054-4.26-4.112-8.522c-.1-.211-.453-.132-.353.079q1.988,4.118,3.973,8.239h0l-.047.01-11.331-5.522a.2.2,0,0,0-.239-.264l-.009,0a.113.113,0,0,0,.016-.113A51.649,51.649,0,0,0,138.9,602.964Z" transform="translate(-99.97 -585.065)"/>
      </g>
      <g id="组_3992" data-name="组 3992" transform="translate(12.709 19.526)">
        <g id="组_3991" data-name="组 3991">
          <path id="路径_3002" data-name="路径 3002" class="cls-2" d="M177.131,531.021c.633,4.4-1.672,7.764-4.452,10.163l-3.617,3.466c-2.515,2.679-5.975,4.836-10.342,4.017a16.144,16.144,0,0,1-8.759-5.5,19.481,19.481,0,0,1-4.389-9.3,7.174,7.174,0,0,0-1.08-3.378,5.991,5.991,0,0,0-1.93-1.558c-2.386-1.319-5.176-1.911-6.989-4.08a8.019,8.019,0,0,1-1.621-5.7c.113-1.823.548-3.554.246-5.491a6.16,6.16,0,0,0-.907-2.462c-2.235-3.422-7.254-3.246-9.983-6.369a7.9,7.9,0,0,1-1.788-4.984c-.054-1.647.22-3.186.072-4.855a12.966,12.966,0,0,0-2.012-5.6,13.079,13.079,0,0,0,5.513,2.245c1.659.217,3.211.009,4.852.135a7.894,7.894,0,0,1,4.905,2c3,2.859,2.613,7.868,5.935,10.248a6.248,6.248,0,0,0,2.421,1.011c1.924.384,3.671.022,5.5-.016a8,8,0,0,1,5.62,1.864c2.094,1.9,2.566,4.716,3.781,7.153a5.945,5.945,0,0,0,1.473,1.993,7.172,7.172,0,0,0,3.331,1.221,19.49,19.49,0,0,1,9.1,4.782A16.162,16.162,0,0,1,177.131,531.021Z" transform="translate(-119.58 -489.4)"/>
        </g>
        <path id="路径_3003" data-name="路径 3003" class="cls-4" d="M173.267,527.845a131.9,131.9,0,0,0-3.246,15.924l-7.6-8.463a.158.158,0,0,0,.016-.041l1.87-12.426c.038-.252-.346-.365-.384-.11q-.921,6.1-1.839,12.2l-6.164-6.863a.2.2,0,0,0,.17-.179q.614-5.672,1.007-11.365c.019-.258-.381-.265-.4-.009q-.392,5.662-1,11.306l-6.64-7.4c0-.01,0-.013,0-.022q-.175-3.749-.353-7.5c-.013-.255-.412-.268-.4-.009l.331,7.062-5.7-6.341a.25.25,0,0,0,.019-.069q.184-2.881.365-5.765c.016-.258-.384-.264-.4-.01q-.175,2.72-.346,5.443c-.372-.416-.743-.828-1.118-1.243l-1.993-2.22a.186.186,0,0,0,.072-.2l-1.88-9.2c-.05-.252-.441-.157-.39.094q.907,4.439,1.813,8.875-4.425-4.926-8.847-9.851c-.173-.192-.46.085-.29.277q4.307,4.8,8.614,9.593-3.627-.623-7.254-1.244c-.252-.044-.365.34-.11.384q3.872.666,7.745,1.329a.153.153,0,0,0,.038,0l3.079,3.428q-2.215,0-4.433.013a.2.2,0,0,0-.009.4q2.4,0,4.8-.013l5.7,6.353a29.581,29.581,0,0,1-5.72-1.395c-.242-.085-.353.3-.11.384a30.428,30.428,0,0,0,6.249,1.473L155.4,528.1q-5.785.1-11.573.2c-.258,0-.268.406-.009.4q5.955-.1,11.91-.2c.009,0,.013,0,.022,0l6.108,6.8q-4.67.562-9.344,1.121c-.255.031-.161.419.094.39q4.789-.571,9.574-1.146l7.052,7.852c.1.117.211.233.315.349q-7.386-.217-14.775-.438a.2.2,0,0,0-.009.4l15.153.447q5.27,5.87,10.541,11.737c.173.192.46-.085.29-.277q-5.214-5.809-10.43-11.614a.2.2,0,0,0,.069-.129,131.444,131.444,0,0,1,3.258-16.022A.2.2,0,1,0,173.267,527.845Z" transform="translate(-126.647 -496.261)"/>
      </g>
      <g id="组_3994" data-name="组 3994" transform="translate(38.518 0)">
        <g id="组_3993" data-name="组 3993">
          <path id="路径_3004" data-name="路径 3004" class="cls-5" d="M233.388,493.362c-1.823,4.052-5.572,5.657-9.206,6.193l-4.911.985c-3.558.913-7.638.878-10.884-2.153a16.162,16.162,0,0,1-4.449-9.335,19.51,19.51,0,0,1,1.278-10.2,7.186,7.186,0,0,0,.9-3.432,5.978,5.978,0,0,0-.793-2.349c-1.307-2.393-3.347-4.389-3.712-7.191A8.007,8.007,0,0,1,203.3,460.2c1.074-1.48,2.368-2.708,3.151-4.5a6.225,6.225,0,0,0,.554-2.563c-.054-4.086-4.386-6.627-5.015-10.726a7.891,7.891,0,0,1,1.162-5.166c.834-1.417,1.9-2.572,2.663-4.058a13.029,13.029,0,0,0,1.307-5.805,13.067,13.067,0,0,0,3.451,4.852c1.285,1.074,2.708,1.728,4.024,2.714a7.9,7.9,0,0,1,3.07,4.316c1,4.024-2.012,8.041-.485,11.831a6.238,6.238,0,0,0,1.5,2.15c1.417,1.354,3.089,1.987,4.65,2.937a8,8,0,0,1,3.743,4.587c.749,2.726-.362,5.355-.642,8.066a5.937,5.937,0,0,0,.176,2.475,7.2,7.2,0,0,0,2.157,2.818,19.517,19.517,0,0,1,5.119,8.916A16.154,16.154,0,0,1,233.388,493.362Z" transform="translate(-201.559 -427.38)"/>
        </g>
        <path id="路径_3005" data-name="路径 3005" class="cls-6" d="M235.154,488.783a131.919,131.919,0,0,0-11.277,11.7L222,489.265a.152.152,0,0,0,.035-.028l8.239-9.486c.167-.192-.1-.494-.268-.3q-4.047,4.656-8.094,9.316-.76-4.548-1.524-9.1a.206.206,0,0,0,.242-.06q3.561-4.458,6.945-9.055c.154-.208-.179-.428-.334-.22q-3.367,4.571-6.907,9.007l-1.643-9.8c0-.006.009-.009.016-.016L222.425,463c.126-.224-.2-.447-.334-.22q-1.752,3.07-3.507,6.139l-1.407-8.406a.251.251,0,0,0,.054-.047q1.7-2.338,3.4-4.672c.151-.208-.183-.431-.334-.22l-3.208,4.408c-.091-.548-.183-1.1-.277-1.647-.164-.982-.327-1.961-.494-2.944a.186.186,0,0,0,.167-.126q1.672-4.387,3.347-8.774c.091-.242-.286-.371-.378-.129q-1.615,4.231-3.227,8.463-1.1-6.531-2.188-13.059c-.044-.255-.434-.176-.394.079q1.067,6.357,2.131,12.716l-5.456-4.94c-.189-.17-.491.094-.3.268q2.914,2.635,5.824,5.273a.159.159,0,0,0,.031.019l.762,4.543q-1.875-1.186-3.75-2.368c-.217-.138-.441.2-.22.334q2.031,1.28,4.058,2.563l1.41,8.422a29.919,29.919,0,0,1-4.083-4.244c-.161-.2-.456.063-.3.268a30.2,30.2,0,0,0,4.486,4.593l1.7,10.122q-4.94-3.018-9.876-6.035c-.22-.135-.441.2-.22.334q5.081,3.107,10.166,6.212a.187.187,0,0,0,.022.006l1.511,9.017q-4.246-2.031-8.488-4.065c-.233-.11-.359.268-.129.378l8.7,4.165,1.744,10.408c.025.154.05.309.079.463q-6.12-4.146-12.237-8.289a.2.2,0,0,0-.22.334l12.552,8.5q1.3,7.778,2.607,15.559c.044.255.434.176.394-.079l-2.578-15.4a.211.211,0,0,0,.129-.069,131.342,131.342,0,0,1,11.34-11.778C235.61,488.906,235.346,488.607,235.154,488.783Z" transform="translate(-207.171 -437.132)"/>
      </g>
    </g>
    <g id="XMLID_2399_" transform="translate(137.669 263.759)">
      <g id="XMLID_2400_" transform="translate(0 0)">
        <g id="XMLID_2401_">
          <g id="XMLID_2404_" class="cls-1">
            <g id="组_3996" data-name="组 3996">
              <path id="路径_3006" data-name="路径 3006" class="cls-7" d="M339.041,376.742v-1.979a5.893,5.893,0,0,0-5.967-5.813H270.857a5.893,5.893,0,0,0-5.967,5.813V479.6h148.3V382.555a5.893,5.893,0,0,0-5.967-5.813Z" transform="translate(-264.89 -368.95)"/>
            </g>
          </g>
          <g id="XMLID_2403_" transform="translate(6.584 16.168)">
            <rect id="矩形_2433" data-name="矩形 2433" class="cls-8" width="136.52" height="95.544"/>
          </g>
          <g id="组_4002" data-name="组 4002" transform="translate(-29.957 -203.04)">
            <g class="cls-18" transform="matrix(1, 0, 0, 1, -28.5, 127.68)">
              <rect id="矩形_2353-2" data-name="矩形 2353" class="cls-9" width="128" height="76" rx="8" transform="translate(69.5 58.82)"/>
            </g>
            <g id="组_3937" data-name="组 3937" transform="translate(52.283 195.503)">
              <ellipse id="椭圆_60" data-name="椭圆 60" class="cls-10" cx="10.5" cy="10" rx="10.5" ry="10" transform="translate(-0.283 -0.005)"/>
            </g>
            <rect id="矩形_2357" data-name="矩形 2357" class="cls-11" width="46" height="7" rx="3.5" transform="translate(78 201.498)"/>
            <rect id="矩形_2358" data-name="矩形 2358" class="cls-11" width="72" height="5" rx="2.5" transform="translate(52 225.498)"/>
            <rect id="矩形_2359" data-name="矩形 2359" class="cls-11" width="72" height="4" rx="2" transform="translate(52 235.498)"/>
            <rect id="矩形_2360" data-name="矩形 2360" class="cls-11" width="72" height="5" rx="2.5" transform="translate(52 245.498)"/>
            <path id="路径_2699" data-name="路径 2699" class="cls-9" d="M100.335,46.891h-2.7c-2.54,0-4.546,0-4.546-1.291v-.266a4.516,4.516,0,0,1,4.546-4.476h2.7a4.517,4.517,0,0,1,4.546,4.476V45.6C104.881,46.891,102.774,46.891,100.335,46.891Zm-1.484-6.374a3.548,3.548,0,1,1,3.6-3.548A3.579,3.579,0,0,1,98.851,40.516Z" transform="translate(-36.55 164.953)"/>
            <path id="路径_2700" data-name="路径 2700" class="cls-12" d="M63,71.983H74.08V60.9H63Zm2.771-8.312h5.542v5.542H65.768Zm9.7-2.771V71.983H86.549V60.9Zm8.312,8.312H78.236V63.671h5.542ZM67.153,67.827h2.771V65.056H67.153ZM63,84.452H74.08V73.369H63Zm2.771-8.312h5.542v5.542H65.768ZM82.392,65.056H79.622v2.771h2.771V65.056Zm-6.927,19.4h2.771V81.681H75.465Zm2.771-8.312v5.542h2.771V76.139Zm5.542,5.542H81.007v2.771h5.542V78.91H83.778Zm0-5.542h2.771V73.369H83.778Zm-8.312-2.771v2.771h2.771V73.369ZM67.153,80.3h2.771V77.525H67.153Z" transform="translate(71.993 153.324)"/>
          </g>
          <g id="XMLID_2402_" transform="translate(0 24.275)">
            <g id="组_3997" data-name="组 3997">
              <path id="路径_3007" data-name="路径 3007" class="cls-7" d="M336.926,438.9l-2.2,5.949H270.857a5.893,5.893,0,0,0-5.967,5.813v74.019a5.893,5.893,0,0,0,5.967,5.813H407.222a5.893,5.893,0,0,0,5.967-5.813V440.873a5.893,5.893,0,0,0-5.967-5.813H342.541A5.959,5.959,0,0,0,336.926,438.9Z" transform="translate(-264.89 -435.06)"/>
            </g>
          </g>
        </g>
      </g>
    </g>
    <path id="路径_3012" data-name="路径 3012" class="cls-13" d="M286.328,270.436h57.614s2.855-5.878-10.43-5.248c0,0,6.785-13.434-4.615-12.8,0,0-.485-12.593-15.178-11.964s-10.556,14.063-10.556,14.063-15.468-.63-9.382,11.334C293.78,265.818,275.309,268.336,286.328,270.436Z" transform="translate(-41.507 -52)"/>
    <g id="组_4000" data-name="组 4000" transform="translate(268.512 240.414)">
      <path id="路径_3020" data-name="路径 3020" class="cls-14" d="M689.31,370.632c.008-.011.015-.019.022-.03a51.344,51.344,0,0,0,2.687-4.406,48.745,48.745,0,0,0,2.237-4.518l.03-.071c.048-.112.1-.223.156-.331a4.221,4.221,0,1,1,7.469,3.934,53.7,53.7,0,0,1-3.13,5.184c-.763,1.1-1.574,2.166-2.408,3.215C695.752,372.943,690.8,371.168,689.31,370.632Z" transform="translate(-663.97 -340.991)"/>
      <path id="路径_3021" data-name="路径 3021" class="cls-15" d="M697.435,399.95c3.673,4.213,24.871,5.973,24.871,5.973,1.563-1.816-.722-10.07-1.273-18.448-.6-9.058-.942-19.058-1.1-24.458a4.116,4.116,0,0,0-4.12-4H702.362a3.978,3.978,0,0,0-3.971,3.647c-.354,4.276-.968,11.712-1.574,19C696.2,389.064,694.26,396.31,697.435,399.95Z" transform="translate(-667.96 -340.991)"/>
      <path id="路径_3022" data-name="路径 3022" class="cls-15" d="M711.42,649.218l-.03,8.336.726,4.06a1.166,1.166,0,0,1-1.109,1.377c-3.413.1-12.154.335-12.389-.045-1.1-1.779,3.87-2.46,7.5-3.871s1.128-15.206,1.128-15.206Z" transform="translate(-669.717 -519.832)"/>
      <path id="路径_3023" data-name="路径 3023" class="cls-14" d="M706.121,684.69c.019-.007.037-.022.056-.03a8.328,8.328,0,0,0,2.94.514,8.674,8.674,0,0,0,2.568-.376l.432,2.43a1.166,1.166,0,0,1-1.109,1.377c-3.413.1-12.154.335-12.389-.045C697.52,686.781,702.485,686.1,706.121,684.69Z" transform="translate(-669.716 -545.442)"/>
      <path id="路径_3024" data-name="路径 3024" class="cls-16" d="M713.29,494.8c.447,3.189.517,23.628-.2,34.011H709c-2.2-10.071-4.555-29.594-4.991-32.713-.007-.041-.007-.078-.015-.119-2.449-10.837-3.666-31.935-3.569-36.211.13-5.794,3.889-10.409,8.392-10.309s8.046,4.883,7.916,10.677C716.643,463.778,713.081,493.286,713.29,494.8Z" transform="translate(-670.942 -397.77)"/>
      <path id="路径_3025" data-name="路径 3025" class="cls-15" d="M737.85,649.218l-.03,8.336.726,4.06a1.166,1.166,0,0,1-1.109,1.377c-3.413.1-12.155.335-12.389-.045-1.1-1.779,3.87-2.46,7.5-3.871s1.128-15.206,1.128-15.206Z" transform="translate(-686.311 -519.832)"/>
      <path id="路径_3026" data-name="路径 3026" class="cls-14" d="M732.551,684.69c.019-.007.037-.022.056-.03a8.328,8.328,0,0,0,2.94.514,8.671,8.671,0,0,0,2.568-.376l.432,2.43a1.166,1.166,0,0,1-1.109,1.377c-3.413.1-12.155.335-12.389-.045C723.95,686.781,728.919,686.1,732.551,684.69Z" transform="translate(-686.311 -545.442)"/>
      <path id="路径_3027" data-name="路径 3027" class="cls-16" d="M738.095,494.8c.447,3.189.517,23.628-.2,34.011h-4.1c-2.2-10.071-4.555-29.594-4.991-32.712l-.011-.119c-2.449-10.837-4.637-32.072-4.54-36.345.13-5.794,4.86-10.275,9.363-10.175s7.071,4.749,6.941,10.543C740.473,463.644,737.883,493.286,738.095,494.8Z" transform="translate(-685.908 -397.77)"/>
      <path id="路径_3028" data-name="路径 3028" class="cls-14" d="M702.236,359.02h2.185a5.361,5.361,0,0,0,9.743,0h1.995a3.757,3.757,0,0,1,3.766,3.651c.153,5.311.5,15.549,1.109,24.8.551,8.377,2.84,16.163,1.273,18.448,0,0-21.2-1.76-24.871-5.973-3.175-3.643-1.232-10.886-.614-18.28.61-7.357,1.232-14.868,1.582-19.125A3.841,3.841,0,0,1,702.236,359.02Z" transform="translate(-667.96 -340.991)"/>
      <path id="路径_3029" data-name="路径 3029" class="cls-16" d="M733.83,331.329l.253.056a3.562,3.562,0,0,0,4.25-2.706l1.143-5.139-3.729-.83Z" transform="translate(-691.921 -318.194)"/>
      <g id="组_3998" data-name="组 3998" transform="translate(38.578 11.018)">
        <path id="路径_3030" data-name="路径 3030" class="cls-15" d="M724.88,347.191h7.034l-2.028-7.011-4.793.592Z" transform="translate(-724.88 -340.18)"/>
      </g>
      <path id="路径_3031" data-name="路径 3031" class="cls-17" d="M725.142,340.772l4.793-.592.945,3.267c-1.072,1.21-2.665,3.089-4.41,3.089a2.783,2.783,0,0,1-1.511-.443Z" transform="translate(-686.352 -329.162)"/>
      <path id="路径_3032" data-name="路径 3032" class="cls-15" d="M719.217,329.859h0a5.853,5.853,0,0,0,6.989-4.447l1.418-6.371-9.806-2.181a51.11,51.11,0,0,0-1.139,8.489C716.653,327.987,717.606,329.5,719.217,329.859Z" transform="translate(-681.153 -314.521)"/>
      <path id="路径_3033" data-name="路径 3033" class="cls-15" d="M738.376,332.274c-.275,1.243.093,2.382.83,2.546s1.905-1.288,2.181-2.531a1.492,1.492,0,0,0-1.18-1.972C739.474,330.153,738.655,331.031,738.376,332.274Z" transform="translate(-694.718 -322.957)"/>
      <path id="路径_3034" data-name="路径 3034" class="cls-16" d="M716.322,315.381a5.683,5.683,0,0,1,.4-2.475h0a3.867,3.867,0,0,1,4.95-2.091,5.956,5.956,0,0,0,.644.182l3.312.733a3.688,3.688,0,0,1,2.8,4.4l-.171.77-1.961,1.139-.8,1.392-.13-.03a1.222,1.222,0,0,1-.942-1.377,1.922,1.922,0,0,0-1.381-2.285l-2.936-.655c-1.79-.4-2.932.357-3.23,1.693l-.16,1.154Z" transform="translate(-680.922 -310.575)"/>
      <path id="路径_3035" data-name="路径 3035" class="cls-16" d="M723.427,313.384c.223,1.816-6.308,4.12-8.027,4.332a3.321,3.321,0,0,1-.811-6.583C716.311,310.917,723.2,311.568,723.427,313.384Z" transform="translate(-678.121 -310.9)"/>
      <path id="路径_3036" data-name="路径 3036" class="cls-15" d="M685.615,364.719a53.11,53.11,0,0,1-6.412,13.014c-9.594,13.829-23.014,19.549-37.908,12.839a1.21,1.21,0,0,1,.722-2.293l.063.011c8.779,1.682,15.924,1.142,22.966-5.184,9.189-8.407,12.966-22.274,12.53-20.923a4.214,4.214,0,0,1,8.039,2.534Z" transform="translate(-633.375 -341.145)"/>
      <g id="组_3999" data-name="组 3999" transform="translate(40.531 18.032)">
        <path id="路径_3037" data-name="路径 3037" class="cls-14" d="M730.136,370.512a59.555,59.555,0,0,0,3.6-9.241s.953-2.467,4.753-2.229c3.037.19,3.588,3.509,3.588,3.509.085.458.994,5.932-3.513,12.616C738.562,375.164,729.828,371.071,730.136,370.512Z" transform="translate(-730.128 -359.026)"/>
      </g>
      <path id="路径_3038" data-name="路径 3038" class="cls-15" d="M630.851,430.98c-1.236-.718-2.713-4.231-3.208-4.06-.354.123.011,1.384.246,2.084a.223.223,0,0,1-.06.231.225.225,0,0,1-.234.045c-1.3-.532-4.957-1.987-5.169-1.656s1.913,1.634,2.631,2.058a.053.053,0,0,1,.022.063.053.053,0,0,1-.056.033c-.923-.127-3.926-.491-3.8.067.119.532,2.847,1.18,3.9,1.411a.052.052,0,0,1,.041.056.053.053,0,0,1-.052.048c-1.076.048-3.833.223-3.733.7s2.9.681,3.893.733a.049.049,0,0,1,.049.048.052.052,0,0,1-.041.056c-.886.231-3.16.86-2.7,1.083a29.723,29.723,0,0,0,7.733-.249C631.528,433.321,630.851,430.98,630.851,430.98Z" transform="translate(-621.219 -383.618)"/>
      <path id="路径_3039" data-name="路径 3039" class="cls-15" d="M676.138,390.22s-.361,5.046-7.808,4.529v3.941s7.313,2.683,11.782-2.936l.5-3.848Z" transform="translate(-650.798 -360.58)"/>
    </g>
  </g>
</svg>
