<svg xmlns="http://www.w3.org/2000/svg" width="345.122" height="599.125" viewBox="0 0 345.122 599.125">
  <g id="组_4692" data-name="组 4692" transform="translate(358.026 612)">
    <rect id="矩形_2855" data-name="矩形 2855" width="345" height="599" transform="translate(-358 -612)" fill="#f5f5f5"/>
    <g id="组_4686" data-name="组 4686" opacity="0.47">
      <path id="路径_4427" data-name="路径 4427" d="M-13-220S-137.2-72-358-26" fill="none" stroke="#bebebe" stroke-miterlimit="10" stroke-width="0.25"/>
      <path id="路径_4428" data-name="路径 4428" d="M-13-213.323S-144.323-70.1-358-25.581" fill="none" stroke="#bebebe" stroke-miterlimit="10" stroke-width="0.25"/>
      <path id="路径_4429" data-name="路径 4429" d="M-13-206.645S-151.445-68.194-358-25.161" fill="none" stroke="#bebebe" stroke-miterlimit="10" stroke-width="0.25"/>
      <path id="路径_4430" data-name="路径 4430" d="M-13-199.968S-158.568-66.29-358-24.742" fill="none" stroke="#bebebe" stroke-miterlimit="10" stroke-width="0.25"/>
      <path id="路径_4431" data-name="路径 4431" d="M-13-193.29S-165.69-64.387-358-24.323" fill="none" stroke="#bebebe" stroke-miterlimit="10" stroke-width="0.25"/>
      <path id="路径_4432" data-name="路径 4432" d="M-13-186.613S-172.813-62.484-358-23.9" fill="none" stroke="#bebebe" stroke-miterlimit="10" stroke-width="0.25"/>
      <path id="路径_4433" data-name="路径 4433" d="M-13-179.935S-179.935-60.581-358-23.484" fill="none" stroke="#bebebe" stroke-miterlimit="10" stroke-width="0.25"/>
      <path id="路径_4434" data-name="路径 4434" d="M-13-173.258S-187.058-58.677-358-23.065" fill="none" stroke="#bebebe" stroke-miterlimit="10" stroke-width="0.25"/>
      <path id="路径_4435" data-name="路径 4435" d="M-13-166.581S-194.181-56.774-358-22.645" fill="none" stroke="#bebebe" stroke-miterlimit="10" stroke-width="0.25"/>
      <path id="路径_4436" data-name="路径 4436" d="M-13-159.9S-201.3-54.871-358-22.226" fill="none" stroke="#bebebe" stroke-miterlimit="10" stroke-width="0.25"/>
      <path id="路径_4437" data-name="路径 4437" d="M-13-153.226S-208.426-52.968-358-21.806" fill="none" stroke="#bebebe" stroke-miterlimit="10" stroke-width="0.25"/>
      <path id="路径_4438" data-name="路径 4438" d="M-13-146.548S-215.548-51.065-358-21.387" fill="none" stroke="#bebebe" stroke-miterlimit="10" stroke-width="0.25"/>
      <path id="路径_4439" data-name="路径 4439" d="M-13-139.871s-209.671,90.71-345,118.9" fill="none" stroke="#bebebe" stroke-miterlimit="10" stroke-width="0.25"/>
      <path id="路径_4440" data-name="路径 4440" d="M-13-133.194S-229.794-47.258-358-20.548" fill="none" stroke="#bebebe" stroke-miterlimit="10" stroke-width="0.25"/>
      <path id="路径_4441" data-name="路径 4441" d="M-13-126.516S-236.916-45.355-358-20.129" fill="none" stroke="#bebebe" stroke-miterlimit="10" stroke-width="0.25"/>
      <path id="路径_4442" data-name="路径 4442" d="M-13-119.839S-244.039-43.452-358-19.71" fill="none" stroke="#bebebe" stroke-miterlimit="10" stroke-width="0.25"/>
      <path id="路径_4443" data-name="路径 4443" d="M-13-113.161S-251.161-41.548-358-19.29" fill="none" stroke="#bebebe" stroke-miterlimit="10" stroke-width="0.25"/>
      <path id="路径_4444" data-name="路径 4444" d="M-13-106.484S-258.284-39.645-358-18.871" fill="none" stroke="#bebebe" stroke-miterlimit="10" stroke-width="0.25"/>
      <path id="路径_4445" data-name="路径 4445" d="M-13-99.806S-265.406-37.742-358-18.452" fill="none" stroke="#bebebe" stroke-miterlimit="10" stroke-width="0.25"/>
      <path id="路径_4446" data-name="路径 4446" d="M-13-93.129s-259.529,57.29-345,75.1" fill="none" stroke="#bebebe" stroke-miterlimit="10" stroke-width="0.25"/>
      <path id="路径_4447" data-name="路径 4447" d="M-13-86.452S-279.652-33.935-358-17.613" fill="none" stroke="#bebebe" stroke-miterlimit="10" stroke-width="0.25"/>
      <path id="路径_4448" data-name="路径 4448" d="M-13-79.774s-273.774,47.742-345,62.58" fill="none" stroke="#bebebe" stroke-miterlimit="10" stroke-width="0.25"/>
      <path id="路径_4449" data-name="路径 4449" d="M-13-73.1S-293.9-30.129-358-16.774" fill="none" stroke="#bebebe" stroke-miterlimit="10" stroke-width="0.25"/>
      <path id="路径_4450" data-name="路径 4450" d="M-13-66.419S-301.019-28.226-358-16.355" fill="none" stroke="#bebebe" stroke-miterlimit="10" stroke-width="0.25"/>
      <path id="路径_4451" data-name="路径 4451" d="M-13-59.742S-308.142-26.323-358-15.935" fill="none" stroke="#bebebe" stroke-miterlimit="10" stroke-width="0.25"/>
      <path id="路径_4452" data-name="路径 4452" d="M-13-53.065S-315.265-24.419-358-15.516" fill="none" stroke="#bebebe" stroke-miterlimit="10" stroke-width="0.25"/>
      <path id="路径_4453" data-name="路径 4453" d="M-13-46.387S-322.387-22.516-358-15.1" fill="none" stroke="#bebebe" stroke-miterlimit="10" stroke-width="0.25"/>
      <path id="路径_4454" data-name="路径 4454" d="M-13-39.71s-316.51,19.1-345,25.033" fill="none" stroke="#bebebe" stroke-miterlimit="10" stroke-width="0.25"/>
      <path id="路径_4455" data-name="路径 4455" d="M-13-33.032S-336.632-18.71-358-14.258" fill="none" stroke="#bebebe" stroke-miterlimit="10" stroke-width="0.25"/>
      <path id="路径_4456" data-name="路径 4456" d="M-13-26.355s-330.755,9.549-345,12.516" fill="none" stroke="#bebebe" stroke-miterlimit="10" stroke-width="0.25"/>
      <path id="路径_4457" data-name="路径 4457" d="M-13-19.677S-350.877-14.9-358-13.419" fill="none" stroke="#bebebe" stroke-miterlimit="10" stroke-width="0.25"/>
      <line id="直线_118" data-name="直线 118" x1="345" transform="translate(-358 -13)" fill="none" stroke="#bebebe" stroke-miterlimit="10" stroke-width="0.25"/>
    </g>
  </g>
</svg>
