<svg xmlns="http://www.w3.org/2000/svg" xmlns:xlink="http://www.w3.org/1999/xlink" width="52.001" height="65.999" viewBox="0 0 52.001 65.999">
  <defs>
    <style>
      .cls-1 {
        fill: #fff;
      }

      .cls-2 {
        fill: #303133;
      }

      .cls-3 {
        fill: none;
      }

      .cls-4 {
        fill: url(#linear-gradient);
      }

      .cls-5, .cls-6 {
        stroke: none;
      }

      .cls-6 {
        fill: #e8e8e8;
      }

      .cls-7 {
        filter: url(#联合_30);
      }
    </style>
    <filter id="联合_30" x="0" y="0" width="52.001" height="65.999" filterUnits="userSpaceOnUse">
      <feOffset dy="2" input="SourceAlpha"/>
      <feGaussianBlur stdDeviation="2" result="blur"/>
      <feFlood flood-color="#7d7d7d" flood-opacity="0.102"/>
      <feComposite operator="in" in2="blur"/>
      <feComposite in="SourceGraphic"/>
    </filter>
    <linearGradient id="linear-gradient" x1="0.5" x2="0.5" y2="1" gradientUnits="objectBoundingBox">
      <stop offset="0" stop-color="#8ff379"/>
      <stop offset="1" stop-color="#1cbdb4"/>
    </linearGradient>
  </defs>
  <g id="组_2188" data-name="组 2188" transform="translate(4.001 -362.001)">
    <g class="cls-7" transform="matrix(1, 0, 0, 1, -4, 362)">
      <g id="联合_30-2" data-name="联合 30" class="cls-1" transform="translate(3 4)">
        <path class="cls-5" d="M 28.99889945983887 53.5 L 3.498800039291382 53.5 L 3.498800039291382 0.5009001493453979 L 28.99889945983887 0.5009001493453979 C 30.92908096313477 0.5009001493453979 32.4994010925293 2.070810079574585 32.4994010925293 4.000500202178955 L 32.4994010925293 12.00983047485352 L 32.4994010925293 12.34434032440186 L 32.80860137939453 12.47199058532715 C 35.64038848876953 13.64107990264893 38.05326843261719 15.60667037963867 39.7863883972168 18.15625953674316 C 41.56119155883789 20.76716995239258 42.49930191040039 23.82529067993164 42.49930191040039 27 C 42.49930191040039 30.17470932006836 41.56119155883789 33.23281860351563 39.7863883972168 35.84373092651367 C 38.05326843261719 38.3933219909668 35.64038848876953 40.35890960693359 32.80860137939453 41.52799987792969 L 32.4994010925293 41.6556510925293 L 32.4994010925293 41.99016189575195 L 32.4994010925293 50.00040054321289 C 32.4994010925293 51.93009185791016 30.92908096313477 53.5 28.99889945983887 53.5 Z"/>
        <path class="cls-6" d="M 28.99889945983887 53 C 30.65337944030762 53 31.9994010925293 51.65438842773438 31.9994010925293 50.00040054321289 L 31.9994010925293 41.99016189575195 L 31.9994010925293 41.32114028930664 L 32.61780166625977 41.06583023071289 C 35.35898971557617 39.93415069580078 37.69485855102539 38.03118133544922 39.37287902832031 35.56264877319336 C 41.09109878540039 33.03496932983398 41.99930191040039 30.07406044006348 41.99930191040039 27 C 41.99930191040039 23.92593955993652 41.09109878540039 20.96501922607422 39.37287902832031 18.43734931945801 C 37.69485855102539 15.96882057189941 35.35898971557617 14.06583976745605 32.61780166625977 12.93416023254395 L 31.9994010925293 12.6788501739502 L 31.9994010925293 12.00983047485352 L 31.9994010925293 4.000500202178955 C 31.9994010925293 2.346510171890259 30.65337944030762 1.000900149345398 28.99889945983887 1.000900149345398 L 3.998800039291382 1.000900149345398 L 3.998800039291382 53 L 28.99889945983887 53 M 28.99889945983887 54 L 2.998800039291382 54 L 2.998800039291382 0.0009001342696137726 L 28.99889945983887 0.0009001342696137726 C 31.20840072631836 0.0009001342696137726 32.9994010925293 1.791000127792358 32.9994010925293 4.000500202178955 L 32.9994010925293 12.00983047485352 C 38.86751937866211 14.43245029449463 42.99930191040039 20.23139953613281 42.99930191040039 27 C 42.99930191040039 33.76860046386719 38.86751937866211 39.56753921508789 32.9994010925293 41.99016189575195 L 32.9994010925293 50.00040054321289 C 32.9994010925293 52.20899963378906 31.20840072631836 54 28.99889945983887 54 Z"/>
      </g>
    </g>
    <path id="路径_3349" data-name="路径 3349" class="cls-2" d="M3.823,12.111v.64H3.042V8.92q-.977.315-2.138.6L.491,8.769A19.384,19.384,0,0,0,5.18,7.249a12.612,12.612,0,0,0-1.954-1.3L3.9,5.523A16.244,16.244,0,0,1,5.842,6.891a6.521,6.521,0,0,0,2.42-2.323H4.246A11.259,11.259,0,0,1,1.424,6.4L.9,5.73A7.5,7.5,0,0,0,4.659,2.81l.857.1a7.558,7.558,0,0,1-.586.923H9.163v.695A8.586,8.586,0,0,1,4.941,8.172H9.467v4.58H8.675v-.64Zm4.851-.76V8.9H3.823v2.453ZM2.868,21.9a6.682,6.682,0,0,1-1.6,3.723L.686,25.1Q2.173,23.529,2.2,20.034V15.986H3v2.529H6.406V15.856h.76v2.659h3v.76H3v.76q-.011.412-.054,1.118H7.9V25.83H7.112V21.9Zm1.2,10.788v5.579H3.356v-.619H2.184v.825H1.457V34.057A12.511,12.511,0,0,1,.741,35.2L.35,34.567a10.951,10.951,0,0,0,1.628-4.32H.654v-.76h3.7v.76H2.716a14.083,14.083,0,0,1-.64,2.442ZM2.184,36.944H3.356V33.406H2.184Zm3.354-6.11.771.054-.478,2.735h2.3l.543-3.549H4.854v-.738H9.521l-.6,4.287h1.15q0,3.918-.434,4.548a2.308,2.308,0,0,1-1.878.6q-.456,0-.977-.033l-.217-.76q.716.065,1.009.065,1.248,0,1.5-.532a10.6,10.6,0,0,0,.26-3.158H4.952Zm-.923,4.895H8.588v.738H4.615Z" transform="translate(6.456 372.752)"/>
    <g id="组件_6_4" data-name="组件 6 – 4" transform="translate(19 383)">
      <circle id="椭圆_55" data-name="椭圆 55" class="cls-3" cx="10" cy="10" r="10"/>
      <path id="路径_3124" data-name="路径 3124" class="cls-2" d="M130.346,126.233a1.668,1.668,0,0,0-.862.242,1.592,1.592,0,0,0-.788,1.377v2.775a.938.938,0,0,1-.473.8,1.131,1.131,0,0,1-.557.147.988.988,0,0,1-1.019-.956.967.967,0,0,1,.115-.452.994.994,0,0,1,.61-.463.208.208,0,0,1,.073-.01.337.337,0,0,0,0-.673.91.91,0,0,0-.263.042,1.676,1.676,0,0,0-.946.746,1.619,1.619,0,0,0-.211.8,1.642,1.642,0,0,0,1.661,1.619,1.672,1.672,0,0,0,1.65-1.629v-2.744a.935.935,0,0,1,.473-.8,1.127,1.127,0,0,1,.557-.147,1,1,0,0,1,1.03.956.967.967,0,0,1-.115.452,1.032,1.032,0,0,1-.61.463.209.209,0,0,1-.074.01.337.337,0,0,0,0,.673.943.943,0,0,0,.263-.042,1.676,1.676,0,0,0,.946-.746,1.618,1.618,0,0,0,.211-.8A1.662,1.662,0,0,0,130.346,126.233Zm-2.182,7.036a.385.385,0,0,1,.291.379l0,.044-.008.044-.7,2.789a.384.384,0,0,1-.753-.143l.008-.044.7-2.789a.384.384,0,0,1,.466-.279Zm2.968,1.908.015.042.3,1.067a.384.384,0,0,1-.724.252l-.015-.042-.3-1.066a.384.384,0,0,1,.724-.253Zm-.769-2.7.014.042.445,1.563a.384.384,0,0,1-.724.253l-.015-.042-.444-1.564a.384.384,0,0,1,.724-.253Zm-5.088-1.923a.384.384,0,0,1-.182.441l-.04.019-.042.015-2.661.757a.384.384,0,0,1-.253-.724l.042-.015,2.662-.757a.384.384,0,0,1,.475.264Zm9.456-.093.044.008,1.658.417a.384.384,0,0,1-.1.757l-.044,0-.044-.008-1.658-.417a.384.384,0,0,1,.144-.754Zm-2.3-.579.044.008.99.249a.384.384,0,0,1-.1.757l-.044,0-.044-.008-.99-.249a.384.384,0,0,1,.143-.754Zm-10.174-2.559.044.008,2.449.616a.384.384,0,0,1-.1.757l-.044,0-.044-.008-2.449-.616a.384.384,0,0,1,.143-.754Zm14.379,0a.384.384,0,0,1-.182.441l-.04.019-.042.014-2.69.766a.384.384,0,0,1-.253-.724l.042-.015,2.69-.765a.384.384,0,0,1,.475.264Zm-11.045-1.868.034.03,1.356,1.315a.384.384,0,0,1-.5.581l-.034-.029-1.356-1.315a.384.384,0,0,1,.5-.581Zm1.858-3.23.015.042.818,2.874a.384.384,0,0,1-.724.252l-.015-.042-.818-2.874a.384.384,0,0,1,.724-.253Zm3.572-.3a.384.384,0,0,1,.291.379l0,.044-.008.044L130.891,124a.384.384,0,0,1-.754-.143l.008-.044.406-1.615a.384.384,0,0,1,.466-.279Zm-7.987,2.254a.936.936,0,1,0,.936-.936A.936.936,0,0,0,123.031,124.173Zm10.109,0a.936.936,0,1,0,.462-.828A.936.936,0,0,0,133.14,124.173Zm-10.109,10.112a.936.936,0,1,0,.461-.828.936.936,0,0,0-.461.828Z" transform="translate(-119.646 -119.738)"/>
      <circle id="椭圆_132" data-name="椭圆 132" class="cls-4" cx="1.519" cy="1.519" r="1.519" transform="translate(12.948 12.756)"/>
    </g>
  </g>
</svg>
