<svg xmlns="http://www.w3.org/2000/svg" width="20" height="20" viewBox="0 0 20 20">
  <defs>
    <style>
      .cls-1 {
        fill: none;
      }

      .cls-2 {
        fill: #f5ac40;
      }
    </style>
  </defs>
  <g id="组_4628" data-name="组 4628" transform="translate(-225 -156)">
    <rect id="矩形_2799" data-name="矩形 2799" class="cls-1" width="20" height="20" transform="translate(225 156)"/>
    <path id="路径_4280" data-name="路径 4280" class="cls-2" d="M102.443,215.667H99.2c-1.082,0-1.439-2.163-2.52-2.163H91.994c-.725,0-1.082,2.163-2.163,2.163H86.586a1.045,1.045,0,0,0-1.082,1.082v9.281a1.028,1.028,0,0,0,1.082,1h15.868a1.046,1.046,0,0,0,1.082-1.082v-9.194A1.048,1.048,0,0,0,102.443,215.667Zm-7.928,9.551a4.241,4.241,0,1,1,4.327-4.24A4.308,4.308,0,0,1,94.514,225.218Zm5.224-7.485a.541.541,0,1,1,.541-.541A.515.515,0,0,1,99.738,217.733Zm-10.633-3.148a.384.384,0,0,0-.357-.357H87.667a.384.384,0,0,0-.357.357v.357h1.8Zm5.408,3.148a3.245,3.245,0,1,0,3.245,3.245A3.227,3.227,0,0,0,94.514,217.733Z" transform="translate(140.48 -54.272)"/>
  </g>
</svg>
