<svg xmlns="http://www.w3.org/2000/svg" width="56" height="56" viewBox="0 0 56 56">
  <defs>
    <style>
      .cls-1 {
        fill: none;
      }

      .cls-2 {
        fill: #fff;
      }
    </style>
  </defs>
  <g id="组_4691" data-name="组 4691" transform="translate(-87 -310)">
    <rect id="矩形_2856" data-name="矩形 2856" class="cls-1" width="56" height="56" transform="translate(87 310)"/>
    <path id="路径_4300" data-name="路径 4300" class="cls-2" d="M47.9,108.542c-4.267-1.406-2.557-4.078-5.118-5.118a24.461,24.461,0,0,0-8.53-1.706,24.861,24.861,0,0,0-8.53,1.706c-2.569,1.032-.851,3.716-5.118,5.118-4.51,1.484-6.865-.691-6.816-3.379a6.322,6.322,0,0,1,3.4-5.151C22.979,96.633,34.247,96.6,34.247,96.6s11.268.033,17.061,3.412a6.348,6.348,0,0,1,3.4,5.114C54.785,107.831,52.43,110.035,47.9,108.542ZM28.422,107.33h2.9v2.927h5.858V107.33h2.927v2.927l11.725,10.228v6.824c0,1.883-2.055,3.412-3.938,3.412H20.6c-1.883,0-3.889-1.529-3.889-3.412v-6.824l11.716-10.228V107.33Zm5.858,19.063a5.854,5.854,0,1,0-5.854-5.854A5.854,5.854,0,0,0,34.28,126.392Zm0,0" transform="translate(80.583 224.4)"/>
  </g>
</svg>
