<svg id="组件_3_3" data-name="组件 3 – 3" xmlns="http://www.w3.org/2000/svg" width="24" height="24" viewBox="0 0 24 24">
  <defs>
    <style>
      .cls-1, .cls-2 {
        fill: #fff;
      }

      .cls-1 {
        opacity: 0.16;
      }
    </style>
  </defs>
  <rect id="矩形_2464" data-name="矩形 2464" class="cls-1" width="24" height="24" rx="2"/>
  <g id="组_4060" data-name="组 4060" transform="translate(3.001 4.3)">
    <path id="路径_3061" data-name="路径 3061" class="cls-2" d="M94.883,167.685h-.439a.654.654,0,0,1-.655-.657V155.61a.66.66,0,0,1,.655-.657h5.274a.654.654,0,0,1,.655.657v3.073a.658.658,0,1,0,1.317,0V155.61a1.971,1.971,0,0,0-1.972-1.974H94.444a1.977,1.977,0,0,0-1.972,1.974v11.418A1.971,1.971,0,0,0,94.444,169h.439a.659.659,0,0,0,0-1.317Z" transform="translate(-92.472 -153.637)"/>
    <path id="路径_3062" data-name="路径 3062" class="cls-2" d="M268.854,440.331H258.282a1.982,1.982,0,0,0-1.982,1.979V447.6a1.984,1.984,0,0,0,1.982,1.979h10.572a1.982,1.982,0,0,0,1.982-1.979V442.31A1.984,1.984,0,0,0,268.854,440.331Zm.661,7.271a.66.66,0,0,1-.661.658H258.282a.663.663,0,0,1-.661-.658V442.31a.66.66,0,0,1,.661-.657h10.572a.663.663,0,0,1,.661.657Z" transform="translate(-252.836 -434.215)"/>
  </g>
  <path id="路径_3063" data-name="路径 3063" class="cls-2" d="M5.925,3.073A5.471,5.471,0,0,1,1.9,1.317h.948A.658.658,0,1,0,2.851,0H.658A.653.653,0,0,0,.2.187L.192.193C.183.2.174.216.165.227A.652.652,0,0,0,0,.659V2.851a.658.658,0,1,0,1.317,0V2.588a6.783,6.783,0,0,0,4.609,1.8.658.658,0,0,0,0-1.317Z" transform="translate(20.121 8.69) rotate(180)"/>
</svg>
