<svg id="组件_26_2" data-name="组件 26 – 2" xmlns="http://www.w3.org/2000/svg" width="16" height="16" viewBox="0 0 16 16">
  <defs>
    <style>
      .cls-1 {
        fill: none;
      }

      .cls-2 {
        fill: #303133;
      }
    </style>
  </defs>
  <rect id="矩形_2860" data-name="矩形 2860" class="cls-1" width="16" height="16"/>
  <g id="组_4631" data-name="组 4631" transform="translate(-96 -141)">
    <path id="路径_4249" data-name="路径 4249" class="cls-2" d="M109.268,144.6h-3.9a.54.54,0,0,1-.321-.107l-1.569-1.177a1.614,1.614,0,0,0-.963-.321H98.6a1.607,1.607,0,0,0-1.6,1.6V153.7a1.607,1.607,0,0,0,1.6,1.6h10.664a1.607,1.607,0,0,0,1.6-1.6v-7.488A1.607,1.607,0,0,0,109.268,144.6Zm.535,9.093a.536.536,0,0,1-.535.535H98.6a.536.536,0,0,1-.535-.535V144.6a.536.536,0,0,1,.535-.535h3.908a.54.54,0,0,1,.321.107l1.569,1.177a1.614,1.614,0,0,0,.963.321h3.9a.536.536,0,0,1,.535.535Z"/>
    <path id="路径_4250" data-name="路径 4250" class="cls-2" d="M317.064,413.957l-1.573-1.574a.541.541,0,1,0-.766.766l1.033,1.033h-4.217a.541.541,0,1,0,0,1.082h4.217l-1.033,1.033a.541.541,0,1,0,.766.766l1.573-1.574.382-.382a.542.542,0,0,0,0-.766Z" transform="translate(-210.459 -264.759)"/>
  </g>
</svg>
