<svg xmlns="http://www.w3.org/2000/svg" width="56" height="56" viewBox="0 0 56 56">
  <defs>
    <style>
      .cls-1 {
        fill: #56bc39;
      }

      .cls-2 {
        fill: #fff;
      }
    </style>
  </defs>
  <g id="组_4032" data-name="组 4032" transform="translate(-75 -505)">
    <circle id="椭圆_121" data-name="椭圆 121" class="cls-1" cx="28" cy="28" r="28" transform="translate(75 505)"/>
    <path id="路径_3050" data-name="路径 3050" class="cls-2" d="M87.952,149.488a1.232,1.232,0,1,1,1.216-1.232,1.219,1.219,0,0,1-1.216,1.232m-6.24,0a1.232,1.232,0,1,1,1.216-1.232,1.219,1.219,0,0,1-1.216,1.232m11.824,1.76c0-3.968-3.536-7.216-8.016-7.5-.208-.016-.416-.016-.624-.016-4.768,0-8.64,3.36-8.64,7.52a6.76,6.76,0,0,0,.256,1.808c.928,3.28,4.336,5.712,8.384,5.712a9.741,9.741,0,0,0,3.84-.784l1.936,1.328s.512.368.464-.336l-.544-2.08a7.149,7.149,0,0,0,2.944-5.648m-21.888-8.464a1.232,1.232,0,1,1,1.216-1.232,1.219,1.219,0,0,1-1.216,1.232m7.648-2.448a1.232,1.232,0,1,1-1.216,1.232,1.219,1.219,0,0,1,1.216-1.232m5.584,2.752c.192,0,.368.016.56.016-.7-4.208-4.88-7.424-9.9-7.424-5.52,0-10,3.9-10,8.7a8.3,8.3,0,0,0,3.584,6.672l-.752,2.784s-.256.928.7.512l2.752-1.888a11.293,11.293,0,0,0,3.712.624h.336a7.08,7.08,0,0,1-.24-1.84c-.016-4.5,4.144-8.16,9.248-8.16" transform="translate(23.464 385.32)"/>
  </g>
</svg>
