<svg xmlns="http://www.w3.org/2000/svg" xmlns:xlink="http://www.w3.org/1999/xlink" width="56" height="56" viewBox="0 0 56 56">
  <defs>
    <style>
      .cls-1, .cls-9 {
        fill: #fff;
      }

      .cls-2 {
        clip-path: url(#clip-path);
      }

      .cls-3 {
        fill: #dedede;
      }

      .cls-4 {
        fill: #00396a;
      }

      .cls-5 {
        fill: #009fe6;
      }

      .cls-6, .cls-7 {
        fill: #0080ed;
      }

      .cls-10, .cls-11, .cls-6, .cls-9 {
        fill-rule: evenodd;
      }

      .cls-8 {
        fill: #0069bd;
      }

      .cls-10 {
        fill: #82aebf;
      }

      .cls-11 {
        fill: #fbeccf;
      }
    </style>
    <clipPath id="clip-path">
      <circle id="椭圆_87" data-name="椭圆 87" class="cls-1" cx="28" cy="28" r="28" transform="translate(0)"/>
    </clipPath>
  </defs>
  <g id="蒙版组_27" data-name="蒙版组 27" class="cls-2" transform="translate(0)">
    <g id="组_3888" data-name="组 3888" transform="translate(4.994 12.097)">
      <g id="组_3869" data-name="组 3869" transform="translate(9.881 29.339)">
        <path id="路径_2491" data-name="路径 2491" class="cls-1" d="M232.434,321.716a32.647,32.647,0,0,0-2.657,3.738c-2.345,3.831-4.808,9.676-.7,12.953,0,0,2.878,2.124,1.713-7.057l2.672-7.032Z" transform="translate(-226.691 -321.716)"/>
        <path id="路径_2492" data-name="路径 2492" class="cls-3" d="M230.714,380.023s-.626,1.183-1.674.738-1.93-1.557-2.294-5.266c0,0-1.233,4.45,2.644,6.417C229.39,381.912,230.421,382.231,230.714,380.023Z" transform="translate(-226.44 -365.013)"/>
        <path id="路径_2493" data-name="路径 2493" class="cls-4" d="M231.69,321.716a34.587,34.587,0,0,0-3.641,5.759,19.538,19.538,0,0,0-1.249,3.15,10.48,10.48,0,0,0-.479,3.312,5.686,5.686,0,0,0,1,3.106c.176.211.334.438.523.637l.606.558a.914.914,0,0,0,.645.165.842.842,0,0,0,.525-.412,4.08,4.08,0,0,0,.439-1.547,12.972,12.972,0,0,0,.068-1.682c.01-.564-.053-1.13-.079-1.7l-.169-1.694,0-.046.014-.036c.924-2.331,1.825-4.671,2.771-6.994v.045Zm0,0,1.086,2.58.009.021-.008.025c-.836,2.365-1.716,4.713-2.573,7.069l.01-.081c.068.568.134,1.137.19,1.707.032.573.1,1.142.094,1.719a13.324,13.324,0,0,1-.057,1.732,5.992,5.992,0,0,1-.153.868,2.94,2.94,0,0,1-.332.848,1.238,1.238,0,0,1-.787.6,1.3,1.3,0,0,1-.97-.238l-.648-.6c-.2-.215-.37-.459-.556-.688a6.073,6.073,0,0,1-1.044-3.319,10.474,10.474,0,0,1,.528-3.422,19.831,19.831,0,0,1,1.344-3.168,27.456,27.456,0,0,1,1.777-2.934A29.854,29.854,0,0,1,231.69,321.716Z" transform="translate(-225.948 -321.716)"/>
        <g id="组_3868" data-name="组 3868" transform="translate(1.514 12.462)">
          <path id="路径_2494" data-name="路径 2494" class="cls-1" d="M234.28,385.652a7.248,7.248,0,0,1,.514,2.535s-.379.206-1.08-.993" transform="translate(-233.713 -385.652)"/>
          <path id="路径_2495" data-name="路径 2495" class="cls-4" d="M234.28,385.652a6.054,6.054,0,0,1,.466,1.225,4.16,4.16,0,0,1,.145,1.316l0,.062-.047.017a.351.351,0,0,1-.264-.007.733.733,0,0,1-.19-.106,1.652,1.652,0,0,1-.281-.291,3.2,3.2,0,0,1-.392-.675,7.214,7.214,0,0,0,.489.59,1.506,1.506,0,0,0,.281.235.4.4,0,0,0,.264.083l-.051.079a5.848,5.848,0,0,0-.126-1.265C234.491,386.494,234.387,386.075,234.28,385.652Z" transform="translate(-233.713 -385.652)"/>
        </g>
        <path id="路径_2496" data-name="路径 2496" class="cls-5" d="M229.544,353.975a11.924,11.924,0,0,0-1.181,3.372l1.283-.247a13.449,13.449,0,0,1,.41-2.037Z" transform="translate(-227.892 -347.687)"/>
        <path id="路径_2497" data-name="路径 2497" class="cls-4" d="M227.824,356.129l0-.127a12.3,12.3,0,0,1,1.239-3.5l.1-.192.65,1.468-.022.044a14.214,14.214,0,0,0-.478,1.957l-.013.068Zm1.327-3.342a12.182,12.182,0,0,0-1.112,3.091l1.085-.209a15.323,15.323,0,0,1,.462-1.9Z" transform="translate(-227.458 -346.344)"/>
        <path id="路径_2498" data-name="路径 2498" class="cls-1" d="M227.515,375.495" transform="translate(-227.209 -365.013)"/>
      </g>
      <g id="组_3872" data-name="组 3872" transform="translate(29.107 29.339)">
        <g id="组_3870" data-name="组 3870">
          <path id="路径_2499" data-name="路径 2499" class="cls-1" d="M325.962,321.716s9.827,11.531,3.357,16.692c0,0-2.878,2.124-1.713-7.057l-2.672-7.032Z" transform="translate(-324.866 -321.716)"/>
          <path id="路径_2500" data-name="路径 2500" class="cls-4" d="M325.681,321.716a30.409,30.409,0,0,1,3.87,5.643,19.666,19.666,0,0,1,1.342,3.17,10.221,10.221,0,0,1,.523,3.422,6.836,6.836,0,0,1-.269,1.733,6.041,6.041,0,0,1-.327.821l-.2.4-.246.368a5.6,5.6,0,0,1-.554.688c-.2.218-.432.4-.648.6a1.3,1.3,0,0,1-.97.239,1.236,1.236,0,0,1-.787-.6,2.934,2.934,0,0,1-.332-.848,5.964,5.964,0,0,1-.153-.868,13.333,13.333,0,0,1-.057-1.732c-.005-.577.063-1.146.094-1.72.056-.57.123-1.138.19-1.707l.01.081c-.857-2.357-1.737-4.7-2.573-7.069l-.009-.025.009-.021Zm0,0-.969,2.626V324.3c.945,2.323,1.847,4.663,2.771,6.994l.014.036,0,.046-.169,1.694c-.026.565-.089,1.131-.079,1.7a12.944,12.944,0,0,0,.068,1.682,4.071,4.071,0,0,0,.44,1.547.84.84,0,0,0,.525.411.915.915,0,0,0,.645-.166c.2-.187.419-.355.605-.557a5.187,5.187,0,0,0,.521-.638l.232-.341.188-.367a5.638,5.638,0,0,0,.311-.763,6.456,6.456,0,0,0,.266-1.634,10.2,10.2,0,0,0-.474-3.312,19.352,19.352,0,0,0-1.247-3.152A34.939,34.939,0,0,0,325.681,321.716Z" transform="translate(-324.586 -321.716)"/>
        </g>
        <g id="组_3871" data-name="组 3871" transform="translate(4.14 12.462)">
          <path id="路径_2501" data-name="路径 2501" class="cls-1" d="M346.849,385.652a7.25,7.25,0,0,0-.514,2.535s.379.206,1.08-.993" transform="translate(-346.231 -385.652)"/>
          <path id="路径_2502" data-name="路径 2502" class="cls-4" d="M346.442,385.652c-.107.423-.212.842-.29,1.264a5.86,5.86,0,0,0-.127,1.265l-.051-.079a.4.4,0,0,0,.264-.083,1.514,1.514,0,0,0,.281-.235,7.215,7.215,0,0,0,.489-.59,3.2,3.2,0,0,1-.392.675,1.652,1.652,0,0,1-.281.291.737.737,0,0,1-.19.106.352.352,0,0,1-.264.007l-.047-.017,0-.062a4.161,4.161,0,0,1,.145-1.316A6.044,6.044,0,0,1,346.442,385.652Z" transform="translate(-345.824 -385.652)"/>
        </g>
        <path id="路径_2503" data-name="路径 2503" class="cls-5" d="M349.078,353.975a11.921,11.921,0,0,1,1.181,3.372l-1.283-.247a13.471,13.471,0,0,0-.41-2.037Z" transform="translate(-343.892 -347.687)"/>
        <path id="路径_2504" data-name="路径 2504" class="cls-4" d="M349.574,356.129l-1.476-.285-.013-.068a14.24,14.24,0,0,0-.478-1.957l-.022-.044.65-1.468.1.192a12.3,12.3,0,0,1,1.239,3.5Zm-1.3-.46,1.085.209a12.174,12.174,0,0,0-1.112-3.091l-.435.984A15.328,15.328,0,0,1,348.274,355.668Z" transform="translate(-343.102 -346.344)"/>
      </g>
      <path id="路径_2505" data-name="路径 2505" class="cls-1" d="M248.864,325.57s-4.738,9.476,0,14.409c0,0,0,3.764.779,4.219,0,0,3.764,1.168,5-.584v-2.856s1.752.389,2.207-.065c0,0-.454,2.856.649,3.57,0,0,4.284.974,5-.714,0,0,.454-3.116.389-3.635,0,0,4.751-3.959.006-14.344C262.89,325.57,254.576,322.26,248.864,325.57Z" transform="translate(-232.821 -294.295)"/>
      <path id="路径_2506" data-name="路径 2506" class="cls-3" d="M262.05,324.5s1.184.95,12.965.527c0,0-6.706-3.509-13.186-.527" transform="translate(-244.954 -293.648)"/>
      <path id="路径_2507" data-name="路径 2507" class="cls-3" d="M248.755,381.357s4.015,1.592,11.721.393c0,0-6.41.788-10.826-.616a10.231,10.231,0,0,1-1.045-4.934l-1.96-.7A8.126,8.126,0,0,0,248.755,381.357Z" transform="translate(-232.712 -335.673)"/>
      <path id="路径_2508" data-name="路径 2508" class="cls-3" d="M258.7,403.914a10.006,10.006,0,0,0,.325,3.083,8.56,8.56,0,0,0,4.333-.188v.621s-.89,1.76-5,.584c0,0-.78.028-.774-4.648Z" transform="translate(-241.537 -358.112)"/>
      <path id="路径_2509" data-name="路径 2509" class="cls-3" d="M299.33,409.232s-.257,2.06.223,2.591c0,0,3.577.53,4.6-.334a1.521,1.521,0,0,1-.563,1.154s-1.578.933-4.519.159c0,0-.823-.182-.649-3.57Z" transform="translate(-274.393 -362.834)"/>
      <path id="路径_2510" data-name="路径 2510" class="cls-5" d="M264.326,367.658l-.013,1.872s-3.851,2-6.908,1.948l-2.2,1.49-2.426-1.593s-5.986-1.053-6.68-1.85a2.707,2.707,0,0,1-.022-1.867s5.007,1.889,6.7,1.75l2.426,1.71,2.121-1.49A21.5,21.5,0,0,0,264.326,367.658Z" transform="translate(-232.15 -329.364)"/>
      <path id="路径_2511" data-name="路径 2511" class="cls-4" d="M264.549,366.509a16.112,16.112,0,0,1-6.084,1.887c-.275.033-.551.053-.826.07l-.641.444-1.377.954a.138.138,0,0,1-.148,0l-1.537-1.061-.715-.5c-.312-.037-.616-.086-.917-.136a25.557,25.557,0,0,1-5.775-1.665l-.173.374a26.467,26.467,0,0,0,6.709,1.817l2.175,1.5a.524.524,0,0,0,.308.094.533.533,0,0,0,.308-.094l1.928-1.332a16.818,16.818,0,0,0,6.968-2Z" transform="translate(-232.496 -328.436)"/>
      <path id="路径_2512" data-name="路径 2512" class="cls-4" d="M264.549,376.232a16.111,16.111,0,0,1-6.084,1.887c-.275.033-.551.053-.826.07l-.641.444-1.377.954a.138.138,0,0,1-.148,0l-1.537-1.061-.715-.5c-.312-.037-.616-.086-.917-.136a25.569,25.569,0,0,1-5.775-1.665l-.173.374a26.465,26.465,0,0,0,6.709,1.817l2.175,1.5a.525.525,0,0,0,.308.095.534.534,0,0,0,.308-.095l1.928-1.332a16.817,16.817,0,0,0,6.968-2Z" transform="translate(-232.496 -336.263)"/>
      <g id="组_3874" data-name="组 3874" transform="translate(17.197 34.48)">
        <g id="组_3873" data-name="组 3873" transform="translate(0 0)">
          <path id="路径_2513" data-name="路径 2513" class="cls-6" d="M287.413,352.948l1,0v-1.315h.073l.13-.262h-.2v-.346l-.415.194v.157h-.882v.258h.882v.957l-.773.009Z" transform="translate(-282.507 -350.454)"/>
          <path id="路径_2514" data-name="路径 2514" class="cls-6" d="M279.635,349.275l1.083,0v-.258h-.732v-.552h1.937v.308l.413-.2,0-.483h-2.767v1.181h.064Z" transform="translate(-276.435 -348.092)"/>
          <path id="路径_2515" data-name="路径 2515" class="cls-6" d="M280.662,356.189V355.1h.221l.13-.31h-1.372v.31h.647l.011.852-.011.481h2.425l-.287-.248Z" transform="translate(-276.491 -353.486)"/>
          <ellipse id="椭圆_84" data-name="椭圆 84" class="cls-7" cx="0.207" cy="0.207" rx="0.207" ry="0.207" transform="translate(4.932 1.408)"/>
          <rect id="矩形_2337" data-name="矩形 2337" class="cls-7" width="0.399" height="1.165" transform="translate(3.15 1.785)"/>
          <path id="路径_2516" data-name="路径 2516" class="cls-6" d="M263.73,348.18l-.038.114h0l-.21.623h.476l.136-.4h1.738v.648l-2.35,0,0,.219v1.723h2.746v-1.288h0v-.137h-1.985l-.13.283h1.7v.859h-1.939v-1.331h2.37v-1.32l-2.484.007Z" transform="translate(-263.482 -348.158)"/>
          <path id="路径_2517" data-name="路径 2517" class="cls-6" d="M318.554,354.535l.344.394.513-.011-.857-.991Z" transform="translate(-307.819 -352.789)"/>
          <path id="路径_2518" data-name="路径 2518" class="cls-6" d="M303.459,357.509l.713.893.424,0-.944-1.165Z" transform="translate(-295.667 -355.453)"/>
          <path id="路径_2519" data-name="路径 2519" class="cls-6" d="M310.544,348.092l.007.337h1.057v2.612h.417l-.006-2.612h1.068l0-.333Z" transform="translate(-301.371 -348.092)"/>
          <path id="路径_2520" data-name="路径 2520" class="cls-6" d="M298.6,349.63l0-.333-1.068,0,0-.866h1.07l0-.333-2.548,0,.009.337h1.057v.866l-1.067,0,.009.337h1.084l-.986,1.411h.426l.948-1.411Z" transform="translate(-289.708 -348.092)"/>
        </g>
      </g>
      <path id="路径_2521" data-name="路径 2521" class="cls-4" d="M251.231,343.985a9.67,9.67,0,0,1-2.566-.393l-.043-.019c-.807-.471-.877-3.511-.88-4.314-4.689-4.994-.174-14.193.021-14.583l.027-.055.053-.031c5.731-3.322,14.12-.047,14.2-.013l.077.03.034.075c4.472,9.79.653,13.922.018,14.517a31.445,31.445,0,0,1-.338,3.163,1.612,1.612,0,0,1-.9,1.263,8.057,8.057,0,0,1-4.061.1,1.244,1.244,0,0,1-.88-.628,5.644,5.644,0,0,1-.316-2.854,4.682,4.682,0,0,1-1.751-.042v2.411a.732.732,0,0,1-.171.484A3.286,3.286,0,0,1,251.231,343.985Zm-2.419-.777c.314.091,3.456.968,4.636-.378a.325.325,0,0,0,.07-.213v-2.551a.294.294,0,0,1,.107-.228.289.289,0,0,1,.244-.061,4.006,4.006,0,0,0,1.793.044.33.33,0,0,1,.321.04.309.309,0,0,1,.12.284,5.671,5.671,0,0,0,.254,2.761.835.835,0,0,0,.592.419,7.7,7.7,0,0,0,3.815-.072,1.2,1.2,0,0,0,.667-.947,24.784,24.784,0,0,0,.33-3.168l-.014-.111.086-.072c.046-.039,4.543-3.98-.014-14.024-.842-.316-8.447-3.02-13.716-.015-.372.777-4.408,9.54-.009,14.12l.057.06v.083C248.153,340.673,248.358,342.889,248.812,343.208Z" transform="translate(-231.904 -293.494)"/>
      <g id="组_3887" data-name="组 3887">
        <path id="路径_2522" data-name="路径 2522" class="cls-1" d="M229.407,214.581H208.691a6.968,6.968,0,0,1-6.551-4.594,5.13,5.13,0,0,1-.176-2.715h0a6.287,6.287,0,0,0-.283-3.39h0a7.006,7.006,0,0,1-.415-3.2,16.7,16.7,0,0,1,16.6-14.874h2.364a16.7,16.7,0,0,1,16.6,14.874,7.006,7.006,0,0,1-.415,3.2h0a6.285,6.285,0,0,0-.283,3.39h0a5.133,5.133,0,0,1-.176,2.715A6.968,6.968,0,0,1,229.407,214.581Z" transform="translate(-196.164 -182.958)"/>
        <path id="路径_2523" data-name="路径 2523" class="cls-3" d="M204.014,223.116s-2.612,5.768-1.414,8.67c1.128,2.731,1.076,2.466,1.128,7.4.56,4.479,5.22,5.19,22.57,5.434H208.947a7.027,7.027,0,0,1-6.347-3.466s-1.29-1.452-.593-5.2a7.6,7.6,0,0,0-.848-3.2S200.751,227.087,204.014,223.116Z" transform="translate(-196.097 -212.996)"/>
        <path id="路径_2524" data-name="路径 2524" class="cls-4" d="M228.351,212.993h-6.739l-6.739.045-6.739.06a9.555,9.555,0,0,1-1.706-.09,7.153,7.153,0,0,1-4.389-2.545,7.282,7.282,0,0,1-.919-1.467,5.35,5.35,0,0,1-.5-1.673,5.732,5.732,0,0,1,.068-1.744,6.041,6.041,0,0,0-.274-3.193,7.621,7.621,0,0,1-.433-1.68,6.93,6.93,0,0,1-.019-1.742c.092-.563.155-1.131.273-1.689a16.983,16.983,0,0,1,14.1-13.269l.852-.126.86-.046c.286-.013.575-.034.858-.041l.842,0c.564,0,1.117-.019,1.69,0l.862.035a6.3,6.3,0,0,1,.859.069A16.773,16.773,0,0,1,235.7,196.767c.061.28.151.554.185.839l.118.851a7.021,7.021,0,0,1,.084,1.737,7.371,7.371,0,0,1-.341,1.711q-.068.207-.146.41c-.049.129-.1.254-.138.383a6.061,6.061,0,0,0-.269,2.411c.021.271.077.535.113.829a5.77,5.77,0,0,1,.037.866,5.9,5.9,0,0,1-1.17,3.19A7.058,7.058,0,0,1,228.351,212.993Zm0-.082A6.913,6.913,0,0,0,234,209.876a5.523,5.523,0,0,0,1.021-3.078,5.363,5.363,0,0,0-.064-.814c-.042-.262-.111-.547-.144-.835a6.516,6.516,0,0,1,.2-2.588c.039-.14.086-.28.132-.415s.085-.258.123-.388a6.833,6.833,0,0,0,.258-1.6,6.453,6.453,0,0,0-.141-1.616l-.143-.814c-.044-.272-.136-.533-.2-.8A16.539,16.539,0,0,0,221.062,184.7a28.589,28.589,0,0,0-3.318-.14l-.842,0c-.279,0-.55.021-.825.03l-.823.034-.816.112a16.281,16.281,0,0,0-13.681,12.654c-.12.539-.184,1.089-.28,1.634a6.408,6.408,0,0,0,0,1.618,7.1,7.1,0,0,0,.392,1.579,6.518,6.518,0,0,1,.264,3.445,5.27,5.27,0,0,0-.079,1.609,4.908,4.908,0,0,0,.448,1.545,6.852,6.852,0,0,0,.853,1.389,6.792,6.792,0,0,0,4.123,2.485,9.2,9.2,0,0,0,1.652.115l6.739.06,6.739.045Z" transform="translate(-195.109 -181.328)"/>
        <g id="组_3875" data-name="组 3875" transform="translate(3.744 13.985)">
          <path id="路径_2525" data-name="路径 2525" class="cls-5" d="M197.364,245.832l.427,2.52.232,2.291s-.411,3.356-.562,2.96l-1.452-1.44-.452-3.473Z" transform="translate(-195.344 -245.269)"/>
          <path id="路径_2526" data-name="路径 2526" class="cls-4" d="M196.609,251.514a.228.228,0,0,1-.2-.115l-1.479-1.467-.471-3.616,2.134-3.376.517,3.05.236,2.328,0,.023c-.383,3.131-.535,3.15-.712,3.172Zm-1.286-1.774,1.209,1.2c.112-.491.278-1.6.4-2.625l-.23-2.268-.335-1.978-1.481,2.343Z" transform="translate(-194.462 -242.941)"/>
        </g>
        <path id="路径_2527" data-name="路径 2527" class="cls-4" d="M198.149,257.447l.36,3.186.557.514-.389-4.513Z" transform="translate(-193.687 -239.98)"/>
        <g id="组_3876" data-name="组 3876" transform="translate(39.266 13.985)">
          <path id="路径_2528" data-name="路径 2528" class="cls-5" d="M378.429,245.832l-.427,2.52-.232,2.291s.411,3.356.562,2.96l1.452-1.44.452-3.473Z" transform="translate(-377.563 -245.269)"/>
          <path id="路径_2529" data-name="路径 2529" class="cls-4" d="M377.449,251.514l-.025,0c-.176-.022-.329-.04-.712-3.172l0-.023.235-2.314.518-3.063,2.134,3.376-.471,3.616-1.479,1.467A.228.228,0,0,1,377.449,251.514Zm-.326-3.2c.125,1.021.292,2.134.4,2.625l1.209-1.2.434-3.329-1.481-2.343-.337,1.991Z" transform="translate(-376.709 -242.941)"/>
        </g>
        <path id="路径_2530" data-name="路径 2530" class="cls-4" d="M384.047,257.447l-.36,3.186-.557.514.389-4.513Z" transform="translate(-342.612 -239.98)"/>
        <g id="组_3877" data-name="组 3877" transform="translate(22.927 3.712)">
          <path id="路径_2531" data-name="路径 2531" class="cls-8" d="M292.882,195.779s10.842-11.613,12.64-1.208C305.522,194.571,301.129,188.585,292.882,195.779Z" transform="translate(-292.882 -190.24)"/>
          <path id="路径_2532" data-name="路径 2532" class="cls-4" d="M301.845,190.651c1.415,0,2.388.866,2.951,2.637a6.89,6.89,0,0,0-4.285-1.464,8.692,8.692,0,0,0-3.066.593,8.634,8.634,0,0,1,4.4-1.766m0-.411c-3.792,0-8.963,5.539-8.963,5.539,3.1-2.7,5.648-3.543,7.629-3.543a6.473,6.473,0,0,1,5.011,2.336c-.556-3.22-1.978-4.331-3.677-4.331Z" transform="translate(-292.882 -190.24)"/>
        </g>
        <g id="组_3878" data-name="组 3878" transform="translate(11.845)">
          <path id="路径_2533" data-name="路径 2533" class="cls-5" d="M236.026,175.68s9.845-10.068,22.084-.035c0,0-3.4-2.085-11,4.8C247.108,180.445,239.477,172.995,236.026,175.68Z" transform="translate(-236.026 -171.194)"/>
          <path id="路径_2534" data-name="路径 2534" class="cls-4" d="M246.968,171.811a15.922,15.922,0,0,1,8.941,2.961c-1.877.209-4.769,1.3-8.791,4.837-1.3-1.2-5.339-4.674-8.637-5.089a15.487,15.487,0,0,1,8.486-2.709m0-.617a16.6,16.6,0,0,0-10.942,4.485,2.9,2.9,0,0,1,1.831-.584c3.772,0,9.251,5.349,9.251,5.349,4.737-4.289,7.841-5.1,9.509-5.1a3.051,3.051,0,0,1,1.493.3c-4.07-3.337-7.875-4.45-11.142-4.45Z" transform="translate(-236.026 -171.194)"/>
        </g>
        <g id="组_3879" data-name="组 3879" transform="translate(10.184 3.633)">
          <path id="路径_2535" data-name="路径 2535" class="cls-8" d="M240.29,195.45S229.3,183.735,227.5,194.14C227.5,194.14,232.043,188.257,240.29,195.45Z" transform="translate(-227.503 -189.832)"/>
          <path id="路径_2536" data-name="路径 2536" class="cls-4" d="M231.182,189.833v.411a8.881,8.881,0,0,1,4.525,1.832,8.913,8.913,0,0,0-3.158-.613,7.11,7.11,0,0,0-4.335,1.444c.559-1.79,1.537-2.664,2.967-2.664v-.411m0,0c-1.7,0-3.126,1.107-3.68,4.308a6.646,6.646,0,0,1,5.046-2.266c2.016,0,4.611.847,7.74,3.576,0,0-5.269-5.617-9.107-5.618Z" transform="translate(-227.503 -189.833)"/>
        </g>
        <g id="组_3880" data-name="组 3880" transform="translate(11.326 3.569)">
          <path id="路径_2537" data-name="路径 2537" class="cls-4" d="M257.756,194.122a5.951,5.951,0,0,0-1.2-1.369l.254-.323a6.261,6.261,0,0,1,1.3,1.475Z" transform="translate(-252.033 -191.86)"/>
          <path id="路径_2538" data-name="路径 2538" class="cls-4" d="M246.76,191.376a2.583,2.583,0,0,0-1.5-1.478l.119-.393a2.952,2.952,0,0,1,1.77,1.725Z" transform="translate(-242.937 -189.504)"/>
          <path id="路径_2539" data-name="路径 2539" class="cls-4" d="M239.025,194.089a2.057,2.057,0,0,0-1.487-1.2l.045-.409a2.448,2.448,0,0,1,1.813,1.434Z" transform="translate(-236.724 -191.898)"/>
          <path id="路径_2540" data-name="路径 2540" class="cls-4" d="M234.2,198.939c-.188-.415-.835-.463-.842-.463l.023-.41a1.47,1.47,0,0,1,1.193.7Z" transform="translate(-233.362 -196.396)"/>
        </g>
        <g id="组_3881" data-name="组 3881" transform="translate(28.588 3.569)">
          <path id="路径_2541" data-name="路径 2541" class="cls-4" d="M322.273,194.122l-.349-.217a6.259,6.259,0,0,1,1.3-1.475l.254.323A5.967,5.967,0,0,0,322.273,194.122Z" transform="translate(-321.924 -191.86)"/>
          <path id="路径_2542" data-name="路径 2542" class="cls-4" d="M331.878,191.376l-.384-.147a2.951,2.951,0,0,1,1.77-1.725l.118.393A2.584,2.584,0,0,0,331.878,191.376Z" transform="translate(-329.629 -189.504)"/>
          <path id="路径_2543" data-name="路径 2543" class="cls-4" d="M339.74,194.485l-.371-.177c.618-1.3,1.5-1.337,1.535-1.338l.012.411-.006-.206.009.206C340.891,193.382,340.243,193.43,339.74,194.485Z" transform="translate(-335.969 -192.294)"/>
          <path id="路径_2544" data-name="路径 2544" class="cls-4" d="M347.212,199.022l-.374-.169a1.245,1.245,0,0,1,1.044-.684l.016.411-.008-.205.009.205A.829.829,0,0,0,347.212,199.022Z" transform="translate(-341.982 -196.479)"/>
        </g>
        <g id="组_3882" data-name="组 3882" transform="translate(20.894 1.597)">
          <path id="路径_2545" data-name="路径 2545" class="cls-9" d="M291.594,179.643a.255.255,0,1,1,.254.255A.256.256,0,0,1,291.594,179.643Z" transform="translate(-289.811 -179.386)"/>
          <path id="路径_2546" data-name="路径 2546" class="cls-9" d="M286.52,185.064v.512h-4.07v-.512h1.775v-1.909h0a.63.63,0,1,0-1.26,0h0v1.657h-.516V183.2h0c0-.012,0-.024,0-.036a1.14,1.14,0,0,1,2.034-.716,1.135,1.135,0,0,1,.889-.433,1.147,1.147,0,0,1,1.145,1.149v1.646h-.506v-1.657h0a.63.63,0,1,0-1.26,0h0v.3h0v1.609Z" transform="translate(-282.448 -181.503)"/>
        </g>
        <path id="路径_2547" data-name="路径 2547" class="cls-10" d="M229.929,225.645" transform="translate(-219.272 -215.032)"/>
        <path id="路径_2548" data-name="路径 2548" class="cls-11" d="M249.88,244.7s-1.011,1.916-2.158,1.916h-.156a22.736,22.736,0,0,0-19.213,0H227.9c-1.147,0-2.158-1.916-2.158-1.916s-2.306-4.382-.016-14.12c0,0,.629-.95,1.209-.719l4.526,1.776a11.344,11.344,0,0,0,4.144.785h4.411a11.345,11.345,0,0,0,4.144-.785l4.522-1.776c.584-.23,1.213.719,1.213.719C252.186,240.314,249.88,244.7,249.88,244.7Z" transform="translate(-215.075 -218.393)"/>
        <path id="路径_2549" data-name="路径 2549" class="cls-4" d="M249.039,243.645a5.922,5.922,0,0,1-.937,1.276,2.834,2.834,0,0,1-.63.486,1.429,1.429,0,0,1-.775.171h-.009l-.006,0a15.94,15.94,0,0,0-4.664-1.622,24.657,24.657,0,0,0-4.927-.443,24.92,24.92,0,0,0-4.91.526,16.792,16.792,0,0,0-4.615,1.658l-.04.022h-.042c-.192,0-.354.013-.572-.009a1.558,1.558,0,0,1-.591-.188,3.42,3.42,0,0,1-.885-.762,6.434,6.434,0,0,1-.66-.932,5.837,5.837,0,0,1-.429-1.066,17.681,17.681,0,0,1-.691-4.431,29.263,29.263,0,0,1,.2-4.469,42.413,42.413,0,0,1,.764-4.4l.009-.044.026-.036a2.638,2.638,0,0,1,.611-.647,1.211,1.211,0,0,1,.46-.21.842.842,0,0,1,.291-.005l.145.04.095.036,1.494.576,2.988,1.152a11.06,11.06,0,0,0,3.032.689c.518.048,1.034.04,1.573.038l1.6-.005,1.6-.005c.54,0,1.055.009,1.572-.04a11.038,11.038,0,0,0,3.025-.7l2.991-1.143,1.5-.57.1-.036.146-.039a.866.866,0,0,1,.291.008,1.219,1.219,0,0,1,.459.212,2.551,2.551,0,0,1,.606.651l.026.038.008.041.344,1.767c.089.594.185,1.186.266,1.781a33.2,33.2,0,0,1,.258,3.588,25.249,25.249,0,0,1-.185,3.587l-.139.888c-.065.293-.112.589-.191.878A8.654,8.654,0,0,1,249.039,243.645Zm-.055-.029a8.583,8.583,0,0,0,.54-1.695c.074-.288.115-.584.174-.875l.122-.884a20.876,20.876,0,0,0,.087-3.565,32.642,32.642,0,0,0-.384-3.544c-.1-.586-.219-1.168-.328-1.752l-.4-1.736.034.079c-.28-.37-.7-.778-1-.574l-1.485.6-2.972,1.2a11.669,11.669,0,0,1-3.193.753c-.547.054-1.1.049-1.628.05l-1.6-.005-1.6-.006c-.528,0-1.081,0-1.627-.051a11.643,11.643,0,0,1-3.186-.763l-2.977-1.187-1.488-.594c-.3-.2-.723.207-1,.581l.035-.08a41.529,41.529,0,0,0-.8,4.343,28.872,28.872,0,0,0-.237,4.4,17.315,17.315,0,0,0,.633,4.334,5.573,5.573,0,0,0,.387,1,6.092,6.092,0,0,0,.614.885,3.092,3.092,0,0,0,.782.69,1.219,1.219,0,0,0,.458.152c.151.021.361.007.538.013l-.081.021a16.369,16.369,0,0,1,4.724-1.631,25.146,25.146,0,0,1,4.964-.443,25.4,25.4,0,0,1,4.948.526,17.265,17.265,0,0,1,4.674,1.667l-.015,0a1.364,1.364,0,0,0,.746-.164,2.773,2.773,0,0,0,.615-.475A5.872,5.872,0,0,0,248.985,243.616Z" transform="translate(-214.207 -217.327)"/>
        <rect id="矩形_2338" data-name="矩形 2338" class="cls-4" width="3.7" height="7.399" rx="1.85" transform="translate(14.801 15.029)"/>
        <rect id="矩形_2339" data-name="矩形 2339" class="cls-4" width="3.7" height="7.399" rx="1.85" transform="translate(27.27 15.029)"/>
        <path id="路径_2550" data-name="路径 2550" class="cls-4" d="M290.657,292.829s-2.008.916-3.018-.279C287.639,292.55,287.182,294.723,290.657,292.829Z" transform="translate(-265.718 -268.896)"/>
        <g id="组_3883" data-name="组 3883" transform="translate(41.229 16.882)">
          <path id="路径_2551" data-name="路径 2551" class="cls-5" d="M388.1,263.973l1.193-.7a2.547,2.547,0,0,1,1.294-.353h1.052v-.5h-.65a2,2,0,0,1-1.593-.794l-.843-1.118Z" transform="translate(-387.846 -259.975)"/>
          <path id="路径_2552" data-name="路径 2552" class="cls-4" d="M386.78,262.194l.571-4.389,1.146,1.52a1.8,1.8,0,0,0,1.43.712h.855v.915h-1.257a2.344,2.344,0,0,0-1.19.325Zm.849-3.338-.333,2.556.83-.49a2.755,2.755,0,0,1,1.4-.382h.846v-.092h-.444a2.213,2.213,0,0,1-1.758-.876Z" transform="translate(-386.78 -257.805)"/>
        </g>
        <g id="组_3884" data-name="组 3884" transform="translate(44.102 18.705)">
          <ellipse id="椭圆_85" data-name="椭圆 85" class="cls-5" cx="0.718" cy="0.718" rx="0.718" ry="0.718" transform="translate(0.205 0.205)"/>
          <path id="路径_2553" data-name="路径 2553" class="cls-4" d="M402.443,269a.924.924,0,1,1,.924-.924A.925.925,0,0,1,402.443,269Zm0-1.437a.513.513,0,1,0,.513.513A.513.513,0,0,0,402.443,267.568Z" transform="translate(-401.519 -267.157)"/>
        </g>
        <g id="组_3885" data-name="组 3885" transform="translate(0.718 16.882)">
          <path id="路径_2554" data-name="路径 2554" class="cls-5" d="M183.533,263.973l-1.193-.7a2.547,2.547,0,0,0-1.294-.353h-1.052v-.5h.65a2,2,0,0,0,1.594-.794l.843-1.118Z" transform="translate(-179.788 -259.975)"/>
          <path id="路径_2555" data-name="路径 2555" class="cls-4" d="M182.941,262.194l-1.555-.918a2.343,2.343,0,0,0-1.19-.325h-1.258v-.915h.855a1.8,1.8,0,0,0,1.429-.712l1.146-1.52Zm-3.591-1.653h.846a2.754,2.754,0,0,1,1.4.382l.831.49-.333-2.556-.54.716a2.213,2.213,0,0,1-1.758.876h-.444Z" transform="translate(-178.939 -257.805)"/>
        </g>
        <g id="组_3886" data-name="组 3886" transform="translate(0 18.705)">
          <ellipse id="椭圆_86" data-name="椭圆 86" class="cls-5" cx="0.718" cy="0.718" rx="0.718" ry="0.718" transform="translate(0.205 0.205)"/>
          <path id="路径_2556" data-name="路径 2556" class="cls-4" d="M176.178,269a.924.924,0,1,1,.924-.924A.925.925,0,0,1,176.178,269Zm0-1.437a.513.513,0,1,0,.513.513A.513.513,0,0,0,176.178,267.568Z" transform="translate(-175.254 -267.157)"/>
        </g>
      </g>
    </g>
  </g>
</svg>
