<svg xmlns="http://www.w3.org/2000/svg" width="58.162" height="33.5" viewBox="0 0 58.162 33.5">
  <defs>
    <style>
      .cls-1 {
        fill: #bfe0fc;
      }

      .cls-2 {
        fill: #fff;
      }

      .cls-3 {
        fill: #62c232;
      }
    </style>
  </defs>
  <g id="组_4362" data-name="组 4362" transform="translate(-103.683 -125)">
    <g id="组_2181" data-name="组 2181" transform="translate(104 125)">
      <rect id="矩形_1712" data-name="矩形 1712" class="cls-1" width="44" height="28" transform="translate(-0.317)"/>
      <g id="组_2180" data-name="组 2180" transform="translate(8.237 7.06)">
        <path id="联合_52" data-name="联合 52" class="cls-2" d="M14.656,14H0A7.553,7.553,0,0,1,7.327,7a7.555,7.555,0,0,1,7.33,7v0Zm5.015-.874V11.377H27v1.749Zm0-5.25V6.127H27V7.876ZM3.614,3.5A3.585,3.585,0,0,1,7.278,0a3.586,3.586,0,0,1,3.664,3.5A3.585,3.585,0,0,1,7.278,7,3.584,3.584,0,0,1,3.614,3.5Zm16.057-.876V.876H27V2.625Z" transform="translate(0.446 -0.06)"/>
      </g>
    </g>
    <path id="路径_3364" data-name="路径 3364" class="cls-3" d="M19.333,14.77a1.013,1.013,0,0,1-.052-1.246l.985-1.408a.737.737,0,0,1,1.089-.163l8.188,6.553a.979.979,0,0,0,1.245-.054L51.777.2a.84.84,0,0,1,1.14.054l.829.813a.81.81,0,0,1,0,1.137L30.684,25.927a.729.729,0,0,1-1.088,0Z" transform="translate(107.865 132.329)"/>
  </g>
</svg>
