<svg id="组件_3_10" data-name="组件 3 – 10" xmlns="http://www.w3.org/2000/svg" width="128" height="128" viewBox="0 0 128 128">
  <defs>
    <style>
      .cls-1 {
        fill: none;
      }

      .cls-2 {
        fill: #eee;
      }

      .cls-3 {
        fill: #d2d2d2;
      }

      .cls-4 {
        fill: #fff;
      }

      .cls-5 {
        fill: #adadad;
      }

      .cls-6 {
        fill: #b9b9b9;
      }

      .cls-7 {
        fill: #d9d9d9;
      }

      .cls-8 {
        fill: #d1d1d1;
      }

      .cls-9 {
        fill: #e9e9e9;
      }
    </style>
  </defs>
  <rect id="矩形_2591" data-name="矩形 2591" class="cls-1" width="128" height="128"/>
  <g id="组_169" data-name="组 169" transform="translate(16.479 19)">
    <path id="路径_88" data-name="路径 88" class="cls-2" d="M329.546,169.051H282.162a6.049,6.049,0,0,1-6.035-6.059V103.124a6.049,6.049,0,0,1,6.035-6.062h47.384a6.049,6.049,0,0,1,6.037,6.062v59.868a6.049,6.049,0,0,1-6.037,6.059" transform="translate(-251.156 -88.492)"/>
    <path id="路径_89" data-name="路径 89" class="cls-3" d="M268.672,94.277a5.008,5.008,0,0,0-5.006,5V158.85a5.008,5.008,0,0,0,5.006,5h47.439a5.009,5.009,0,0,0,5.008-5V99.273a5.008,5.008,0,0,0-5.008-5H268.672Zm47.439,71.637H268.672a7.078,7.078,0,0,1-7.077-7.063V99.273a7.078,7.078,0,0,1,7.077-7.063h47.439a7.08,7.08,0,0,1,7.079,7.063V158.85A7.081,7.081,0,0,1,316.111,165.914Z" transform="translate(-237.908 -84.069)"/>
    <path id="路径_90" data-name="路径 90" class="cls-4" d="M229.2,150.444H190.121a6.047,6.047,0,0,0-6.037,6.06v59.868a6.048,6.048,0,0,0,6.037,6.061h47.384a6.049,6.049,0,0,0,6.035-6.061V164.843l-14.341-14.4Z" transform="translate(-167.241 -137.16)"/>
    <path id="路径_91" data-name="路径 91" class="cls-5" d="M176.632,147.664a5.007,5.007,0,0,0-5.008,5v59.575a5.009,5.009,0,0,0,5.008,5h47.439a5.008,5.008,0,0,0,5.006-5V161.388l-13.751-13.723ZM224.071,219.3H176.632a7.081,7.081,0,0,1-7.079-7.065V152.661a7.079,7.079,0,0,1,7.079-7.063h39.553l14.963,14.934v51.7a7.079,7.079,0,0,1-7.077,7.065Z" transform="translate(-153.993 -132.743)"/>
    <path id="路径_92" data-name="路径 92" class="cls-5" d="M685.1,149.123v5.765a4.963,4.963,0,0,0,4.955,4.962h5.754L685.1,149.123ZM698.283,161.9h-8.226a7.017,7.017,0,0,1-7-7.014v-8.242a1.026,1.026,0,0,1,1.75-.726l14.2,14.232a1.026,1.026,0,0,1-.723,1.751Z" transform="translate(-622.152 -132.764)"/>
    <path id="路径_93" data-name="路径 93" class="cls-6" d="M295.505,317.876h27.8" transform="translate(-268.823 -289.809)"/>
    <path id="路径_94" data-name="路径 94" class="cls-7" d="M319.144,307.888H291.689a1.072,1.072,0,0,1,0-2.142h27.455a1.072,1.072,0,0,1,0,2.142" transform="translate(-264.406 -278.749)"/>
    <path id="路径_95" data-name="路径 95" class="cls-6" d="M300.351,444.058h36.786" transform="translate(-273.241 -404.849)"/>
    <path id="路径_96" data-name="路径 96" class="cls-7" d="M323.7,434.069H286.867a1.072,1.072,0,0,1,0-2.142h36.839a1.072,1.072,0,0,1,0,2.142" transform="translate(-259.997 -393.789)"/>
    <path id="路径_97" data-name="路径 97" class="cls-6" d="M300.351,570.239h36.786" transform="translate(-273.241 -519.889)"/>
    <path id="路径_98" data-name="路径 98" class="cls-7" d="M323.7,560.246H286.867a1.072,1.072,0,0,1,0-2.143h36.839a1.072,1.072,0,0,1,0,2.143" transform="translate(-259.997 -508.825)"/>
    <path id="路径_99" data-name="路径 99" class="cls-6" d="M300.351,686.712h36.786" transform="translate(-273.241 -626.078)"/>
    <path id="路径_100" data-name="路径 100" class="cls-7" d="M323.7,676.724H286.867a1.072,1.072,0,0,1,0-2.142h36.839a1.072,1.072,0,0,1,0,2.142" transform="translate(-259.997 -615.019)"/>
    <path id="路径_101" data-name="路径 101" class="cls-6" d="M300.351,812.894h36.786" transform="translate(-273.241 -741.119)"/>
    <path id="路径_102" data-name="路径 102" class="cls-7" d="M323.7,802.9H286.867a1.072,1.072,0,0,1,0-2.142h36.839a1.072,1.072,0,0,1,0,2.143" transform="translate(-259.997 -730.053)"/>
    <path id="路径_103" data-name="路径 103" class="cls-4" d="M166.728,498.455a17.965,17.965,0,1,1-17.965-18,17.98,17.98,0,0,1,17.965,18" transform="translate(-118.659 -438.035)"/>
    <path id="路径_104" data-name="路径 104" class="cls-5" d="M135.3,467.951a17.01,17.01,0,1,0,16.979,17.011A17.014,17.014,0,0,0,135.3,467.951m0,36.079a19.069,19.069,0,1,1,19.034-19.068A19.072,19.072,0,0,1,135.3,504.029" transform="translate(-105.41 -424.756)"/>
    <path id="路径_105" data-name="路径 105" class="cls-4" d="M479.59,829.876l4.705,4.714" transform="translate(-436.654 -756.601)"/>
    <path id="路径_106" data-name="路径 106" class="cls-5" d="M479.7,821.745l-4.954-4.964,1.461-1.464,4.955,4.963Z" transform="translate(-432.242 -743.327)"/>
    <path id="路径_107" data-name="路径 107" class="cls-4" d="M541.488,889.962l-8.161-8.177a1.529,1.529,0,0,1,0-2.159l.766-.768a1.522,1.522,0,0,1,2.155,0l8.163,8.175a1.531,1.531,0,0,1,0,2.161l-.766.768a1.524,1.524,0,0,1-2.157,0" transform="translate(-485.24 -800.851)"/>
    <path id="路径_108" data-name="路径 108" class="cls-5" d="M528.77,875.763a.5.5,0,0,0,.7,0l.771-.772a.5.5,0,0,0,0-.7l-8.206-8.218a.492.492,0,0,0-.7,0l-.771.772a.494.494,0,0,0,0,.7Zm.349,2.224a2.565,2.565,0,0,1-1.818-.753l-8.2-8.22a2.579,2.579,0,0,1,0-3.641l.771-.772a2.566,2.566,0,0,1,3.635,0l8.207,8.218a2.585,2.585,0,0,1,0,3.643l-.771.772A2.565,2.565,0,0,1,529.119,877.987Z" transform="translate(-471.987 -787.573)"/>
    <path id="路径_109" data-name="路径 109" class="cls-8" d="M974.787,8.142a1.072,1.072,0,0,1-1.069-1.074V1.074a1.069,1.069,0,1,1,2.139,0V7.068a1.072,1.072,0,0,1-1.07,1.074" transform="translate(-887.153)"/>
    <path id="路径_110" data-name="路径 110" class="cls-8" d="M129.788,36.114H123.8a1.071,1.071,0,1,1,0-2.143h5.983a1.071,1.071,0,1,1,0,2.143M44.67,79.393A1.072,1.072,0,0,1,43.6,78.319V72.325a1.069,1.069,0,1,1,2.138,0V78.32a1.072,1.072,0,0,1-1.069,1.074" transform="translate(-39.161 -30.972)"/>
    <path id="路径_111" data-name="路径 111" class="cls-8" d="M7.531,134.77H1.548a1.072,1.072,0,0,1,0-2.142H7.531a1.072,1.072,0,0,1,0,2.142M91.37,98.1a.458.458,0,0,0-.458.458c0,.507.915.507.915,0a.458.458,0,0,0-.458-.458m0,1.959a1.5,1.5,0,1,1,1.5-1.5,1.5,1.5,0,0,1-1.5,1.5M7.961,123.813a.458.458,0,0,0-.457.458c0,.507.915.507.915,0a.458.458,0,0,0-.458-.458m0,1.959a1.5,1.5,0,1,1,1.5-1.5,1.5,1.5,0,0,1-1.5,1.5" transform="translate(1 -89.377)"/>
    <path id="路径_112" data-name="路径 112" class="cls-9" d="M160.142,586.252a17.109,17.109,0,0,1-15.889-23.293,17.068,17.068,0,1,0,29.166,16.895,16.972,16.972,0,0,1-13.277,6.4" transform="translate(-127.489 -513.252)"/>
  </g>
</svg>
