<svg xmlns="http://www.w3.org/2000/svg" width="23.007" height="23.009" viewBox="0 0 23.007 23.009">
  <defs>
    <style>
      .cls-1 {
        fill: #303133;
      }

      .cls-2 {
        fill: #0082ef;
      }

      .cls-3 {
        fill: #fff;
        stroke: #303133;
        stroke-width: 1.8px;
      }
    </style>
  </defs>
  <g id="组_4006" data-name="组 4006" transform="translate(-288.867 -593.955)">
    <g id="组_3948" data-name="组 3948" transform="translate(293.723 598.884)">
      <path id="路径_2233" data-name="路径 2233" class="cls-1" d="M200.538,213.223a6.6,6.6,0,1,1,6.518,6.646,6.592,6.592,0,0,1-6.518-6.646Zm11.87-.013a5.36,5.36,0,0,0-5.068-5.332,5.328,5.328,0,1,0,5.068,5.332Z" transform="translate(-200.538 -206.551)"/>
      <path id="路径_2234" data-name="路径 2234" class="cls-2" d="M311.784,316.974a3.925,3.925,0,1,1-.041,7.851,3.925,3.925,0,0,1,.041-7.851Zm-.274.935a1.676,1.676,0,0,0-.809.176,3.035,3.035,0,0,0-1.929,2.756.43.43,0,0,0,.379.489c.274.038.423-.126.489-.376a.963.963,0,0,0,.033-.213,1.919,1.919,0,0,1,.425-1.125,2.014,2.014,0,0,1,1.533-.827.568.568,0,0,0,.562-.317.4.4,0,0,0-.108-.463C311.941,317.864,311.757,317.893,311.51,317.909Z" transform="translate(-305.183 -314.243)"/>
    </g>
    <g id="组_4005" data-name="组 4005" transform="translate(289.767 594.854)">
      <path id="路径_3045" data-name="路径 3045" class="cls-3" d="M-5084.435-5912.252h6.543v6.545" transform="translate(5099.099 5912.252)"/>
      <path id="路径_3048" data-name="路径 3048" class="cls-3" d="M-5077.892-5912.252h-6.543v6.545" transform="translate(5084.435 5912.252)"/>
      <path id="路径_3046" data-name="路径 3046" class="cls-3" d="M-5084.435-5905.707h6.543v-6.545" transform="translate(5099.099 5926.917)"/>
      <path id="路径_3047" data-name="路径 3047" class="cls-3" d="M-5077.892-5905.707h-6.543v-6.545" transform="translate(5084.435 5926.917)"/>
    </g>
  </g>
</svg>
