<svg xmlns="http://www.w3.org/2000/svg" width="16" height="11.998" viewBox="0 0 16 11.998">
  <defs>
    <style>
      .cls-1 {
        fill: #909399;
      }
    </style>
  </defs>
  <path id="路径_1575" data-name="路径 1575" class="cls-1" d="M100.535,215.424H97.655c-.96,0-1.277-1.92-2.236-1.92H91.263c-.643,0-.96,1.92-1.92,1.92H86.464a.928.928,0,0,0-.96.96v8.235a.912.912,0,0,0,.96.883h14.08a.928.928,0,0,0,.96-.96v-8.158A.93.93,0,0,0,100.535,215.424ZM93.5,223.9a3.763,3.763,0,1,1,3.839-3.762A3.822,3.822,0,0,1,93.5,223.9Zm4.636-6.642a.48.48,0,1,1,.48-.48A.457.457,0,0,1,98.135,217.257ZM88.7,214.464a.341.341,0,0,0-.317-.317h-.96a.341.341,0,0,0-.317.317v.317H88.7Zm4.8,2.793a2.879,2.879,0,1,0,2.879,2.879A2.863,2.863,0,0,0,93.5,217.257Z" transform="translate(-85.504 -213.504)"/>
</svg>
