<svg xmlns="http://www.w3.org/2000/svg" width="119.157" height="44.918" viewBox="0 0 119.157 44.918">
  <defs>
    <style>
      .cls-1 {
        fill: #fff;
      }

      .cls-2 {
        opacity: 0.8;
      }
    </style>
  </defs>
  <g id="组_4155" data-name="组 4155" transform="translate(-220.843 -131.264)">
    <path id="路径_3348" data-name="路径 3348" class="cls-1" d="M2.844-7.14A11.389,11.389,0,0,1,1.8-5.4L.972-5.916a10.656,10.656,0,0,0,1.9-3.72l.876.18q-.216.72-.528,1.488H5.664V-9.792H6.54v1.824H10.5v.828H6.54v2.268h4.788v.828H8.052V-.528q0,.72.588.72H9.792a.6.6,0,0,0,.468-.2,4.85,4.85,0,0,0,.3-1.98l.828.264a5.641,5.641,0,0,1-.48,2.4,1.241,1.241,0,0,1-.888.348H8.388q-1.224,0-1.224-1.392V-4.044H4.932a6.617,6.617,0,0,1-.9,3.156A6.418,6.418,0,0,1,1.2,1.2L.6.432a5.906,5.906,0,0,0,2.6-1.74,5.366,5.366,0,0,0,.84-2.736H.732v-.828H5.664V-7.14Zm20.82-1.188H19.128V-9.18h9.48v.852H24.54v3.492H28v.828H24.54v3.84h4.572v.84H18.42v-.84H20.3v-5.76h.84v5.76h2.52ZM36.972-9.612a17.161,17.161,0,0,1,2.1,1.848l-.624.636a13.447,13.447,0,0,0-2.076-1.92ZM44.28.984q-.624,0-2.232-.024A8.079,8.079,0,0,1,40.08.744a2.8,2.8,0,0,1-1.32-.876.683.683,0,0,0-.492-.3q-.456,0-1.452,1.68L36.168.672A4.654,4.654,0,0,1,37.884-1.2V-4.824H36.156v-.84h2.556v4.512a2.4,2.4,0,0,1,.3.276A3.382,3.382,0,0,0,40-.12a5.255,5.255,0,0,0,1.7.264q1.32.024,2.46.024L45.78.156q.912-.024,1.26-.048l-.216.876ZM39.8-7.128h2.664q.1-.852.12-1.932v-.732h.864v.552a19.568,19.568,0,0,1-.12,2.112h2.976v.84H43.536A9.768,9.768,0,0,0,46.7-1.512l-.588.624a11.433,11.433,0,0,1-3.1-4.6,7.492,7.492,0,0,1-3.012,4.6L39.48-1.6a6.692,6.692,0,0,0,2.856-4.692H39.8Zm14.3,5.412V-2.5h4.776V-3.12h.864V-2.5h4.7v.78H60.816A8.807,8.807,0,0,0,64.584.132l-.372.756a8.894,8.894,0,0,1-4.236-2.6h-.228V1.212h-.864V-1.716h-.24a8.94,8.94,0,0,1-4.2,2.652L53.988.192a9.406,9.406,0,0,0,3.828-1.908Zm1.176-5.1a11.916,11.916,0,0,1-1.008,1.032l-.492-.672A9.042,9.042,0,0,0,56.172-9.84l.8.2q-.144.372-.408.936H59.16q-.3-.648-.528-1.032l.888-.144q.216.456.48,1.176h3.876v.72H60.06v.816h3.372v.672H60.06V-5.7h3.372v.672H60.06v.852H64.1v.732h-8.82Zm3.924,2.64v-.852h-3.12v.852Zm0-1.524v-.792h-3.12V-5.7Zm0-1.464V-7.98h-3.06l-.06.1v.72Zm14.724.756h4.032V-7.872h.828v1.464H80.28v.78H78.792v3.636q0,1.068-1.02,1.068H76.4l-.18-.8q.744.06,1.26.06.48,0,.48-.54v-3.3a10.413,10.413,0,0,1-3.78,3.792l-.456-.768a9.238,9.238,0,0,0,3.564-3.144h-3.36ZM81.9-9.276V1.212h-.84V.672H73.02v.54h-.84V-9.276ZM73.02-.12h8.04V-8.484H73.02ZM94.356-9.852h.888v2.16h4.308v5.64h-.864v-.756H95.244V1.284h-.888V-2.808H90.924v.756H90.06v-5.64h4.3Zm-3.432,6.2h3.432v-3.2H90.924Zm4.32,0h3.444v-3.2H95.244Zm14.34-3.7h5.94v.78H113v1.728h2.148v.768H113V-2.16h2.868v.792H109.26V-2.16h2.856V-4.068h-2.148v-.768h2.148V-6.564h-2.532Zm7.908-1.908V1.176h-.876V.66H108.5v.516h-.876V-9.252ZM108.5-.156h8.112v-8.28H108.5Zm5.916-3.66a7.84,7.84,0,0,1,.78,1.32l-.672.312a7.438,7.438,0,0,0-.792-1.4Z" transform="translate(221 157)"/>
    <rect id="矩形_2460" data-name="矩形 2460" class="cls-1" width="119" height="0.5" transform="translate(221 161)"/>
    <path id="路径_3347" data-name="路径 3347" class="cls-1" d="M3.744-8.736a3.534,3.534,0,0,1,2.28.66,2.834,2.834,0,0,1,.984,2.04H6.036a2.157,2.157,0,0,0-.72-1.38A2.521,2.521,0,0,0,3.7-7.872a2.9,2.9,0,0,0-1.488.312A1.184,1.184,0,0,0,1.6-6.468a1.179,1.179,0,0,0,.732,1.044,9.221,9.221,0,0,0,1.572.54,11.548,11.548,0,0,1,2.232.828A2.018,2.018,0,0,1,7.2-2.244,2.071,2.071,0,0,1,6.3-.468,4.16,4.16,0,0,1,3.876.168,3.88,3.88,0,0,1,1.5-.48,3.073,3.073,0,0,1,.384-2.832h.972a2.379,2.379,0,0,0,.78,1.644,2.763,2.763,0,0,0,1.74.48,3.237,3.237,0,0,0,1.7-.4,1.214,1.214,0,0,0,.648-1.08,1.393,1.393,0,0,0-.852-1.26,10.956,10.956,0,0,0-1.812-.624,13.737,13.737,0,0,1-1.968-.7A1.819,1.819,0,0,1,.612-6.42,1.954,1.954,0,0,1,1.56-8.16,3.822,3.822,0,0,1,3.744-8.736ZM7.284-6.2H8.328l1.9,4.9L12.06-6.2h1.056l-3.4,8.58H8.676L9.744-.144Zm9.18-.168q2.316,0,2.316,2.556V0h-.96V-3.744q0-1.812-1.632-1.812a1.524,1.524,0,0,0-1.116.468,2.029,2.029,0,0,0-.552,1.344V0h-.96V-6.2h.96v.912a2.121,2.121,0,0,1,.828-.792A2.209,2.209,0,0,1,16.464-6.372Zm6,0a2.237,2.237,0,0,1,2.088,1.236V-6.2h.96V-.432q0,2.976-2.832,2.976a3.09,3.09,0,0,1-1.92-.5A2.283,2.283,0,0,1,19.932.528h.96a1.327,1.327,0,0,0,.528.924,2.1,2.1,0,0,0,1.26.312q1.872,0,1.872-2.064V-1.392A2.234,2.234,0,0,1,22.464-.144a2.555,2.555,0,0,1-2.052-.888,3.235,3.235,0,0,1-.744-2.208,3.253,3.253,0,0,1,.744-2.22A2.525,2.525,0,0,1,22.464-6.372Zm.144.792a1.725,1.725,0,0,0-1.452.672,2.546,2.546,0,0,0-.5,1.668,2.622,2.622,0,0,0,.444,1.6,1.752,1.752,0,0,0,1.5.7A1.806,1.806,0,0,0,24.06-1.6a2.567,2.567,0,0,0,.5-1.644,2.546,2.546,0,0,0-.5-1.668A1.745,1.745,0,0,0,22.608-5.58ZM29.2-6.372a2.641,2.641,0,0,1,2.256,1.008,4.27,4.27,0,0,1,.72,2.532h-4.9a2.682,2.682,0,0,0,.564,1.62,1.753,1.753,0,0,0,1.392.576,1.917,1.917,0,0,0,1.236-.384,2.178,2.178,0,0,0,.624-.972h.96a2.86,2.86,0,0,1-.84,1.464,2.891,2.891,0,0,1-1.98.7A2.76,2.76,0,0,1,27.1-.708a3.409,3.409,0,0,1-.816-2.4A3.374,3.374,0,0,1,27.06-5.4,2.611,2.611,0,0,1,29.2-6.372Zm.024.8a1.736,1.736,0,0,0-1.332.54A2.433,2.433,0,0,0,27.3-3.576h3.876Q31-5.568,29.22-5.568Zm6.624-.8q2.316,0,2.316,2.556V0H37.2V-3.744q0-1.812-1.632-1.812a1.524,1.524,0,0,0-1.116.468A2.029,2.029,0,0,0,33.9-3.744V0h-.96V-6.2h.96v.912a2.121,2.121,0,0,1,.828-.792A2.209,2.209,0,0,1,35.844-6.372Zm5.1-1.836v2H42.48v.8H40.944v3.948a.7.7,0,0,0,.132.492.571.571,0,0,0,.456.156h.792V0h-.936A1.337,1.337,0,0,1,40.3-.4,1.584,1.584,0,0,1,40-1.452V-5.4H38.748v-.8H40V-7.812Zm4.944,1.836a2.564,2.564,0,0,1,1.968.7,2.462,2.462,0,0,1,.552,1.692V0h-.9V-1.044a2.873,2.873,0,0,1-.96.84,3.252,3.252,0,0,1-1.536.372,2.189,2.189,0,0,1-1.488-.48,1.634,1.634,0,0,1-.576-1.308A1.841,1.841,0,0,1,43.9-3.348,4.028,4.028,0,0,1,45.96-3.8l1.488-.012v-.2q0-1.56-1.62-1.56a1.939,1.939,0,0,0-1.176.312,1.393,1.393,0,0,0-.576.96h-.948a2.145,2.145,0,0,1,.912-1.584A3.129,3.129,0,0,1,45.888-6.372Zm1.56,3.312-1.428.012q-2.088,0-2.088,1.416a.935.935,0,0,0,.336.744,1.486,1.486,0,0,0,.948.276,2.344,2.344,0,0,0,1.6-.576,1.751,1.751,0,0,0,.636-1.332Zm9.5-5.676a3.872,3.872,0,0,1,2.556.78A3.316,3.316,0,0,1,60.636-5.82h-.984a2.418,2.418,0,0,0-.864-1.488,2.869,2.869,0,0,0-1.836-.552,2.753,2.753,0,0,0-2.22.984,3.929,3.929,0,0,0-.816,2.628,3.832,3.832,0,0,0,.792,2.556,3.133,3.133,0,0,0,2.52,1,5.047,5.047,0,0,0,1.344-.192,3.894,3.894,0,0,0,1.08-.48V-3.552H56.964V-4.4h3.66V-.9a4.645,4.645,0,0,1-1.5.78,6.738,6.738,0,0,1-1.992.288,3.939,3.939,0,0,1-3.156-1.3,4.61,4.61,0,0,1-1.044-3.12,4.71,4.71,0,0,1,1.032-3.144A3.643,3.643,0,0,1,56.952-8.736Zm7.56,2.364a2.175,2.175,0,0,1,.852.144v.96A3.146,3.146,0,0,0,64.44-5.4a1.461,1.461,0,0,0-1.212.636,2.251,2.251,0,0,0-.492,1.476V0h-.948V-6.2h.948v1.08a2.172,2.172,0,0,1,.648-.852A1.749,1.749,0,0,1,64.512-6.372Zm4.068,0a2.761,2.761,0,0,1,2.22.96A3.4,3.4,0,0,1,71.592-3.1,3.4,3.4,0,0,1,70.812-.8,2.8,2.8,0,0,1,68.58.168,2.768,2.768,0,0,1,66.36-.8,3.342,3.342,0,0,1,65.568-3.1a3.4,3.4,0,0,1,.792-2.316A2.761,2.761,0,0,1,68.58-6.372Zm0,.8a1.775,1.775,0,0,0-1.536.756A2.831,2.831,0,0,0,66.552-3.1a2.81,2.81,0,0,0,.492,1.7,1.775,1.775,0,0,0,1.536.756,1.846,1.846,0,0,0,1.548-.756,2.877,2.877,0,0,0,.492-1.7,2.9,2.9,0,0,0-.492-1.716A1.846,1.846,0,0,0,68.58-5.568Zm3.9-.636h.96v3.792a1.956,1.956,0,0,0,.372,1.32,1.536,1.536,0,0,0,1.224.444,1.572,1.572,0,0,0,1.1-.48,2.193,2.193,0,0,0,.612-1.3V-6.2h.96V0h-.96V-.96A2.34,2.34,0,0,1,74.736.168q-2.256,0-2.256-2.532ZM81.8-6.372a2.52,2.52,0,0,1,2.112,1,3.626,3.626,0,0,1,.708,2.292,3.629,3.629,0,0,1-.7,2.268,2.5,2.5,0,0,1-2.076.984,2.246,2.246,0,0,1-2.052-1.3v3.5h-.96V-6.2h.9v1.02A2.215,2.215,0,0,1,81.8-6.372Zm-.12.792a1.655,1.655,0,0,0-1.452.732,2.846,2.846,0,0,0-.468,1.7v.12a2.672,2.672,0,0,0,.528,1.74,1.639,1.639,0,0,0,1.356.66,1.8,1.8,0,0,0,1.524-.7,2.958,2.958,0,0,0,.468-1.764A3.09,3.09,0,0,0,83.2-4.836,1.723,1.723,0,0,0,81.684-5.58Zm11.28-3.156a3.791,3.791,0,0,1,2.4.756,3.009,3.009,0,0,1,1.152,2.04h-.948a2.207,2.207,0,0,0-.912-1.44,2.929,2.929,0,0,0-1.7-.48,2.755,2.755,0,0,0-2.3,1.044,4.068,4.068,0,0,0-.756,2.568A3.949,3.949,0,0,0,90.636-1.7a2.755,2.755,0,0,0,2.292,1,2.817,2.817,0,0,0,1.74-.54,2.839,2.839,0,0,0,1.02-1.692h.948A3.687,3.687,0,0,1,95.292-.612a3.72,3.72,0,0,1-2.364.78,3.709,3.709,0,0,1-3.06-1.32,4.743,4.743,0,0,1-.96-3.1,4.811,4.811,0,0,1,.984-3.132A3.679,3.679,0,0,1,92.964-8.736Zm4.56,0h.96v3.552a2.184,2.184,0,0,1,.864-.9,2.233,2.233,0,0,1,1.128-.288,2.113,2.113,0,0,1,1.668.636,2.6,2.6,0,0,1,.576,1.824V0h-.96V-3.768a1.994,1.994,0,0,0-.408-1.332,1.552,1.552,0,0,0-1.2-.468,1.466,1.466,0,0,0-1.188.576,2.162,2.162,0,0,0-.48,1.452V0h-.96Zm7.1.192a.7.7,0,0,1,.516.2.62.62,0,0,1,.216.5.7.7,0,0,1-.216.516.753.753,0,0,1-.516.2.753.753,0,0,1-.516-.2.7.7,0,0,1-.2-.516.615.615,0,0,1,.2-.5A.7.7,0,0,1,104.628-8.544Zm-.48,2.34h.96V0h-.96Zm5.3-.168q2.316,0,2.316,2.556V0h-.96V-3.744q0-1.812-1.632-1.812a1.524,1.524,0,0,0-1.116.468,2.029,2.029,0,0,0-.552,1.344V0h-.96V-6.2h.96v.912a2.121,2.121,0,0,1,.828-.792A2.21,2.21,0,0,1,109.452-6.372Zm6.144,0a2.564,2.564,0,0,1,1.968.7,2.462,2.462,0,0,1,.552,1.692V0h-.9V-1.044a2.873,2.873,0,0,1-.96.84,3.252,3.252,0,0,1-1.536.372,2.189,2.189,0,0,1-1.488-.48,1.634,1.634,0,0,1-.576-1.308,1.841,1.841,0,0,1,.948-1.728,4.028,4.028,0,0,1,2.064-.456l1.488-.012v-.2q0-1.56-1.62-1.56a1.939,1.939,0,0,0-1.176.312,1.393,1.393,0,0,0-.576.96h-.948a2.145,2.145,0,0,1,.912-1.584A3.129,3.129,0,0,1,115.6-6.372Zm1.56,3.312-1.428.012q-2.088,0-2.088,1.416a.935.935,0,0,0,.336.744,1.486,1.486,0,0,0,.948.276,2.344,2.344,0,0,0,1.6-.576,1.751,1.751,0,0,0,.636-1.332Z" transform="translate(221 140)"/>
    <g id="组_4134" data-name="组 4134" class="cls-2" transform="translate(-54.978 -756.706)">
      <g id="组_4123" data-name="组 4123" transform="translate(310.294 923.541)">
        <path id="路径_3198" data-name="路径 3198" class="cls-1" d="M323.279,923.541c-1.191.128-1.559.622-1.347,1.366.324-.13.633.068.931-.241C323.141,924.378,323.016,923.978,323.279,923.541Z" transform="translate(-315.23 -923.541)"/>
        <g id="组_4122" data-name="组 4122" transform="translate(0 0.904)">
          <path id="路径_3199" data-name="路径 3199" class="cls-1" d="M320.426,927.112a.361.361,0,0,0-.012.285.532.532,0,0,0,.385.346,1.7,1.7,0,0,0,.5.056,1.285,1.285,0,0,0,.321-.046.772.772,0,0,0,.587-.568.616.616,0,0,0,.01-.08.484.484,0,0,0,0-.088.508.508,0,0,0-.453-.5,3.2,3.2,0,0,0-.465-.02c-.118,0-.207,0-.222,0-.192-.038-.224-.222-.027-.288a1.168,1.168,0,0,0,.249.024.737.737,0,0,0,.706-.32.677.677,0,0,0,.054-.368c-.034-.28-.3-.422-.729-.434-.012,0-.022,0-.031,0a1.032,1.032,0,0,0-.485.112.476.476,0,0,0-.268.329.463.463,0,0,0,.206.534,1.169,1.169,0,0,0-.185.116.6.6,0,0,0-.144.235.313.313,0,0,0,.022.224.475.475,0,0,0,.215.213A.551.551,0,0,0,320.426,927.112Zm.875-1.7a.263.263,0,1,1-.263.263A.262.262,0,0,1,321.3,925.413Zm-.3,1.537h.521a.188.188,0,0,1,.166.227c-.028.142-.146.251-.385.265h-.042c-.165,0-.437-.056-.438-.241A.273.273,0,0,1,321,926.951Z" transform="translate(-315.071 -924.614)"/>
          <path id="路径_3200" data-name="路径 3200" class="cls-1" d="M326.826,926.3c0,.57.547.567.991.48l-.031-.347c-.271.036-.424.015-.424-.23v-.778h.472v-.339h-.472v-.527l-.536.154v.372h-.255v.339h.255Z" transform="translate(-315.733 -924.554)"/>
          <path id="路径_3201" data-name="路径 3201" class="cls-1" d="M322.618,926.6a.828.828,0,0,0,.548.285.883.883,0,0,0,.122.006,1.69,1.69,0,0,0,.76-.2l-.141-.321a.835.835,0,0,1-.592.124.093.093,0,0,0-.027-.005.332.332,0,0,1-.288-.378h1.115c.04-.551-.116-.974-.76-1h-.068a.885.885,0,0,0-.489.173.864.864,0,0,0-.356.585c0,.027,0,.056-.005.083,0,.044,0,.086,0,.124A.856.856,0,0,0,322.618,926.6Zm.671-1.123h.046a.25.25,0,0,1,.24.3H323A.32.32,0,0,1,323.289,925.472Z" transform="translate(-315.29 -924.613)"/>
          <path id="路径_3202" data-name="路径 3202" class="cls-1" d="M328.4,926.833a.853.853,0,0,0,.461-.008.758.758,0,0,0,.237-.113v.132h.506v-1.229c0-.336-.295-.555-.743-.523a1.863,1.863,0,0,0-.689.206l.134.317a1.014,1.014,0,0,1,.555-.16.251.251,0,0,1,.237.289,2.2,2.2,0,0,0-.237.006c-.412.031-.655.18-.741.44A.47.47,0,0,0,328.4,926.833Zm.461-.756a1.413,1.413,0,0,1,.237-.005v.29a.321.321,0,0,1-.237.146.2.2,0,0,1-.236-.155C328.611,926.2,328.66,926.1,328.862,926.076Z" transform="translate(-315.896 -924.611)"/>
          <path id="路径_3203" data-name="路径 3203" class="cls-1" d="M316.726,927.078c-.093.213-.2.371-.6.276l-.014.058-.069.278c.022.008.046.013.069.021a.827.827,0,0,0,1.062-.474l.873-2.1h-.5l-.419,1.1-.375-1.1H316.2l.634,1.709Z" transform="translate(-314.604 -924.617)"/>
          <path id="路径_3204" data-name="路径 3204" class="cls-1" d="M325.217,928.633a2.079,2.079,0,0,1,.728.461l.417-.461a1.764,1.764,0,0,0-.782-.4Z" transform="translate(-315.588 -924.949)"/>
          <path id="路径_3205" data-name="路径 3205" class="cls-1" d="M327.181,932.047c-.554,0-.861-.258-.861-.638V929.23h-1.259v.388h.368l0,1.362c0,.9-.062,1.222-.529,1.46l.164.279a1.921,1.921,0,0,0,1.034-.578,1.992,1.992,0,0,0,1.719.575h1.576v-.672h-.87Z" transform="translate(-315.554 -925.055)"/>
          <path id="路径_3206" data-name="路径 3206" class="cls-1" d="M325.087,925.663c.2-.225.567-.175.567.021v1.164h.524v-1.263c0-.5-.629-.6-1.091-.3v-.154h-.517v1.713h.517Z" transform="translate(-315.519 -924.614)"/>
          <path id="路径_3207" data-name="路径 3207" class="cls-1" d="M328.787,929.947l-.081.028-.277.1a2.244,2.244,0,0,0,.024-.41v-.158h1v-.388h-1v-.894l-.964.275v.62h-.845v.388h.843l0,.248a1.706,1.706,0,0,1-.848,1.649l.161.281a2.577,2.577,0,0,0,1.335-.9,1.77,1.77,0,0,0,.578.658,2.359,2.359,0,0,0,.729.327l.146-.242.024-.039-.024-.017A2.157,2.157,0,0,1,328.787,929.947Z" transform="translate(-315.74 -924.948)"/>
          <path id="路径_3208" data-name="路径 3208" class="cls-1" d="M317.736,931.629v-1.062h.913v-.387h-1.519v-.8h1.375v-.39h-1.37v-.762l-.975.275v.487h-.626v-.47h-.761v.682a.666.666,0,0,1-.343.689l.262.2a1.128,1.128,0,0,0,.785-.714h.679v.8h-1.634v.387h.988v.614a1.138,1.138,0,0,1-.895,1.125l.169.285a2.937,2.937,0,0,0,1.148-.387,1.237,1.237,0,0,0,.528-1.109v-.529h.322l0,1.378c0,.355.384.666,1.126.666a1.122,1.122,0,0,0,1.014-.565l-.227-.237C318.428,932.134,317.736,932.156,317.736,931.629Z" transform="translate(-314.432 -924.948)"/>
          <path id="路径_3209" data-name="路径 3209" class="cls-1" d="M322.765,932.245v-1.45h1.026v-.4h-1.026v-.957h1.064v-.385h-3.8v.385h1.784v2.8h-.453v-2.256l-.11.029-.812.231v2h-.543v.387H323.9v-.387h-1.135Z" transform="translate(-315.017 -925.036)"/>
          <path id="路径_3210" data-name="路径 3210" class="cls-1" d="M315.362,926.475a1.03,1.03,0,0,1-.648-.111l-.149.344a1.428,1.428,0,0,0,1.192.02.583.583,0,0,0,.193-.189.523.523,0,0,0,.068-.311.564.564,0,0,0-.068-.24c-.207-.363-.8-.19-.8-.437s.494-.127.63-.072l.142-.345c-.517-.133-1.287-.174-1.308.5-.015.48.57.5.786.57C315.53,926.249,315.5,926.453,315.362,926.475Z" transform="translate(-314.446 -924.608)"/>
          <path id="路径_3211" data-name="路径 3211" class="cls-1" d="M320.005,926.849v-1.263c0-.5-.626-.6-1.089-.3v-.154H318.4v1.713h.516v-1.186c.2-.225.568-.175.568.021v1.164Z" transform="translate(-314.857 -924.614)"/>
        </g>
      </g>
      <g id="组_4124" data-name="组 4124" transform="translate(275.821 925)">
        <path id="路径_3212" data-name="路径 3212" class="cls-1" d="M276.7,930.263a.177.177,0,0,1-.13.137.211.211,0,0,1-.205-.07.668.668,0,0,1-.153-.309.725.725,0,0,1-.018-.354.209.209,0,0,1,.155-.171l.056.221a.151.151,0,0,0-.069.059.321.321,0,0,0,0,.2.615.615,0,0,0,.046.129c.032.061.07.086.114.074a.064.064,0,0,0,.045-.062.636.636,0,0,0,0-.159l-.011-.122a.991.991,0,0,1,0-.253.177.177,0,0,1,.137-.152.2.2,0,0,1,.2.063.611.611,0,0,1,.149.3.658.658,0,0,1,.012.312.225.225,0,0,1-.154.177l-.056-.221a.119.119,0,0,0,.075-.112.481.481,0,0,0-.018-.137.362.362,0,0,0-.061-.137.076.076,0,0,0-.082-.036c-.027.007-.043.029-.046.069a1.057,1.057,0,0,0,.006.151l.017.2a.672.672,0,0,1-.008.2m.494.175-.668.424.126.2.67-.424Zm.776.911-.379.393.057-.7-.177-.172-.551.57.158.152.387-.4-.055.721.17.162.549-.57Zm.933.924a.253.253,0,0,0-.005-.22.329.329,0,0,0-.182-.147.339.339,0,0,0-.234-.01.251.251,0,0,0-.15.163.257.257,0,0,0,.006.22.318.318,0,0,0,.184.147.323.323,0,0,0,.233.011.254.254,0,0,0,.148-.163m-.138-.5a.616.616,0,0,1,.312.216.356.356,0,0,1,.046.363.363.363,0,0,1-.272.245.782.782,0,0,1-.694-.261.361.361,0,0,1-.046-.363.353.353,0,0,1,.274-.242.63.63,0,0,1,.379.042m1.352.8a.257.257,0,0,1-.18.069.3.3,0,0,1-.2-.055.26.26,0,0,1-.087-.2.275.275,0,0,1,.063-.209.265.265,0,0,1,.195-.084.288.288,0,0,1,.188.042.2.2,0,0,1,.061.082l.235-.014a.234.234,0,0,0-.084-.139.555.555,0,0,0-.417-.109.577.577,0,0,0-.342.116.363.363,0,0,0-.138.324.369.369,0,0,0,.152.293.6.6,0,0,0,.383.087.557.557,0,0,0,.315-.1.343.343,0,0,0,.142-.218l-.233.013a.207.207,0,0,1-.055.095m1.061-.993.134.271-.392.194-.134-.27-.211.106.354.707.212-.105-.158-.316.392-.2.158.317.21-.106-.354-.708Zm1.089-.015-.154-.136.356-.4-.1-.092-.355.4-.127-.113.387-.439-.1-.093-.541.611.594.526.559-.633-.105-.091Zm.56-1.859.514.153.063-.211-.758-.225-.1.325.539.373-.657.02-.1.33.759.226.063-.212-.514-.152-.062-.018-.062-.016.7-.016.066-.221-.577-.394c.017,0,.036.012.063.019l.061.019m-3.944-3a2.564,2.564,0,0,0-1.678,2.4h5.126a2.562,2.562,0,0,0-1.675-2.4v-1.042h0l.3-.3h-2.376l.3.3v.832l0,0v.21m.879,6.153a3.755,3.755,0,0,0,3.746-3.549h-1a2.759,2.759,0,0,1-5.5,0h-.992a3.749,3.749,0,0,0,3.744,3.549m2.758-3.746h1.191a3.944,3.944,0,0,1-7.889,0H277v0a2.759,2.759,0,0,1,1.68-2.538v-.81l-.4-.4v-.2h2.958v.2l-.393.394v.818a2.759,2.759,0,0,1,1.667,2.534Z" transform="translate(-275.821 -925.175)"/>
        <path id="路径_3213" data-name="路径 3213" class="cls-1" d="M298.867,927.113h-.949v.327l.01.359h-.6l.012-.37v-.561l-.012-.321.493.017h1.171c.011-.054.021-.109.03-.166s.016-.13.021-.22l.008-.125a5.592,5.592,0,0,0,.629.028c-.008.066-.016.131-.023.2s-.026.161-.053.286h1.243l.436-.012-.012.363v.479l.012.411h-.607l.012-.411v-.28h-1.2l-.11.345a4.06,4.06,0,0,0,.509.024c.018.145.038.29.061.434a2.561,2.561,0,0,0,.095.4l.046.147a3.372,3.372,0,0,0,.314-.237,2.162,2.162,0,0,0,.3-.355c.055.071.107.135.155.187s.148.147.3.286a8.137,8.137,0,0,1-.827.608,1.672,1.672,0,0,0,.09.154,1.809,1.809,0,0,0,.251.252,2.023,2.023,0,0,0,.4.28,1.835,1.835,0,0,0,.48.154,2.314,2.314,0,0,0-.122.2,3.579,3.579,0,0,0-.166.434,4.754,4.754,0,0,1-.875-.513,2.106,2.106,0,0,1-.694-.925,3.933,3.933,0,0,1-.3-1.057l-.051-.394a5.254,5.254,0,0,1-.279.549l-.131.21v1.4a5.168,5.168,0,0,0,.579-.462l.091-.1c.033.093.063.166.087.22s.073.153.147.294c-.11.1-.192.174-.246.221l-.823.684-.161.148c-.117-.223-.2-.364-.233-.422l-.115-.17a.577.577,0,0,0,.066-.089.209.209,0,0,0,.033-.081,1.133,1.133,0,0,0,.008-.179v-.779a6.974,6.974,0,0,1-.583.521l-.337.263c-.046-.08-.08-.135-.1-.167s-.117-.147-.287-.353q.264-.155.6-.382a2.928,2.928,0,0,0,.67-.686,2.882,2.882,0,0,0,.455-.834Zm-7.99,1.346h-1.065v-.853h1.065Zm-2.747-.853h1.041v.852H288.13Zm-.628,1.521h.639l-.012-.075h1.041v.969l-.02.558h.68l-.02-.558v-.969h1.065l-.008.081h.656l-.016-.578v-1.066l.016-.483-.512.019h-1.2v-.3l.02-.589h-.68l.02.589v.3H288l-.5-.019.014.483v1.066Zm6.709-1.045a4.126,4.126,0,0,1-.513.116l.087.15a3.112,3.112,0,0,1,.166.465c.141-.046.3-.1.47-.163v1.413a1.1,1.1,0,0,0,.014.164c.008.057.066.126.171.2a1.308,1.308,0,0,0,.67.119,4.412,4.412,0,0,0,.7-.029.678.678,0,0,0,.362-.166.713.713,0,0,0,.195-.337c.037-.138.064-.251.08-.337s.029-.174.046-.262a1.957,1.957,0,0,1-.436-.1c-.074-.034-.138-.066-.192-.1l0,.163c0,.005-.005.039-.012.1a1.517,1.517,0,0,1-.03.182.373.373,0,0,1-.127.18.587.587,0,0,1-.38.095c-.25,0-.388-.016-.415-.049a.243.243,0,0,1-.04-.152v-1.352a9.771,9.771,0,0,0,.975-.551l.386-.254.114-.068a2.64,2.64,0,0,1-.429-.526,5.791,5.791,0,0,1-.492.413,6.232,6.232,0,0,1-.554.335v-1.09l.017-.461H294.4l.015.461v1.358l-.209.075m-.354-1.7a3.38,3.38,0,0,1-.605-.307l-.07.242a3.934,3.934,0,0,1-.152.409,5.665,5.665,0,0,1-.319.631,1.737,1.737,0,0,1-.376.494c-.116.09-.21.159-.282.21a3.569,3.569,0,0,1,.353.62,2.8,2.8,0,0,0,.291-.285c.058-.069.116-.145.177-.225v1.763l-.018.642h.6l-.016-.642v-2.1l.016-.418h-.083l.11-.2c.062-.115.188-.391.377-.83m8.617,3.935h3.29l.57.017v-.593l-.57.019h-.818v-.616a3.79,3.79,0,0,1,.384.279c.134-.263.231-.462.294-.6s.136-.312.217-.525.148-.4.2-.564.113-.376.182-.637c-.254-.058-.464-.113-.628-.165l-.064.322c-.031.155-.076.33-.136.527s-.12.373-.181.528-.108.266-.139.336-.075.157-.129.262v-2.062l.017-.587h-.633l.017.587v2.918h-.412v-2.925l.017-.587h-.634l.016.587V928.9l-.038-.164c-.009-.035-.045-.149-.108-.342L303.06,928c-.03-.082-.093-.259-.193-.529s-.172-.467-.218-.591l-.16.087a2.4,2.4,0,0,1-.406.148l.155.39c.054.135.121.33.2.585s.2.639.342,1.153l.168-.105a3.371,3.371,0,0,1,.381-.18v.81h-.861l-.5-.019v.593Z" transform="translate(-277.073 -925.269)"/>
        <path id="路径_3214" data-name="路径 3214" class="cls-1" d="M288.128,932.259a.159.159,0,0,0-.065-.12.26.26,0,0,0-.156-.043.2.2,0,0,0-.131.037.119.119,0,0,0-.047.1.082.082,0,0,0,.048.073,1.146,1.146,0,0,0,.207.061.767.767,0,0,1,.307.119.265.265,0,0,1,.078.213.279.279,0,0,1-.117.235.523.523,0,0,1-.316.087.477.477,0,0,1-.312-.093.34.34,0,0,1-.12-.262h.212a.164.164,0,0,0,.061.128.247.247,0,0,0,.159.045.33.33,0,0,0,.164-.033.106.106,0,0,0,.059-.095.1.1,0,0,0-.043-.087.555.555,0,0,0-.176-.057.911.911,0,0,1-.334-.122.234.234,0,0,1-.085-.2.3.3,0,0,1,.111-.243.469.469,0,0,1,.3-.089.428.428,0,0,1,.287.094.344.344,0,0,1,.124.251Zm.389-.316v1.05h.22v-1.05h-.22Zm.619,1.05v-.755l.433.755h.219v-1.05h-.205v.737l-.421-.737h-.23v1.05h.205Zm1.531-.252a.281.281,0,0,1-.42,0,.432.432,0,0,1-.076-.269.444.444,0,0,1,.076-.273.276.276,0,0,1,.42,0,.443.443,0,0,1,.076.273.431.431,0,0,1-.076.269m-.578.134a.535.535,0,0,0,.737,0,.569.569,0,0,0,.137-.4.59.59,0,0,0-.137-.409.526.526,0,0,0-.737,0,.594.594,0,0,0-.137.409.573.573,0,0,0,.137.4m1.939-.249h-.22a.227.227,0,0,1-.072.151.232.232,0,0,1-.161.055.227.227,0,0,1-.192-.095.45.45,0,0,1-.069-.265.46.46,0,0,1,.07-.27.226.226,0,0,1,.191-.1.248.248,0,0,1,.161.051.2.2,0,0,1,.072.135h.22a.4.4,0,0,0-.144-.273.473.473,0,0,0-.311-.1.444.444,0,0,0-.352.151.609.609,0,0,0-.13.409.586.586,0,0,0,.13.4.447.447,0,0,0,.352.147.456.456,0,0,0,.312-.107.429.429,0,0,0,.142-.289m.16-.683v1.05h.22v-.474h.411v.474h.22v-1.05h-.22v.395h-.411v-.395h-.22Zm1.065,1.05h.8v-.186h-.579v-.274h.514v-.18h-.514v-.224h.554v-.187h-.774Zm1.171,0v-.9h0l.2.9h.215l.2-.884v.884h.205v-1.05h-.317l-.188.833-.193-.833h-.321v1.05h.205Zm1.707-.394.139-.422.139.422Zm.015-.656-.372,1.05H296l.069-.213h.4l.07.213h.233l-.372-1.05h-.254Zm1.22,1.079h0a.355.355,0,0,0,.3-.147l.012-.018.021.136h.147v-.566h-.441v.18h.249v0a.392.392,0,0,1-.059.129.233.233,0,0,1-.2.1h0a.279.279,0,0,1-.227-.093.419.419,0,0,1-.078-.273.425.425,0,0,1,.08-.274.276.276,0,0,1,.225-.1.243.243,0,0,1,.151.053.178.178,0,0,1,.079.12h.219a.371.371,0,0,0-.146-.258.5.5,0,0,0-.315-.1.488.488,0,0,0-.378.151.661.661,0,0,0-.005.81.468.468,0,0,0,.364.147m.906-.62v-.279h.264a.177.177,0,0,1,.121.035.13.13,0,0,1,.041.1.125.125,0,0,1-.043.1.2.2,0,0,1-.128.036Zm-.219-.46v1.05h.219v-.414h.219a.23.23,0,0,1,.134.029.12.12,0,0,1,.042.1l0,.1a.944.944,0,0,0,.007.116.268.268,0,0,0,.014.07h.243v-.028a.069.069,0,0,1-.036-.035.21.21,0,0,1-.011-.073l-.005-.171a.2.2,0,0,0-.093-.179.159.159,0,0,0-.036-.017.275.275,0,0,0,.063-.033.248.248,0,0,0,.1-.221.268.268,0,0,0-.092-.212.355.355,0,0,0-.242-.08h-.529Zm1.039,0v1.05h.219v-1.05h-.219Zm1.314.683h-.22a.218.218,0,0,1-.232.206.228.228,0,0,1-.193-.095.451.451,0,0,1-.069-.265.46.46,0,0,1,.07-.27.226.226,0,0,1,.192-.1.247.247,0,0,1,.16.051.2.2,0,0,1,.072.135h.22a.4.4,0,0,0-.144-.273.472.472,0,0,0-.311-.1.443.443,0,0,0-.352.151.6.6,0,0,0-.13.409.582.582,0,0,0,.13.4.446.446,0,0,0,.352.147.455.455,0,0,0,.313-.107.432.432,0,0,0,.142-.289m1.011-.028v-.655h-.22v.662a.258.258,0,0,1-.047.174.21.21,0,0,1-.158.052.2.2,0,0,1-.154-.058.243.243,0,0,1-.051-.168v-.662h-.219v.655a.371.371,0,0,0,.424.424.454.454,0,0,0,.326-.1.447.447,0,0,0,.1-.325m.215.395h.741v-.186h-.522v-.864h-.219Zm1.121-.863v.863h.22v-.863h.317v-.187h-.855v.187Zm1.51.469v-.655h-.22v.662a.257.257,0,0,1-.047.174.2.2,0,0,1-.156.052.193.193,0,0,1-.154-.058.239.239,0,0,1-.051-.168v-.662h-.219v.655a.37.37,0,0,0,.424.424.453.453,0,0,0,.325-.1.447.447,0,0,0,.1-.325m.435-.2v-.279h.264a.177.177,0,0,1,.121.035.129.129,0,0,1,.04.1.123.123,0,0,1-.043.1.2.2,0,0,1-.128.036Zm-.219-.46v1.05h.219v-.414h.22a.231.231,0,0,1,.133.029.118.118,0,0,1,.042.1l0,.1a1.15,1.15,0,0,0,.007.116.226.226,0,0,0,.015.07h.242v-.028a.068.068,0,0,1-.036-.035.209.209,0,0,1-.011-.073l-.005-.171a.2.2,0,0,0-.093-.179.168.168,0,0,0-.035-.017.252.252,0,0,0,.163-.254.27.27,0,0,0-.091-.212.354.354,0,0,0-.242-.08h-.529Zm1.057,0v1.05h.8v-.186h-.579v-.273h.513v-.18h-.513v-.224h.553v-.187Z" transform="translate(-277.073 -925.897)"/>
      </g>
      <g id="组_4127" data-name="组 4127" transform="translate(359.763 925.132)">
        <path id="路径_3215" data-name="路径 3215" class="cls-1" d="M385.2,927.46a2.75,2.75,0,0,1-1.391,2.279,1.96,1.96,0,0,1-.282-.2c-.126-.1-.213-.165-.263-.2a2.212,2.212,0,0,0,1.391-1.874h-.206a2.444,2.444,0,0,1-.978,1.544,2.267,2.267,0,0,0-.508-.387,1.454,1.454,0,0,0,.882-1.028.588.588,0,0,1-.19.128l-.229-.61a3.4,3.4,0,0,0,1.322-.916h-1.278v-.5h2.32v.508h-.278a4.89,4.89,0,0,1-.764.778h1.222c-.013.2-.031.484-.056.864-.038.587-.069,1.029-.094,1.323q-.019.331-.188.4a2.214,2.214,0,0,1-.827.165,3.468,3.468,0,0,0-.188-.514.309.309,0,0,1-.019-.074q.7.037.658-.238.019-.423.056-1.029c.012-.2.019-.337.019-.422Zm-2.82-1.893h.489a.351.351,0,0,1,.131.036.14.14,0,0,1-.019.055.679.679,0,0,0-.037.221v.551h.508v.514h-.508v.441l.17-.054a2.308,2.308,0,0,1,.262-.074c.013.246.019.4.019.478a2.826,2.826,0,0,1-.451.2v1.3c0,.184-.056.3-.169.349a1.25,1.25,0,0,1-.647.073.55.55,0,0,1-.037-.11,1.914,1.914,0,0,0-.15-.422.754.754,0,0,0,.346-.019c.05-.013.075-.067.075-.165v-.772a2.691,2.691,0,0,0-.263.092,2.517,2.517,0,0,1-.263.092c-.037-.11-.095-.281-.17-.514a.3.3,0,0,1-.019-.092,4.94,4.94,0,0,0,.733-.2v-.607h-.62v-.514h.62v-.863Z" transform="translate(-371.105 -925.349)"/>
        <g id="组_4125" data-name="组 4125" transform="translate(17.974 0.63)">
          <path id="路径_3216" data-name="路径 3216" class="cls-1" d="M391.509,928.989v-1.253l-.6.563v.695a.608.608,0,0,1-.271.5c.125.251.236.463.287.576a11.553,11.553,0,0,1,1.337-.815c0-.012-.271-.612-.271-.612Z" transform="translate(-390.043 -926.211)"/>
          <path id="路径_3217" data-name="路径 3217" class="cls-1" d="M392.926,928.2a4.252,4.252,0,0,1,.771-.527q.038-.037-.546-.451c-.012,0-.05.031-.112.094a4.018,4.018,0,0,1-.413.395,1.821,1.821,0,0,1-.207-.5l-.487.246a3.333,3.333,0,0,0,1.785,2.118,4.414,4.414,0,0,1,.47-.546A3.328,3.328,0,0,1,392.926,928.2Z" transform="translate(-390.181 -926.154)"/>
          <path id="路径_3218" data-name="路径 3218" class="cls-1" d="M392.589,926.028h-2.617V927.1h.543l.039-.037v-.527h2.425v.507h.62v-1.015Z" transform="translate(-389.971 -926.028)"/>
        </g>
        <path id="路径_3219" data-name="路径 3219" class="cls-1" d="M399.113,925.52h.281c.238,0,.357.018.357.054v.073a1.3,1.3,0,0,0-.019.22v1.373a3.582,3.582,0,0,0,.734-1.1c.087.037.206.091.357.164.237.11.351.171.337.183a.931.931,0,0,0-.112.165,6,6,0,0,1-1.335,1.354v.915c0,.146.062.22.188.22h.583c.125.037.181-.129.169-.494a2.6,2.6,0,0,0,.658.2,1.289,1.289,0,0,1-.207.659c-.062.11-.206.158-.432.146h-1.146q-.414.018-.413-.4v-.879a1.385,1.385,0,0,1-.471.274,4.111,4.111,0,0,0-.3-.476,2.67,2.67,0,0,0,.771-.476V925.52Zm-1.391,4.21v-2.2a2.55,2.55,0,0,1-.433.549,3.2,3.2,0,0,0-.357-.4l.038-.037a4.892,4.892,0,0,0,.583-.9,4.977,4.977,0,0,0,.413-1.189l.019-.073a3.984,3.984,0,0,0,.545.2l.169.073q-.319.623-.413.787v3.185Z" transform="translate(-372.744 -925.34)"/>
        <path id="路径_3220" data-name="路径 3220" class="cls-1" d="M406.23,928.923v-2.331h-1.447v-.583h3.61v.583h-1.485v2.331h1.8v.564h-4.23v-.564Z" transform="translate(-373.553 -925.396)"/>
        <g id="组_4126" data-name="组 4126" transform="translate(10.805 5.099)">
          <path id="路径_3221" data-name="路径 3221" class="cls-1" d="M382.45,932.286l-.508-1.208h.379l.307.822.315-.822h.323l-.5,1.208v.579h-.315v-.579Z" transform="translate(-381.942 -931.039)"/>
          <path id="路径_3222" data-name="路径 3222" class="cls-1" d="M384.407,932.189l-.2-.762H384.2l-.218.762Zm-.928.677.54-1.787h.379l.524,1.787H384.6l-.113-.377H383.9l-.113.377Z" transform="translate(-382.107 -931.039)"/>
          <path id="路径_3223" data-name="路径 3223" class="cls-1" d="M386.156,932.865l-.581-1.488-.008.01v1.478h-.3v-1.788h.476l.565,1.411.008-.01v-1.4h.3v1.788Z" transform="translate(-382.299 -931.039)"/>
          <path id="路径_3224" data-name="路径 3224" class="cls-1" d="M387.77,932.2v-.3h.605v.9a.982.982,0,0,1-.33.058,2.468,2.468,0,0,1-.339.019q-.686-.048-.7-.908.017-.879.7-.937.7,0,.694.58h-.338a.264.264,0,0,0-.3-.3c-.274.005-.414.225-.42.656s.146.641.42.647a1.234,1.234,0,0,0,.283-.038c-.006.006,0,.006.016,0V932.2Z" transform="translate(-382.485 -931.034)"/>
          <path id="路径_3225" data-name="路径 3225" class="cls-1" d="M389.753,932.865l-.581-1.488-.008.01v1.478h-.3v-1.788h.476l.565,1.411.008-.01v-1.4h.3v1.788Z" transform="translate(-382.684 -931.039)"/>
          <path id="路径_3226" data-name="路径 3226" class="cls-1" d="M390.948,931.971c0,.432.127.647.379.647s.371-.215.371-.647-.124-.656-.371-.656-.379.218-.379.656Zm-.339,0q.025-.917.719-.937.686.02.71.937-.024.889-.71.908-.7-.019-.719-.908Z" transform="translate(-382.871 -931.034)"/>
          <path id="路径_3227" data-name="路径 3227" class="cls-1" d="M393.35,932.865l-.581-1.488-.008.01v1.478h-.3v-1.788h.476l.565,1.411.008-.01v-1.4h.3v1.788Z" transform="translate(-383.07 -931.039)"/>
          <path id="路径_3228" data-name="路径 3228" class="cls-1" d="M394.964,932.2v-.3h.605v.9a.978.978,0,0,1-.33.058,2.469,2.469,0,0,1-.339.019q-.686-.048-.7-.908.016-.879.7-.937.7,0,.694.58h-.338a.264.264,0,0,0-.3-.3c-.274.005-.414.225-.42.656s.146.641.42.647a1.234,1.234,0,0,0,.283-.038c-.006.006,0,.006.016,0V932.2Z" transform="translate(-383.256 -931.034)"/>
          <path id="路径_3229" data-name="路径 3229" class="cls-1" d="M397.872,931.653c-.012-.219-.112-.332-.3-.338-.183.012-.279.231-.291.656.012.419.108.635.291.647.195-.006.294-.119.3-.337h.349a.572.572,0,0,1-.649.6q-.624-.019-.64-.908.026-.908.64-.937a.586.586,0,0,1,.649.619Z" transform="translate(-383.549 -931.034)"/>
          <path id="路径_3230" data-name="路径 3230" class="cls-1" d="M398.6,932.865v-1.788h.324v.706h.582v-.706h.332v1.788h-.324v-.782h-.59v.782Z" transform="translate(-383.728 -931.039)"/>
          <path id="路径_3231" data-name="路径 3231" class="cls-1" d="M400.285,931.077h1.031v.3h-.7v.416h.649v.3h-.649v.473h.724v.3h-1.056v-1.788Z" transform="translate(-383.908 -931.039)"/>
          <path id="路径_3232" data-name="路径 3232" class="cls-1" d="M402.735,932.865h-.274l-.408-1.536-.008.01v1.526h-.308v-1.788h.541l.324,1.3h.008l.349-1.3h.516v1.788h-.308v-1.536l-.432,1.536Z" transform="translate(-384.064 -931.039)"/>
          <path id="路径_3233" data-name="路径 3233" class="cls-1" d="M404.323,932.865h-.332v-1.788h.332v1.788Z" transform="translate(-384.306 -931.039)"/>
          <path id="路径_3234" data-name="路径 3234" class="cls-1" d="M405.527,931.653c-.012-.219-.111-.332-.3-.338q-.274.019-.291.656.016.628.291.647c.194-.006.293-.119.3-.337h.349a.572.572,0,0,1-.648.6q-.624-.019-.641-.908.025-.908.641-.937a.586.586,0,0,1,.648.619Z" transform="translate(-384.369 -931.034)"/>
          <path id="路径_3235" data-name="路径 3235" class="cls-1" d="M407.071,932.189l-.208-.762h-.008l-.225.762Zm-.956.677.556-1.787h.391l.541,1.787h-.333l-.116-.377h-.607l-.117.377Z" transform="translate(-384.533 -931.039)"/>
          <path id="路径_3236" data-name="路径 3236" class="cls-1" d="M407.968,932.865v-1.788h.324v1.488h.665v.3Z" transform="translate(-384.732 -931.039)"/>
        </g>
        <path id="路径_3237" data-name="路径 3237" class="cls-1" d="M379.7,927.122l-3.536-.021-.128.287Zm.237-.287-3.644-.021-.129.287Zm-3.387-.6-.129.286,3.988-.266Zm3.624.308-3.753-.021-.129.288Zm-3.5-.575h-.706l-2.213,5.719,2.405-.261-1.7-.052,1.938-.236-1.817-.05,2.053-.237-1.933-.047,2.169-.239-2.052-.046,2.288-.242-2.172-.043,2.409-.245-2.3-.04,2.532-.246-2.421-.038,2.657-.249-2.548-.035,2.785-.253-2.678-.032,2.915-.254-2.811-.03,3.047-.257-2.946-.028,3.182-.26-3.083-.024,3.319-.263-3.212-.021.087-.195-.087.194,3.449-.264-3.32-.022,3.557-.265-3.428-.021-.085.189Zm3.977,0h-3.977l-.12.267Zm-6.035,1.811-.787-1.811a.418.418,0,0,0-.374-.269H371.36l-.339.386a.7.7,0,0,1,.3-.069.731.731,0,0,1,.432.146l0,0-1.917,4.954.374-.048,1.862-.222-1.766-.063,1.871-.225-1.777-.06,1.881-.229-1.787-.057,1.891-.231-1.8-.054,1.9-.234-1.805-.052,1.91-.237-1.814-.049,1.919-.239-1.824-.046,1.9-.238.237.757.544,1.724H371.5l-.329.372h2.427l.046-.117.1-.255,1.135-2.934Zm-2.6-1.314c.007.013.014.027.021.041l-.3,0Zm.1.26.022.071-.5-.009Zm.082.263.031.1-.683-.014Zm.082.263.04.127-.87-.019Zm.083.263.048.154-1.055-.024Zm.083.263.056.181-1.242-.029Zm.082.263.066.208-1.429-.034Zm.083.264.074.234-1.615-.038Zm-1.636.481,1.719-.217.082.26Z" transform="translate(-369.84 -925.363)"/>
        <path id="路径_3238" data-name="路径 3238" class="cls-1" d="M393.782,925.327a2.923,2.923,0,0,0-2.385,1.021c-.929,1.158-.845,1.911-1.881,2.468a3.206,3.206,0,0,0,1.965-1.455C391.961,926.28,392.73,925.343,393.782,925.327Z" transform="translate(-371.949 -925.322)"/>
      </g>
      <g id="组_4132" data-name="组 4132" transform="translate(331.013 924.185)">
        <g id="组_4128" data-name="组 4128">
          <path id="路径_3239" data-name="路径 3239" class="cls-1" d="M345.022,930.837l-2.374-5.732a1.366,1.366,0,0,0-2.524,0l-2.374,5.732a1.458,1.458,0,0,0,2.019,1.854,3.531,3.531,0,0,1,3.236,0,1.473,1.473,0,0,0,.67.163,1.461,1.461,0,0,0,1.348-2.019Zm-.582,1.392a1.126,1.126,0,0,1-1.286.172,3.863,3.863,0,0,0-3.536,0,1.131,1.131,0,0,1-1.565-1.437l2.374-5.733a1.038,1.038,0,0,1,1.919,0l2.374,5.733A1.129,1.129,0,0,1,344.44,932.228Z" transform="translate(-337.639 -924.262)"/>
          <path id="路径_3240" data-name="路径 3240" class="cls-1" d="M344.153,931.015l-2.075-5.007a.612.612,0,0,0-1.131,0q-1.038,2.5-2.075,5.007a.672.672,0,0,0,.924.856,3.822,3.822,0,0,1,3.433,0,.672.672,0,0,0,.924-.856Zm-1.68-.669a.19.19,0,0,1-.205.048,2.231,2.231,0,0,0-1.511,0,.19.19,0,0,1-.2-.047.192.192,0,0,1-.039-.208q.411-.989.821-1.978a.193.193,0,0,1,.356,0q.41.99.82,1.978A.191.191,0,0,1,342.472,930.347Z" transform="translate(-337.766 -924.409)"/>
        </g>
        <g id="组_4131" data-name="组 4131" transform="translate(9.913 0.819)">
          <g id="组_4129" data-name="组 4129">
            <path id="路径_3241" data-name="路径 3241" class="cls-1" d="M351.784,925.519a.93.93,0,0,1,.656.194.88.88,0,0,1,0,1.286.93.93,0,0,1-.656.194h-.345v-1.674Zm.8-.1a1.257,1.257,0,0,0-.788-.216h-.53a.159.159,0,0,0-.159.159v1.979a.159.159,0,0,0,.159.159h.53a1.265,1.265,0,0,0,.791-.216,1.178,1.178,0,0,0,0-1.865m1.279,1.174c-.054,0-.066.025-.066.025l.366-.879.367.879s-.012-.025-.066-.025Zm.3-1.419a.158.158,0,0,0-.146.1l-.84,2.02a.158.158,0,0,0,.291.121l.145-.345a.274.274,0,0,1,.242-.164h.617a.274.274,0,0,1,.242.164l.145.345a.158.158,0,0,0,.291-.121l-.841-2.02a.157.157,0,0,0-.146-.1M349.44,926.6c-.055,0-.067.025-.067.025l.367-.879.367.879s-.012-.025-.067-.025Zm.3-1.419a.157.157,0,0,0-.146.1l-.841,2.02a.158.158,0,0,0,.291.121l.146-.345a.273.273,0,0,1,.242-.164h.616a.273.273,0,0,1,.242.164l.145.345a.158.158,0,0,0,.291-.121l-.841-2.02a.157.157,0,0,0-.146-.1m9.1,1.419c-.054,0-.066.025-.066.025l.366-.879.367.879s-.012-.025-.067-.025Zm.3-1.419a.157.157,0,0,0-.146.1l-.84,2.02a.158.158,0,0,0,.291.121l.145-.345a.274.274,0,0,1,.242-.164h.616a.274.274,0,0,1,.243.164l.145.345a.158.158,0,0,0,.291-.121l-.841-2.02a.156.156,0,0,0-.145-.1m-2.625,1.78-.65-1.02v1.412a.164.164,0,0,1-.328,0v-2.027a.145.145,0,0,1,.267-.078l.849,1.344.849-1.344a.145.145,0,0,1,.267.078v2.027a.164.164,0,0,1-.329,0v-1.412l-.649,1.02a.164.164,0,0,1-.277,0" transform="translate(-348.742 -925.179)"/>
          </g>
          <g id="组_4130" data-name="组 4130" transform="translate(0 3.055)">
            <path id="路径_3242" data-name="路径 3242" class="cls-1" d="M353.976,929.078a.1.1,0,0,0-.1-.1h-.57a.1.1,0,0,0-.1.1v.147a.1.1,0,0,0,.1.1h.57a.1.1,0,0,0,.1-.1Z" transform="translate(-349.22 -928.641)"/>
            <path id="路径_3243" data-name="路径 3243" class="cls-1" d="M350.225,928.878a.1.1,0,0,0,.1-.1v-.069a.105.105,0,0,1,.1-.1h.177a.105.105,0,0,1,.1.1v.069a.1.1,0,0,0,.1.1h1.225a.1.1,0,0,1,.1.1v.563a.1.1,0,0,1-.1.1h-.193a.1.1,0,0,1-.1-.1v-.27a.1.1,0,0,0-.1-.1h-2.257a.1.1,0,0,0-.1.1v.27a.1.1,0,0,1-.1.1h-.162a.1.1,0,0,1-.1-.1v-.563a.105.105,0,0,1,.1-.1Z" transform="translate(-348.76 -928.601)"/>
            <path id="路径_3244" data-name="路径 3244" class="cls-1" d="M351.707,930.483h.4a.132.132,0,0,0,.132-.132v-.067a.132.132,0,0,0-.132-.132h-.319a.067.067,0,0,1-.066-.066v-.215a.132.132,0,0,0-.132-.132h-.215a.132.132,0,0,0-.131.132v.215a.067.067,0,0,1-.066.066H349.8a.066.066,0,0,1-.066-.066v-.215a.132.132,0,0,0-.132-.132h-.215a.133.133,0,0,0-.132.132v.215a.066.066,0,0,1-.066.066h-.318a.132.132,0,0,0-.132.132v.067a.132.132,0,0,0,.132.132h.4a1.423,1.423,0,0,0,.772,1.153c-.342.094-1.141.212-1.15.213a.152.152,0,0,0-.126.146v.189l.038,0a10.1,10.1,0,0,0,1.682-.349,10.094,10.094,0,0,0,1.683.349l.038,0V932a.152.152,0,0,0-.127-.146c-.008,0-.807-.119-1.149-.213A1.424,1.424,0,0,0,351.707,930.483Zm-.465,0a.776.776,0,1,1-1.5,0Z" transform="translate(-348.742 -928.723)"/>
            <path id="路径_3245" data-name="路径 3245" class="cls-1" d="M356.7,931.8h-2.207c-.379-.011-.545-.437-.545-.437a.7.7,0,0,1-.038-.2v-1.3a.106.106,0,0,0-.105-.106h-.545a.106.106,0,0,0-.105.106v.055a.106.106,0,0,0,.105.106h.151a.106.106,0,0,1,.106.105v1.2c.021.263-.281.515-.281.515a.256.256,0,0,0-.081.173v.13a1.147,1.147,0,0,0,.614-.378,1.085,1.085,0,0,0,.829.372h2.1c.059,0,.106-.08.106-.138v-.056c0-.058-.047-.146-.106-.146" transform="translate(-349.215 -928.725)"/>
            <path id="路径_3246" data-name="路径 3246" class="cls-1" d="M356.819,928.859h-.393a.088.088,0,0,1-.056-.081v-.086a.088.088,0,0,0-.088-.088h-.216a.089.089,0,0,0-.088.088v.086a.087.087,0,0,1-.056.081h-.583a.088.088,0,0,1-.057-.081v-.086a.088.088,0,0,0-.088-.088h-.216a.089.089,0,0,0-.088.088v.086a.087.087,0,0,1-.056.081h-.426a.111.111,0,0,0-.111.111v.089a.111.111,0,0,0,.111.111h.825a.091.091,0,0,1,.092.109l-.011.06a.137.137,0,0,1-.13.109h-.5a.111.111,0,0,0-.111.111v1.79a.111.111,0,0,0,.111.111h.138c.061,0,.111-.029.111-.065s.05-.065.111-.065h1.12c.061,0,.111.029.111.065s.05.065.111.065h.171a.11.11,0,0,0,.11-.111v-1.79a.111.111,0,0,0-.11-.111h-.793a.078.078,0,0,1-.079-.105l.02-.066a.158.158,0,0,1,.142-.106h.972a.111.111,0,0,0,.111-.111v-.089A.111.111,0,0,0,356.819,928.859Zm-.544,2.064a.111.111,0,0,1-.111.111h-1.12a.111.111,0,0,1-.111-.111V930.9a.111.111,0,0,1,.111-.111h1.12a.111.111,0,0,1,.111.111Zm0-.507a.111.111,0,0,1-.111.111h-1.12a.111.111,0,0,1-.111-.111v-.073a.111.111,0,0,1,.111-.111h1.12a.111.111,0,0,1,.111.111Zm-.111-.674a.111.111,0,0,1,.111.111v.024a.111.111,0,0,1-.111.111h-1.12a.111.111,0,0,1-.111-.111v-.024a.111.111,0,0,1,.111-.111Z" transform="translate(-349.337 -928.601)"/>
            <path id="路径_3247" data-name="路径 3247" class="cls-1" d="M361.084,931.838a.17.17,0,0,0-.141-.167v0a5.8,5.8,0,0,1-1.125-.177,5.254,5.254,0,0,0,.67-.473.325.325,0,0,0,.1-.221v-.045a.135.135,0,0,0-.135-.136h-1.6a1.018,1.018,0,0,0,.187-.229l.009-.019a.329.329,0,0,1,.155-.024H360.9a.137.137,0,0,0,.136-.136v-.03a.137.137,0,0,0-.136-.136h-1.25a.129.129,0,1,1,0-.258h.992a.135.135,0,0,0,.135-.136v-.016a.136.136,0,0,0-.135-.136h-.992a.129.129,0,1,1,0-.258H360.8a.135.135,0,0,0,.136-.135v-.031a.135.135,0,0,0-.136-.135h-1.149a.136.136,0,0,1-.136-.136v-.059a.135.135,0,0,0-.135-.136h-.117a.136.136,0,0,0-.136.136v.059a.136.136,0,0,1-.136.136h-1.135a.135.135,0,0,0-.136.135v.031a.135.135,0,0,0,.136.135h1.135a.129.129,0,1,1,0,.258h-.962a.136.136,0,0,0-.136.136v.016a.136.136,0,0,0,.136.136h.962a.129.129,0,1,1,0,.258h-1.236a.136.136,0,0,0-.135.136v.03a.136.136,0,0,0,.135.136h.884a2.99,2.99,0,0,1-.983.79h0a.18.18,0,0,0-.082.152.182.182,0,0,0,.182.182.176.176,0,0,0,.125-.051c.038-.028.095-.065.17-.112.153-.115.268-.2.344-.245a3.446,3.446,0,0,0,.56.431,9.463,9.463,0,0,1-1.272.225v0a.177.177,0,0,0,.031.351.218.218,0,0,0,.035,0h0a8.557,8.557,0,0,0,1.636-.387,6.7,6.7,0,0,0,1.483.323.164.164,0,0,0,.042.006h.01v0A.17.17,0,0,0,361.084,931.838Zm-1.711-.5a2.71,2.71,0,0,1-.554-.346c-.03-.024-.041-.046-.035-.061s.029-.022.064-.022h1.256A2.908,2.908,0,0,1,359.373,931.335Z" transform="translate(-349.685 -928.602)"/>
          </g>
        </g>
      </g>
    </g>
  </g>
</svg>
