<svg xmlns="http://www.w3.org/2000/svg" width="20" height="20" viewBox="0 0 20 20">
  <defs>
    <style>
      .cls-1 {
        fill: none;
      }

      .cls-2 {
        fill: #f5ac40;
      }

      .cls-3 {
        fill: #fff;
      }
    </style>
  </defs>
  <g id="组_4636" data-name="组 4636" transform="translate(-225 -320)">
    <rect id="矩形_2803" data-name="矩形 2803" class="cls-1" width="20" height="20" transform="translate(225 320)"/>
    <g id="组_4623" data-name="组 4623" transform="translate(226.596 321.938)">
      <path id="路径_4281" data-name="路径 4281" class="cls-2" d="M8.3,8.3,0,8.3A8.3,8.3,0,1,0,8.3,0,8.3,8.3,0,0,0,0,8.3Z" transform="translate(0 0)"/>
      <path id="路径_4282" data-name="路径 4282" class="cls-3" d="M312.446,285.5l-.083-.083h-1.91v-3.128a.685.685,0,0,0-.692-.692h-1.052a.685.685,0,0,0-.692.692v3.128h-1.91l-.083.083a.385.385,0,0,0,0,.526l2.962,2.934a.385.385,0,0,0,.526,0l2.934-2.934a.385.385,0,0,0,0-.526Zm0,0" transform="translate(-300.959 -277.033)"/>
    </g>
  </g>
</svg>
