<svg id="组件_27_2" data-name="组件 27 – 2" xmlns="http://www.w3.org/2000/svg" width="16" height="16" viewBox="0 0 16 16">
  <defs>
    <style>
      .cls-1 {
        fill: none;
      }

      .cls-2 {
        fill: #303133;
      }
    </style>
  </defs>
  <rect id="矩形_2859" data-name="矩形 2859" class="cls-1" width="16" height="16"/>
  <path id="路径_4459" data-name="路径 4459" class="cls-2" d="M3.186,5.633,6.173,8.627a1.076,1.076,0,0,0,1.52,0l2.994-2.994a.6.6,0,0,0-.847-.847l-2.3,2.3V.618a.6.6,0,1,0-1.2,0V7.094l-2.3-2.3a.6.6,0,1,0-.848.844ZM11.375,1.6a.6.6,0,1,0,0,1.2,1.3,1.3,0,0,1,1.3,1.3v6.971a1.3,1.3,0,0,1-1.3,1.3H2.5a1.3,1.3,0,0,1-1.3-1.3V4.1A1.3,1.3,0,0,1,2.5,2.8a.6.6,0,1,0,0-1.2A2.5,2.5,0,0,0,0,4.1v6.971a2.5,2.5,0,0,0,2.5,2.5h8.878a2.5,2.5,0,0,0,2.5-2.5V4.1a2.5,2.5,0,0,0-2.5-2.5Z" transform="translate(1 1.033)"/>
</svg>
