<svg id="组件_28_2" data-name="组件 28 – 2" xmlns="http://www.w3.org/2000/svg" width="16" height="16" viewBox="0 0 16 16">
  <defs>
    <style>
      .cls-1 {
        fill: none;
      }

      .cls-2 {
        fill: #303133;
      }
    </style>
  </defs>
  <rect id="矩形_2858" data-name="矩形 2858" class="cls-1" width="16" height="16"/>
  <g id="组_4359" data-name="组 4359" transform="translate(-298.158 -229.338)">
    <path id="路径_3735" data-name="路径 3735" class="cls-2" d="M310.283,301.454h-8.25c-.759,0-1.375.188-1.375.783v.359h11v-.359c0-.6-.615-.783-1.375-.783" transform="translate(0 -69.242)"/>
    <path id="路径_3736" data-name="路径 3736" class="cls-2" d="M320.6,232.953l-.268-1.93a.816.816,0,0,0-.782-.685h-3.663a.817.817,0,0,0-.782.685l-.268,1.93c-.052.377.214.307.592.307h4.579c.378,0,.645.07.592-.307Zm-4.9-.391.212-1.525h3.608l.212,1.525H315.7Zm6.366,1.631h-8.7a.827.827,0,0,0-.833.919l.75,8.308a1.028,1.028,0,0,0,1,.919h6.869a1.028,1.028,0,0,0,1-.919l.75-8.308A.826.826,0,0,0,322.066,234.193Zm-6.182,9.184H314.1l-.593-8.114h2.372v8.114Zm3.012,0h-2.373v-8.114H318.9Zm2.413,0h-1.761v-8.114H321.9Z" transform="translate(-11.557)"/>
  </g>
</svg>
