<svg xmlns="http://www.w3.org/2000/svg" width="14.439" height="16" viewBox="0 0 14.439 16">
  <defs>
    <style>
      .cls-1 {
        fill: #909399;
      }
    </style>
  </defs>
  <path id="路径_1574" data-name="路径 1574" class="cls-1" d="M109.308,111a.375.375,0,0,1-.413-.334l-.216-2.082a1.062,1.062,0,0,1,.2-.669l-.236.293,5.946-7.4a.576.576,0,0,1,.81-.089l2.242,1.8a.576.576,0,0,1,.089.81l-5.709,7.11a1.05,1.05,0,0,1-.61.335l-2.1.228Zm10.934-10.805-1.186,1.479a.571.571,0,0,1-.8.087L116,99.948a.571.571,0,0,1-.087-.8l1.186-1.478a.571.571,0,0,1,.8-.087l2.256,1.812a.568.568,0,0,1,.086.8Zm2.262,12.638a.7.7,0,0,1-.758.628H108.824a.639.639,0,1,1,0-1.256h12.923A.7.7,0,0,1,122.5,112.832Z" transform="translate(-108.066 -97.46)"/>
</svg>
