<svg xmlns="http://www.w3.org/2000/svg" width="32" height="32" viewBox="0 0 32 32">
  <defs>
    <style>
      .cls-1 {
        fill: none;
      }

      .cls-2 {
        fill: #fff;
      }
    </style>
  </defs>
  <g id="组_4660" data-name="组 4660" transform="translate(-275 -100)">
    <rect id="矩形_2837" data-name="矩形 2837" class="cls-1" width="32" height="32" transform="translate(275 100)"/>
    <g id="组_484" data-name="组 484" transform="translate(278.949 105)">
      <path id="路径_748" data-name="路径 748" class="cls-2" d="M191.332,190.769H204v1.4H191.332Zm0,2.821H204v1.4H191.332Z" transform="translate(-186.866 -186.443)"/>
      <path id="路径_749" data-name="路径 749" class="cls-2" d="M15.182,14.942a5.6,5.6,0,0,1,6.473-1.53V10.669a.6.6,0,0,0-.6-.6H20.21V1.146A1.146,1.146,0,0,0,19.063,0H2.642A1.146,1.146,0,0,0,1.5,1.146v8.924H.65a.6.6,0,0,0-.6.6v9.577A1.4,1.4,0,0,0,1.5,21.573H14.753a5.583,5.583,0,0,1,.429-6.631ZM2.928,2.867H18.774v7.2H2.928Z" transform="translate(0)"/>
      <path id="路径_750" data-name="路径 750" class="cls-2" d="M660.7,619.866a4.635,4.635,0,0,0-2.426-2.406,4.357,4.357,0,0,0-1.754-.358,4.406,4.406,0,0,0-1.776.358,4.636,4.636,0,0,0-2.428,2.406,4.409,4.409,0,0,0,0,3.5,4.656,4.656,0,0,0,.983,1.435,4.5,4.5,0,0,0,3.221,1.309,4.567,4.567,0,0,0,3.2-1.308,4.65,4.65,0,0,0,.978-1.436,4.421,4.421,0,0,0,0-3.5Zm-1.632-.6-1.218,5.451a.3.3,0,0,1-.522.13l-1.479-1.9,2.089-2.683-2.394,2.38-2.349-.95a.327.327,0,0,1,0-.567l5.482-2.2a.284.284,0,0,1,.392.346Z" transform="translate(-637.01 -602.993)"/>
    </g>
  </g>
</svg>
