<svg xmlns="http://www.w3.org/2000/svg" width="16" height="14.188" viewBox="0 0 16 14.188">
  <defs>
    <style>
      .cls-1 {
        fill: #909399;
      }
    </style>
  </defs>
  <g id="组_4566" data-name="组 4566" transform="translate(-97 -143)">
    <path id="路径_4249" data-name="路径 4249" class="cls-1" d="M111.149,144.851h-4.5a.623.623,0,0,1-.37-.123l-1.81-1.357a1.861,1.861,0,0,0-1.11-.37H98.851A1.854,1.854,0,0,0,97,144.851v10.487a1.854,1.854,0,0,0,1.851,1.851h12.3A1.854,1.854,0,0,0,113,155.337V146.7A1.854,1.854,0,0,0,111.149,144.851Zm.617,10.487a.619.619,0,0,1-.617.617h-12.3a.619.619,0,0,1-.617-.617V144.851a.619.619,0,0,1,.617-.617h4.507a.623.623,0,0,1,.37.123l1.81,1.357a1.861,1.861,0,0,0,1.11.37h4.5a.619.619,0,0,1,.617.617Z"/>
    <path id="路径_4250" data-name="路径 4250" class="cls-1" d="M317.994,414.222l-1.815-1.815a.624.624,0,1,0-.883.883l1.191,1.191h-4.863a.624.624,0,1,0,0,1.247h4.863L315.3,416.92a.624.624,0,0,0,.883.883l1.815-1.815.441-.44a.625.625,0,0,0,0-.883Z" transform="translate(-209.916 -264.074)"/>
  </g>
</svg>
