<svg xmlns="http://www.w3.org/2000/svg" width="20" height="20" viewBox="0 0 20 20">
  <defs>
    <style>
      .cls-1, .cls-2 {
        fill: #62c232;
      }

      .cls-1 {
        opacity: 0.1;
      }
    </style>
  </defs>
  <g id="组_4039" data-name="组 4039" transform="translate(-15 -476)">
    <circle id="椭圆_58" data-name="椭圆 58" class="cls-1" cx="10" cy="10" r="10" transform="translate(15 476)"/>
    <g id="组_2861" data-name="组 2861" transform="translate(9228.816 6181.1)">
      <path id="路径_1584" data-name="路径 1584" class="cls-2" d="M123.413,71.032h2.2a3.377,3.377,0,0,1,3.413,3.338v.216c0,.727-1.528.754-3.413.754h-2.2c-1.885,0-3.413,0-3.413-.754v-.215A3.377,3.377,0,0,1,123.413,71.032ZM124.4,65a2.586,2.586,0,1,1-2.643,2.585A2.614,2.614,0,0,1,124.4,65Zm0,0a2.586,2.586,0,1,1-2.643,2.585A2.614,2.614,0,0,1,124.4,65Z" transform="translate(-9328.614 -5765.1)"/>
      <path id="联合_32" data-name="联合 32" class="cls-2" d="M.259,4.013c-.139,0-.251-.152-.251-.339s.112-.339.251-.339H4.031c.139,0,.251.152.251.339s-.112.339-.251.339ZM2.9,2.371H.259A.246.246,0,0,1,.035,2.2a.442.442,0,0,1,0-.345.246.246,0,0,1,.224-.166H2.9a.246.246,0,0,1,.224.166.442.442,0,0,1,0,.345.248.248,0,0,1-.216.166ZM2.9.677H.259A.246.246,0,0,1,.035.511a.442.442,0,0,1,0-.345A.246.246,0,0,1,.259,0H2.9a.246.246,0,0,1,.224.166.443.443,0,0,1,0,.345.248.248,0,0,1-.216.166Z" transform="translate(-9201.221 -5697.769)"/>
    </g>
  </g>
</svg>
