<svg id="组件_1_2" data-name="组件 1 – 2" xmlns="http://www.w3.org/2000/svg" width="128" height="128" viewBox="0 0 128 128">
  <rect id="矩形_2588" data-name="矩形 2588" width="128" height="128" fill="none"/>
  <path id="路径_114" data-name="路径 114" d="M641.329,113.242a9.247,9.247,0,0,1-2.608-.369l-28.836-8.828a9.061,9.061,0,0,1-6.011-11.236.851.851,0,0,1,1.605.49,7.352,7.352,0,0,0,4.871,9.109l28.836,8.828a7.352,7.352,0,0,0,9.109-4.872l12.456-40.931a7.352,7.352,0,0,0-4.871-9.109l-28.788-8.748a7.351,7.351,0,0,0-7.873,2.488A.859.859,0,0,1,617.87,49a8.965,8.965,0,0,1,9.711-3.066l28.836,8.828A9.061,9.061,0,0,1,662.428,66l-12.456,40.931a9.077,9.077,0,0,1-8.652,6.356Zm0,0" transform="translate(-564.135 -21.662)" fill="#e9e9e9"/>
  <path id="路径_60" data-name="路径 60" d="M551.929,23.3h-6.506a.906.906,0,0,1-.9-.916v-.474a.906.906,0,0,1,.916-.916h6.506a.906.906,0,0,1,.916.916v.474a.937.937,0,0,1-.916.916Zm0,0" transform="translate(-525.544 -5.976)" fill="#e9e9e9"/>
  <path id="路径_61" data-name="路径 61" d="M566.762,8.339h-.474a.906.906,0,0,1-.916-.916V.916A.875.875,0,0,1,566.257,0h.474a.906.906,0,0,1,.916.916V7.423a.875.875,0,0,1-.885.916Zm98.385,33.87h-9.481a.906.906,0,0,1-.916-.916v-.885a.906.906,0,0,1,.916-.916h9.481a.906.906,0,0,1,.916.916v.885a.906.906,0,0,1-.916.916Zm0,0" transform="translate(-543.392 12)" fill="#e9e9e9"/>
  <path id="路径_62" data-name="路径 62" d="M1219.358,256.464h-.844a.906.906,0,0,1-.916-.916V246.1a.906.906,0,0,1,.916-.916h.844a.906.906,0,0,1,.916.916v9.481A.906.906,0,0,1,1219.358,256.464Zm0,0" transform="translate(-1101.905 -197.952)" fill="#e9e9e9"/>
  <path id="路径_113" data-name="路径 113" d="M571.932,137.359a4.519,4.519,0,0,1-1.348-.2l-37.263-11.34a4.591,4.591,0,0,1-3.066-5.738l15.008-49.374a4.591,4.591,0,0,1,5.73-3.066L588.28,78.988a4.591,4.591,0,0,1,3.066,5.73L576.338,134.06a4.615,4.615,0,0,1-4.414,3.291ZM549.676,69.14a2.881,2.881,0,0,0-2.753,2.063l-15.032,49.374a2.913,2.913,0,0,0,1.918,3.612l37.287,11.34a2.913,2.913,0,0,0,3.611-1.918l15.008-49.342a2.913,2.913,0,0,0-1.918-3.612L550.5,69.309a2.657,2.657,0,0,0-.8-.144Zm0,0" transform="translate(-498.918 -41.107)" fill="#adadad" stroke="#adadad" stroke-width="0.5"/>
  <path id="路径_115" data-name="路径 115" d="M746.9,146.17l2.408.746a.473.473,0,0,1,.313.57l-.289.915a.474.474,0,0,1-.57.313l-2.408-.746a.473.473,0,0,1-.313-.57l.289-.915A.474.474,0,0,1,746.9,146.17ZM727.969,140.7l15.955,4.815a.474.474,0,0,1,.313.57l-.289.915a.473.473,0,0,1-.57.313l-15.955-4.815a.473.473,0,0,1-.313-.57l.289-.915a.449.449,0,0,1,.57-.313Zm0,0" transform="translate(-673.887 -106.138)" fill="#e9e9e9"/>
  <path id="路径_65" data-name="路径 65" d="M603.593,241.277H571.352v-6.1c0-2.785-2.539-5.042-5.67-5.042H524.046c-3.131,0-5.67,2.257-5.67,5.042v53.091c0,2.785,2.538,5.042,5.67,5.042h79.547c3.131,0,5.67-2.257,5.67-5.042V246.329c-.036-2.787-2.581-5.031-5.714-5.042Zm0,0" transform="translate(-503.149 -185.068)" fill="#fff"/>
  <path id="路径_66" data-name="路径 66" d="M517.5,286.438c-3.761-.01-6.815-2.666-6.858-5.963V228.161c-.012-3.331,3.058-6.04,6.858-6.05h41.579c3.774.016,6.828,2.694,6.847,6v4.961h30.97c3.773.016,6.828,2.694,6.846,6V280.4c-.012,3.312-3.069,6-6.846,6.011H517.5Zm41.579-62.207H517.5a4.245,4.245,0,0,0-4.439,3.891V280.4a4.245,4.245,0,0,0,4.439,3.891h79.4a4.245,4.245,0,0,0,4.439-3.891V239.134a4.245,4.245,0,0,0-4.439-3.891H564.767a1.248,1.248,0,0,1-.848-.319.951.951,0,0,1-.317-.76v-6a4.32,4.32,0,0,0-4.516-3.891Zm0,0" transform="translate(-496.523 -178.197)" fill="#adadad"/>
  <g id="组_172" data-name="组 172" transform="translate(71.685 84.093)">
    <circle id="椭圆_240" data-name="椭圆 240" cx="1.601" cy="1.601" r="1.601" transform="translate(0)" fill="#adadad"/>
    <circle id="椭圆_241" data-name="椭圆 241" cx="1.601" cy="1.601" r="1.601" transform="translate(5.337)" fill="#adadad"/>
    <circle id="椭圆_242" data-name="椭圆 242" cx="1.601" cy="1.601" r="1.601" transform="translate(10.673)" fill="#adadad"/>
  </g>
  <g id="椭圆_243" data-name="椭圆 243" transform="translate(5 30)" fill="none" stroke="#adadad" stroke-width="1.8">
    <circle cx="4" cy="4" r="4" stroke="none"/>
    <circle cx="4" cy="4" r="3.1" fill="none"/>
  </g>
  <rect id="矩形_2592" data-name="矩形 2592" width="6" height="2" rx="1" transform="translate(106 34)" fill="#adadad"/>
</svg>
