<svg xmlns="http://www.w3.org/2000/svg" width="18" height="14.22" viewBox="0 0 18 14.22">
  <defs>
    <style>
      .cls-1 {
        fill: #c0c4cc;
      }
    </style>
  </defs>
  <path id="路径_1576" data-name="路径 1576" class="cls-1" d="M12.117,120.054s-1.29-.36-1.29-1.23a1.767,1.767,0,0,1,.6-1.08,4.259,4.259,0,0,0,.93-2.76,3.819,3.819,0,0,0-3.57-4.05,3.847,3.847,0,0,0-3.57,4.08,4.432,4.432,0,0,0,.93,2.76c.18.24.6.72.6,1.08,0,.63-.63,1.02-1.23,1.29a7.559,7.559,0,0,0-3.57,2.31h.03a1.472,1.472,0,0,0-.27.93,1.8,1.8,0,0,0,1.8,1.77h10.56a1.751,1.751,0,0,0,1.83-1.77,2.021,2.021,0,0,0-.36-1.08,6.929,6.929,0,0,0-3.42-2.25Zm7.17,1.77a6.131,6.131,0,0,0-3.03-1.95s-1.05-.27-1.11-1.08a1.577,1.577,0,0,1,.51-.93,3.84,3.84,0,0,0,.84-2.43,3.422,3.422,0,0,0-3.15-3.6,2.409,2.409,0,0,0-.81.12,5.372,5.372,0,0,1,.93,3.09,5.867,5.867,0,0,1-1.2,3.45s-.21.27-.15.39c.03.12.39.24.39.24a8.082,8.082,0,0,1,3.96,2.61,2.9,2.9,0,0,1,.63,1.77,2.627,2.627,0,0,1-.21.96h1.17a1.59,1.59,0,0,0,1.65-1.56,1.869,1.869,0,0,0-.42-1.08Z" transform="translate(-1.707 -110.934)"/>
</svg>
