<svg xmlns="http://www.w3.org/2000/svg" width="20" height="20" viewBox="0 0 20 20">
  <defs>
    <style>
      .cls-1 {
        fill: #fff3cb;
      }

      .cls-2 {
        fill: #f5ac40;
      }
    </style>
  </defs>
  <g id="组_4040" data-name="组 4040" transform="translate(-15 -985)">
    <g id="组_3971" data-name="组 3971" transform="translate(0 -20)">
      <circle id="椭圆_98" data-name="椭圆 98" class="cls-1" cx="10" cy="10" r="10" transform="translate(15 1005)"/>
      <g id="组_3967" data-name="组 3967" transform="translate(15.18 1005.18)">
        <path id="路径_2808" data-name="路径 2808" class="cls-2" d="M325.872,3.413a6.5,6.5,0,0,0-2.414.468s4.376,4.316,4.492,4.474v-4.6c-.13-.047-.265-.084-.4-.119A6.484,6.484,0,0,0,325.872,3.413Zm0,0" transform="translate(-316.039)"/>
        <path id="路径_2809" data-name="路径 2809" class="cls-2" d="M713.146,44.2c-.177-.176-.361-.334-.548-.487a6.542,6.542,0,0,0-1.492-.885s.032,6.133,0,6.326l3.267-3.255c-.059-.123-.128-.247-.2-.366A6.616,6.616,0,0,0,713.146,44.2Zm0,0" transform="translate(-698.825 -38.915)"/>
        <path id="路径_2810" data-name="路径 2810" class="cls-2" d="M636.072,324.2s-4.33,4.361-4.489,4.477H636.2c.046-.131.086-.264.12-.4a6.358,6.358,0,0,0,.181-2.4A6.5,6.5,0,0,0,636.072,324.2Zm0,0" transform="translate(-620.316 -316.776)"/>
        <path id="路径_2811" data-name="路径 2811" class="cls-2" d="M480.02,713.117l3.267,3.255q.188-.091.368-.2A6.354,6.354,0,0,0,485,715.149a6.92,6.92,0,0,0,.488-.546,6.357,6.357,0,0,0,.887-1.486S480.217,713.149,480.02,713.117Zm0,0" transform="translate(-470.685 -700.81)"/>
        <path id="路径_2812" data-name="路径 2812" class="cls-2" d="M348.57,633.037v4.6c.13.046.265.084.4.119a6.463,6.463,0,0,0,4.09-.246S348.687,633.2,348.57,633.037Zm0,0" transform="translate(-340.837 -621.751)"/>
        <path id="路径_2813" data-name="路径 2813" class="cls-2" d="M59.625,482.434l-3.267,3.255c.059.123.127.247.2.366a6.4,6.4,0,0,0,1.029,1.339,6.889,6.889,0,0,0,.548.487,6.451,6.451,0,0,0,1.492.885s-.032-6.137,0-6.332Zm0,0" transform="translate(-52.27 -473.068)"/>
        <path id="路径_2814" data-name="路径 2814" class="cls-2" d="M3.636,349.556a6.353,6.353,0,0,0-.181,2.4,6.274,6.274,0,0,0,.427,1.676s4.326-4.361,4.489-4.474H3.756q-.069.2-.12.4Zm0,0" transform="translate(0 -341.416)"/>
        <path id="路径_2815" data-name="路径 2815" class="cls-2" d="M46.122,58.056a6.357,6.357,0,0,0-1.343,1.026,6.859,6.859,0,0,0-.488.546,6.354,6.354,0,0,0-.887,1.49s6.154-.032,6.353,0L46.49,57.863C46.365,57.923,46.242,57.989,46.122,58.056Zm0,0" transform="translate(-39.481 -53.756)"/>
      </g>
    </g>
  </g>
</svg>
