<svg xmlns="http://www.w3.org/2000/svg" width="26" height="22.033" viewBox="0 0 26 22.033">
  <defs>
    <style>
      .cls-1 {
        fill: #56bc39;
      }
    </style>
  </defs>
  <path id="路径_2423" data-name="路径 2423" class="cls-1" d="M86.351,148.5a1.144,1.144,0,1,1,1.129-1.144,1.132,1.132,0,0,1-1.129,1.144m-5.794,0a1.144,1.144,0,1,1,1.129-1.144,1.132,1.132,0,0,1-1.129,1.144m10.979,1.634c0-3.685-3.283-6.7-7.443-6.968-.193-.015-.386-.015-.579-.015-4.427,0-8.023,3.12-8.023,6.983a6.278,6.278,0,0,0,.238,1.679c.862,3.046,4.026,5.3,7.785,5.3a9.045,9.045,0,0,0,3.566-.728l1.8,1.233s.475.342.431-.312l-.505-1.931a6.639,6.639,0,0,0,2.734-5.245m-20.325-7.859a1.144,1.144,0,1,1,1.129-1.144,1.132,1.132,0,0,1-1.129,1.144m7.1-2.273a1.144,1.144,0,1,1-1.129,1.144A1.132,1.132,0,0,1,78.313,140m5.185,2.555c.178,0,.342.015.52.015-.654-3.907-4.531-6.894-9.2-6.894-5.126,0-9.286,3.625-9.286,8.082a7.705,7.705,0,0,0,3.328,6.2l-.7,2.585s-.238.862.654.475l2.555-1.753a10.486,10.486,0,0,0,3.447.579h.312a6.575,6.575,0,0,1-.223-1.709c-.015-4.175,3.848-7.577,8.587-7.577" transform="translate(-65.536 -135.68)"/>
</svg>
