<svg xmlns="http://www.w3.org/2000/svg" width="14" height="12" viewBox="0 0 14 12">
  <defs>
    <style>
      .cls-1 {
        fill: #606266;
      }
    </style>
  </defs>
  <path id="路径_1577" data-name="路径 1577" class="cls-1" d="M73.648,128a3.762,3.762,0,0,0-3.283,1.957A3.754,3.754,0,0,0,67.072,128a3.69,3.69,0,0,0-2.724,6.2l5.7,5.668a.454.454,0,0,0,.634,0l5.7-5.668a3.7,3.7,0,0,0-2.733-6.2Zm2.024,5.6-5.307,5.335L65.058,133.6a2.769,2.769,0,0,1,2.015-4.68,2.845,2.845,0,0,1,2.686,1.929.66.66,0,0,0,1.222.009h0a2.808,2.808,0,0,1,2.668-1.938,2.77,2.77,0,0,1,2.779,2.769A2.71,2.71,0,0,1,75.672,133.6Z" transform="translate(-63.36 -128)"/>
</svg>
