<svg xmlns="http://www.w3.org/2000/svg" width="12.498" height="14.107" viewBox="0 0 12.498 14.107">
  <defs>
    <style>
      .cls-1 {
        fill: #bbb;
      }
    </style>
  </defs>
  <path id="路径_1580" data-name="路径 1580" class="cls-1" d="M131.649,43.893c.022-.014.263-.165.334-.207a3.22,3.22,0,0,1,.346-.187c.757-.344,1.424-.1,2.307.93a1.635,1.635,0,0,1,.5,1.709,2.122,2.122,0,0,1-1,.958c-.035.02-.345.2-.425.25-1.253.773-4.126-1-6.192-4.022s-2.608-6.267-1.338-7.052l.168-.106.182-.118a2.094,2.094,0,0,1,1.541-.5,1.851,1.851,0,0,1,1.251,1.1c.738,1.388.575,2.046-.375,2.644-.068.044-.311.19-.334.2-.233.144.162,1.109,1.078,2.451.928,1.357,1.7,2.1,1.958,1.943Z" transform="matrix(0.966, -0.259, 0.259, 0.966, -130.416, 0.679)"/>
</svg>
