<svg id="组件_2_1" data-name="组件 2 – 1" xmlns="http://www.w3.org/2000/svg" width="14" height="14.108" viewBox="0 0 14 14.108">
  <defs>
    <style>
      .cls-1 {
        fill: none;
      }

      .cls-2 {
        fill: #fff;
        opacity: 0.7;
      }
    </style>
  </defs>
  <rect id="矩形_2463" data-name="矩形 2463" class="cls-1" width="14" height="14"/>
  <path id="路径_3052" data-name="路径 3052" class="cls-2" d="M6.152,8.364c.022-.014.263-.165.334-.207a3.224,3.224,0,0,1,.346-.187c.757-.344,1.424-.1,2.307.93a1.635,1.635,0,0,1,.5,1.709,2.123,2.123,0,0,1-1,.958c-.035.02-.345.2-.425.25-1.253.773-4.127-1-6.193-4.023S-.588,1.529.682.744L.85.638,1.032.52a2.094,2.094,0,0,1,1.541-.5,1.851,1.851,0,0,1,1.251,1.1c.739,1.388.576,2.046-.375,2.644-.068.044-.311.19-.334.2-.233.144.162,1.109,1.078,2.452.928,1.357,1.7,2.1,1.958,1.944Z" transform="matrix(0.966, -0.259, 0.259, 0.966, 1, 2.517)"/>
</svg>
