<svg xmlns="http://www.w3.org/2000/svg" width="58.744" height="54.765" viewBox="0 0 58.744 54.765">
  <defs>
    <style>
      .cls-1 {
        fill: #cfe9ff;
      }

      .cls-2 {
        fill: #6abbff;
      }

      .cls-3 {
        fill: #eff8ff;
      }

      .cls-4 {
        fill: #fafafa;
      }
    </style>
  </defs>
  <g id="组_4633" data-name="组 4633" transform="translate(0 -7.374)">
    <path id="路径_4283" data-name="路径 4283" class="cls-1" d="M293.271,7.458,322.9,16.515a1.726,1.726,0,0,1,1.143,2.149L313.473,53.228a1.726,1.726,0,0,1-2.149,1.143L281.7,45.314a1.726,1.726,0,0,1-1.143-2.15L291.122,8.6a1.672,1.672,0,0,1,2.149-1.141Z" transform="translate(-265.37 0)"/>
    <path id="路径_4284" data-name="路径 4284" class="cls-2" d="M313.354,57.722a2.376,2.376,0,0,1-.766-.145l-27.98-8.554a2.535,2.535,0,0,1-1.714-3.224l10.064-32.918a2.344,2.344,0,0,1,1.269-1.5,2.477,2.477,0,0,1,1.954-.212l27.98,8.554a2.535,2.535,0,0,1,1.714,3.224L315.812,55.864a2.415,2.415,0,0,1-2.458,1.858ZM295.489,12.844a.446.446,0,0,0-.379.065.783.783,0,0,0-.423.5l-10.063,32.92a.813.813,0,0,0,.571,1.074l27.981,8.555a.813.813,0,0,0,1.074-.571l10.064-32.918a.813.813,0,0,0-.571-1.075l-27.98-8.554c-.164-.051-.189.032-.272.006Z" transform="translate(-267.54 -3.483)"/>
    <path id="路径_4285" data-name="路径 4285" class="cls-2" d="M413.215,228.907,395.144,223.4a.845.845,0,0,1,.43-1.635l18.072,5.508a.935.935,0,0,1,.6,1.033.841.841,0,0,1-1.033.6Zm-.086,4.819-21.428-6.54a.845.845,0,0,1,.43-1.635l21.428,6.54a.935.935,0,0,1,.6,1.033A.841.841,0,0,1,413.129,233.726Z" transform="translate(-370.015 -202.826)"/>
    <path id="路径_4286" data-name="路径 4286" class="cls-3" d="M1.721,175.725H32.7a1.726,1.726,0,0,1,1.721,1.721v39.586a1.726,1.726,0,0,1-1.721,1.721H1.721A1.726,1.726,0,0,1,0,217.032V177.446a1.726,1.726,0,0,1,1.721-1.721Z" transform="translate(0 -159.282)"/>
    <path id="路径_4287" data-name="路径 4287" class="cls-2" d="M31.841,218.754H2.582A2.536,2.536,0,0,1,0,216.172V178.308a2.536,2.536,0,0,1,2.582-2.582H31.841a2.536,2.536,0,0,1,2.582,2.582v37.865a2.536,2.536,0,0,1-2.582,2.582ZM2.582,177.447a.813.813,0,0,0-.861.861v37.865a.813.813,0,0,0,.861.861H31.841a.813.813,0,0,0,.861-.861V178.308a.813.813,0,0,0-.861-.861Z" transform="translate(0 -159.283)"/>
    <path id="路径_4288" data-name="路径 4288" class="cls-3" d="M177.447,552.408h21.686a1.923,1.923,0,0,0,1.549-.861l3.27-5.938a1.808,1.808,0,0,1,1.549-.861h11.532a1.726,1.726,0,0,1,1.721,1.721v22.375a1.726,1.726,0,0,1-1.721,1.721H177.447a1.726,1.726,0,0,1-1.721-1.721V554.129A1.726,1.726,0,0,1,177.447,552.408Z" transform="translate(-166.26 -508.427)"/>
    <path id="路径_4289" data-name="路径 4289" class="cls-2" d="M217.033,570.48H177.447a1.726,1.726,0,0,1-1.721-1.721V554.129a1.726,1.726,0,0,1,1.721-1.721h21.686a1.923,1.923,0,0,0,1.549-.861l3.27-5.938a1.705,1.705,0,0,1,1.549-.861h11.532a1.726,1.726,0,0,1,1.721,1.721v22.375a1.711,1.711,0,0,1-1.721,1.635Zm-39.586-16.351v14.63h39.586V546.384H205.415l-3.27,5.938a3.377,3.377,0,0,1-3.012,1.807Z" transform="translate(-166.26 -508.427)"/>
    <path id="路径_4290" data-name="路径 4290" class="cls-1" d="M207.676,910.577h39.586v4.3H207.676Z" transform="translate(-196.489 -854.548)"/>
    <path id="路径_4291" data-name="路径 4291" class="cls-2" d="M179.543,465H160.611a.861.861,0,1,1,0-1.721h18.932a.861.861,0,1,1,0,1.721Z" transform="translate(-151.144 -431.343)"/>
    <path id="路径_4292" data-name="路径 4292" class="cls-4" d="M99.292,259.043m-3.442,0a3.442,3.442,0,1,0,3.442-3.442A3.442,3.442,0,0,0,95.85,259.043Z" transform="translate(-90.686 -234.855)"/>
    <path id="路径_4293" data-name="路径 4293" class="cls-2" d="M84.178,248.231a4.3,4.3,0,1,1,4.3-4.3A4.261,4.261,0,0,1,84.178,248.231Zm0-6.884a2.582,2.582,0,1,0,2.582,2.582A2.536,2.536,0,0,0,84.178,241.347Z" transform="translate(-75.572 -219.741)"/>
    <path id="路径_4294" data-name="路径 4294" class="cls-2" d="M119.085,560.847H96.711a.861.861,0,0,1,0-1.721h22.375a.861.861,0,1,1,0,1.721Z" transform="translate(-90.687 -522.03)"/>
    <path id="路径_4295" data-name="路径 4295" class="cls-2" d="M217.893,912.3H176.586a.861.861,0,1,1,0-1.721h41.307a.861.861,0,0,1,0,1.721Z" transform="translate(-166.259 -854.548)"/>
    <path id="路径_4296" data-name="路径 4296" class="cls-2" d="M787.08,832.423h-3.442a.861.861,0,1,1,0-1.721h3.442a.861.861,0,1,1,0,1.721Z" transform="translate(-740.609 -778.976)"/>
  </g>
</svg>
