<svg xmlns="http://www.w3.org/2000/svg" width="258" height="224.883" viewBox="0 0 258 224.883">
  <defs>
    <style>
      .cls-1 {
        fill: none;
        stroke-linecap: round;
        stroke-linejoin: round;
      }

      .cls-2, .cls-3 {
        stroke: none;
      }

      .cls-3 {
        fill: #0dcbfd;
      }
    </style>
  </defs>
  <g id="联合_36" data-name="联合 36" class="cls-1" transform="translate(-3.137)">
    <path class="cls-2" d="M39.235,206.986l6.413-22.338C19.539,165.251,3.137,137.2,3.137,106c0-58.542,57.756-106,129-106s129,47.458,129,106-57.756,106-129,106a155.128,155.128,0,0,1-37.454-4.537L58.389,223.637a13.958,13.958,0,0,1-19.155-16.651Z"/>
    <path class="cls-3" d="M 52.65028381347656 214.8824920654297 L 52.65019989013672 214.8824920654297 C 53.19161605834961 214.8824615478516 53.75286483764648 214.7546691894531 54.31907272338867 214.5023345947266 L 90.61336517333984 198.3294982910156 C 91.90270233154297 197.7549591064453 93.29009246826172 197.4636688232422 94.68370056152344 197.4636688232422 C 95.4925537109375 197.4636688232422 96.30355834960938 197.5618133544922 97.09857177734375 197.7596588134766 C 108.4056549072266 200.5736236572266 120.1943206787109 202.0004119873047 132.1371154785156 202.0004119873047 C 197.7537841796875 202.0004119873047 251.1368255615234 158.9349212646484 251.1368255615234 106.0002059936523 C 251.1368255615234 53.06549835205078 197.7537841796875 9.999997138977051 132.1371154785156 9.999997138977051 C 66.51995086669922 9.999997138977051 13.13649082183838 53.06549835205078 13.13649082183838 106.0002059936523 C 13.13649082183838 132.7149200439453 27.16007423400879 158.4551696777344 51.6114501953125 176.6208343505859 C 54.95574188232422 179.1054077148438 56.40924072265625 183.403076171875 55.2595329284668 187.4075317382813 L 48.84645080566406 209.7447509765625 C 48.47919845581055 211.0240325927734 48.68099212646484 212.1876983642578 49.44615936279297 213.203369140625 C 50.22649002075195 214.2391662597656 51.45420074462891 214.8825378417969 52.65028381347656 214.8824920654297 M 52.65065765380859 224.8824920654297 C 43.89870071411133 224.8828277587891 36.53207397460938 216.4003753662109 39.23461532592773 206.9856262207031 L 45.64782333374023 184.6479949951172 C 19.53861618041992 165.2506713867188 3.136491060256958 137.2008666992188 3.136491060256958 106.0002059936523 C 3.136491060256958 47.45791244506836 60.8922004699707 -2.787272023851983e-06 132.1371154785156 -2.787272023851983e-06 C 203.3811187744141 -2.787272023851983e-06 261.1368103027344 47.45791244506836 261.1368103027344 106.0002059936523 C 261.1368103027344 164.5424957275391 203.3811187744141 212.0004119873047 132.1371154785156 212.0004119873047 C 119.1135330200195 212.0004119873047 106.535285949707 210.4131622314453 94.68357086181641 207.4636688232422 L 58.3892822265625 223.6364898681641 C 56.47003173828125 224.4919128417969 54.5281982421875 224.8824157714844 52.65065765380859 224.8824920654297 Z"/>
  </g>
</svg>
