<svg xmlns="http://www.w3.org/2000/svg" width="13" height="11.017" viewBox="0 0 13 11.017">
  <defs>
    <style>
      .cls-1 {
        fill: #bbb;
      }
    </style>
  </defs>
  <path id="路径_1581" data-name="路径 1581" class="cls-1" d="M75.943,142.091a.572.572,0,1,1,.565-.572.566.566,0,0,1-.565.572m-2.9,0a.572.572,0,1,1,.565-.572.566.566,0,0,1-.565.572m5.49.817a3.74,3.74,0,0,0-3.722-3.484c-.1-.007-.193-.007-.29-.007a3.778,3.778,0,0,0-4.011,3.491,3.138,3.138,0,0,0,.119.839,3.946,3.946,0,0,0,3.893,2.652,4.523,4.523,0,0,0,1.783-.364l.9.617s.238.171.215-.156l-.253-.966a3.319,3.319,0,0,0,1.367-2.622m-10.162-3.93a.572.572,0,1,1,.565-.572.566.566,0,0,1-.565.572m3.551-1.137a.572.572,0,1,1-.565.572.566.566,0,0,1,.565-.572m2.593,1.278c.089,0,.171.007.26.007a4.488,4.488,0,0,0-4.6-3.447c-2.563,0-4.643,1.813-4.643,4.041a3.853,3.853,0,0,0,1.664,3.1l-.349,1.293s-.119.431.327.238l1.278-.877a5.243,5.243,0,0,0,1.723.29h.156a3.287,3.287,0,0,1-.111-.854,4.065,4.065,0,0,1,4.294-3.789" transform="translate(-65.536 -135.68)"/>
</svg>
