<svg id="组件_11_1" data-name="组件 11 – 1" xmlns="http://www.w3.org/2000/svg" width="30" height="30" viewBox="0 0 30 30">
  <defs>
    <style>
      .cls-1 {
        fill: none;
        opacity: 0.39;
      }

      .cls-2 {
        fill: #606266;
      }

      .cls-3 {
        fill: #0082ef;
      }
    </style>
  </defs>
  <rect id="矩形_2542" data-name="矩形 2542" class="cls-1" width="30" height="30"/>
  <g id="组_2868" data-name="组 2868" transform="translate(-296.388 -221)">
    <path id="路径_2231" data-name="路径 2231" class="cls-2" d="M113.409,109.117l-.895-1.345L117,104.783v1.508a10.5,10.5,0,0,1-19.853,4.774l1.438-.735a8.889,8.889,0,0,0,16.655-2.435l-1.83,1.219Zm-13.818-5.651.895,1.345L96,107.8v-1.508a10.5,10.5,0,0,1,19.9-4.671l-1.446.72a8.889,8.889,0,0,0-16.7,2.346l1.83-1.219Z" transform="matrix(0.966, 0.259, -0.259, 0.966, 236.387, 105.625)"/>
    <g id="组_2867" data-name="组 2867" transform="translate(38.182 11.311)">
      <path id="路径_2242" data-name="路径 2242" class="cls-3" d="M274.281,221.614v7.144a.647.647,0,1,1-1.285,0v-7.144l-2.535,2.537a.642.642,0,0,1-.909-.907l3.632-3.633a.64.64,0,0,1,.909,0l3.632,3.632a.642.642,0,1,1-.907.909Z" transform="translate(0)"/>
    </g>
  </g>
</svg>
